%TF.GenerationSoftware,KiCad,Pcbnew,9.0.1*%
%TF.CreationDate,2025-10-29T09:39:46+01:00*%
%TF.ProjectId,ZoneECU,5a6f6e65-4543-4552-9e6b-696361645f70,rev?*%
%TF.SameCoordinates,Original*%
%TF.FileFunction,Copper,L3,Inr*%
%TF.FilePolarity,Positive*%
%FSLAX46Y46*%
G04 Gerber Fmt 4.6, Leading zero omitted, Abs format (unit mm)*
G04 Created by KiCad (PCBNEW 9.0.1) date 2025-10-29 09:39:46*
%MOMM*%
%LPD*%
G01*
G04 APERTURE LIST*
%TA.AperFunction,ComponentPad*%
%ADD10C,1.700000*%
%TD*%
%TA.AperFunction,ComponentPad*%
%ADD11R,1.700000X1.700000*%
%TD*%
%TA.AperFunction,HeatsinkPad*%
%ADD12C,0.600000*%
%TD*%
%TA.AperFunction,ComponentPad*%
%ADD13C,1.803400*%
%TD*%
%TA.AperFunction,ComponentPad*%
%ADD14C,0.630000*%
%TD*%
%TA.AperFunction,ViaPad*%
%ADD15C,1.000000*%
%TD*%
%TA.AperFunction,ViaPad*%
%ADD16C,0.600000*%
%TD*%
%TA.AperFunction,Conductor*%
%ADD17C,1.000000*%
%TD*%
%TA.AperFunction,Conductor*%
%ADD18C,0.200000*%
%TD*%
%TA.AperFunction,Conductor*%
%ADD19C,0.300000*%
%TD*%
%TA.AperFunction,Conductor*%
%ADD20C,0.500000*%
%TD*%
G04 APERTURE END LIST*
D10*
%TO.N,/3V3*%
%TO.C,J2*%
X102460000Y-83000000D03*
X102460000Y-80460000D03*
%TO.N,Net-(J2-Pin_4)*%
X105000000Y-83000000D03*
%TO.N,Net-(J2-Pin_3)*%
X105000000Y-80460000D03*
%TO.N,GND*%
X107540000Y-83000000D03*
D11*
X107540000Y-80460000D03*
%TD*%
D12*
%TO.N,GND*%
%TO.C,U6*%
X121600000Y-125665000D03*
X120450000Y-125665000D03*
X119390000Y-125665000D03*
X118110000Y-125665000D03*
X116900000Y-125665000D03*
X115700000Y-125665000D03*
X121600000Y-126635000D03*
X120450000Y-126635000D03*
X119390000Y-126635000D03*
X118110000Y-126635000D03*
X116900000Y-126635000D03*
X115700000Y-126635000D03*
%TD*%
D13*
%TO.N,/HS1_VOUT4*%
%TO.C,J1*%
X115250002Y-138650001D03*
%TO.N,/BO_OUT1*%
X115250002Y-141150001D03*
%TO.N,unconnected-(J1-PadA3)*%
X115250002Y-143650001D03*
%TO.N,/IN1*%
X115250002Y-146150001D03*
%TO.N,/HS1_VOUT3*%
X117750002Y-138650001D03*
%TO.N,/BO_OUT2*%
X117750002Y-141150001D03*
%TO.N,unconnected-(J1-PadB3)*%
X117750002Y-143650001D03*
%TO.N,/IN2*%
X117750002Y-146150001D03*
%TO.N,/HS1_VOUT2*%
X120250002Y-138650001D03*
%TO.N,/BO_OUT3*%
X120250002Y-141150001D03*
%TO.N,unconnected-(J1-PadC3)*%
X120250002Y-143650001D03*
%TO.N,/IN3*%
X120250002Y-146150001D03*
%TO.N,/HS1_VOUT1*%
X122750002Y-138650001D03*
%TO.N,/BO_OUT4*%
X122750002Y-141150001D03*
%TO.N,unconnected-(J1-PadD3)*%
X122750002Y-143650001D03*
%TO.N,/IN4*%
X122750002Y-146150001D03*
%TO.N,/HS2_VOUT4*%
X125250000Y-138650001D03*
%TO.N,/BO_OUT5*%
X125250000Y-141150001D03*
%TO.N,unconnected-(J1-PadE3)*%
X125250000Y-143650001D03*
%TO.N,/IN5*%
X125250000Y-146150001D03*
%TO.N,/HS2_VOUT3*%
X127750000Y-138650001D03*
%TO.N,/BO_OUT6*%
X127750000Y-141150001D03*
%TO.N,unconnected-(J1-PadF3)*%
X127750000Y-143650001D03*
%TO.N,/IN6*%
X127750000Y-146150001D03*
%TO.N,/HS2_VOUT2*%
X130250000Y-138650001D03*
%TO.N,/BO_OUT7*%
X130250000Y-141150001D03*
%TO.N,unconnected-(J1-PadG3)*%
X130250000Y-143650001D03*
%TO.N,/IN7*%
X130250000Y-146150001D03*
%TO.N,/HS2_VOUT1*%
X132750000Y-138650001D03*
%TO.N,/BO_OUT8*%
X132750000Y-141150001D03*
%TO.N,unconnected-(J1-PadH3)*%
X132750000Y-143650001D03*
%TO.N,/IN8*%
X132750000Y-146150001D03*
%TO.N,/HB_OUT1*%
X135250000Y-138650001D03*
%TO.N,/CAN_L*%
X135250000Y-141150001D03*
%TO.N,/RS232_RX*%
X135250000Y-143650001D03*
%TO.N,/3V3*%
X135250000Y-146150001D03*
%TO.N,/HB_OUT2*%
X137750000Y-138650001D03*
%TO.N,/CAN_H*%
X137750000Y-141150001D03*
%TO.N,/RS232_TX*%
X137750000Y-143650001D03*
%TO.N,/5V*%
X137750000Y-146150001D03*
%TO.N,/HB_VIN*%
X141250000Y-138650001D03*
%TO.N,GND*%
X141250000Y-141150001D03*
%TO.N,/HS1_VBB*%
X141250000Y-143650001D03*
%TO.N,/HS2_VBB*%
X141250000Y-146150001D03*
%TO.N,/VIN*%
X144950000Y-138650001D03*
%TO.N,GND*%
X144950000Y-141150001D03*
%TO.N,unconnected-(J1-PadM3)*%
X144950000Y-143650001D03*
%TO.N,unconnected-(J1-PadM4)*%
X144950000Y-146150001D03*
%TD*%
D12*
%TO.N,GND*%
%TO.C,U8*%
X131325000Y-125865000D03*
X130175000Y-125865000D03*
X129115000Y-125865000D03*
X127835000Y-125865000D03*
X126625000Y-125865000D03*
X125425000Y-125865000D03*
X131325000Y-126835000D03*
X130175000Y-126835000D03*
X129115000Y-126835000D03*
X127835000Y-126835000D03*
X126625000Y-126835000D03*
X125425000Y-126835000D03*
%TD*%
D14*
%TO.N,GND*%
%TO.C,U7*%
X143300000Y-124700000D03*
X142000000Y-124700000D03*
X140700000Y-124700000D03*
X143300000Y-126000000D03*
X142000000Y-126000000D03*
X140700000Y-126000000D03*
%TD*%
D15*
%TO.N,/HS2_VBB*%
X139818172Y-135279933D03*
D16*
%TO.N,/BOOT1*%
X127500000Y-89500000D03*
X126000000Y-80000000D03*
%TO.N,/BOOT0*%
X124000000Y-80500000D03*
X143500000Y-83500000D03*
%TO.N,GND*%
X150000000Y-99500000D03*
X150000000Y-93000000D03*
X150500000Y-89500000D03*
X150000000Y-86000000D03*
X156000000Y-87000000D03*
X156000000Y-93500000D03*
X156000000Y-100000000D03*
X155000000Y-81000000D03*
X145000000Y-84500000D03*
X142500000Y-82500000D03*
X135500000Y-82500000D03*
X147500000Y-94000000D03*
X146000000Y-90500000D03*
X143000000Y-87000000D03*
X139500000Y-92500000D03*
X139500000Y-96000000D03*
X137000000Y-97000000D03*
X147000000Y-97000000D03*
X143000000Y-100500000D03*
X139000000Y-100500000D03*
X139000000Y-103000000D03*
X144000000Y-108000000D03*
X154000000Y-109000000D03*
X151500000Y-109000000D03*
X152500000Y-117000000D03*
X159500000Y-119500000D03*
X163500000Y-117000000D03*
X159000000Y-116500000D03*
X159000000Y-125500000D03*
X162000000Y-125500000D03*
X159500000Y-129500000D03*
X162000000Y-129500000D03*
X145500000Y-133500000D03*
X148000000Y-130500000D03*
X146000000Y-129000000D03*
X148500000Y-126000000D03*
X148500000Y-120000000D03*
X144000000Y-116000000D03*
X128000000Y-116000000D03*
X128000000Y-113000000D03*
X128000000Y-110000000D03*
X128000000Y-106000000D03*
X128000000Y-102500000D03*
X133000000Y-109000000D03*
X133500000Y-107500000D03*
X134500000Y-121500000D03*
X134000000Y-128500000D03*
X114000000Y-129000000D03*
X114000000Y-124500000D03*
X113000000Y-120000000D03*
X113000000Y-115500000D03*
X113000000Y-112000000D03*
X113000000Y-109500000D03*
X126500000Y-81500000D03*
X121500000Y-81500000D03*
X115500000Y-81500000D03*
X112500000Y-84000000D03*
X103000000Y-85500000D03*
X105500000Y-88000000D03*
X106000000Y-93000000D03*
X106000000Y-97500000D03*
X107500000Y-102500000D03*
X107500000Y-108500000D03*
X107500000Y-114000000D03*
X107500000Y-120500000D03*
X107500000Y-126500000D03*
X107000000Y-132500000D03*
X104500000Y-135500000D03*
X118500000Y-135000000D03*
X129000000Y-135000000D03*
X147000000Y-138000000D03*
X133500000Y-148500000D03*
X150000000Y-148500000D03*
X163000000Y-148500000D03*
X163000000Y-137500000D03*
%TO.N,/3V3*%
X116000000Y-109500000D03*
%TO.N,GND*%
X119000000Y-110500000D03*
X124246858Y-106234582D03*
X124000000Y-97000000D03*
X122000000Y-98500000D03*
X155500000Y-133000000D03*
X156500000Y-123500000D03*
X124000000Y-127500000D03*
X124000000Y-123000000D03*
%TO.N,/3V3*%
X124500000Y-121500000D03*
%TO.N,GND*%
X145500000Y-112000000D03*
X123345660Y-114859784D03*
D15*
X127863603Y-86363603D03*
X128000000Y-91500000D03*
D16*
X113500000Y-92000000D03*
D15*
X120000000Y-85500000D03*
X123500000Y-86000000D03*
X117500000Y-90000000D03*
D16*
X113500000Y-100000000D03*
X113500000Y-94000000D03*
X113500000Y-98000000D03*
D15*
X140500000Y-109000000D03*
X130275000Y-86589829D03*
X114000000Y-88000000D03*
D16*
%TO.N,/3V3*%
X105500000Y-86500000D03*
D15*
X151500000Y-123500000D03*
D16*
X134000000Y-120000000D03*
D15*
X129500000Y-90000000D03*
X138000000Y-101000000D03*
X144000000Y-114000000D03*
X137000000Y-84500000D03*
D16*
%TO.N,/5V*%
X117500000Y-111500000D03*
D15*
X150500000Y-132000000D03*
D16*
%TO.N,Net-(U6-EN1)*%
X117705853Y-106500000D03*
X122855367Y-122112164D03*
%TO.N,Net-(U6-EN2)*%
X117109205Y-105900000D03*
X122016275Y-121976417D03*
%TO.N,Net-(U6-EN3)*%
X121167878Y-121924191D03*
X116512557Y-105300000D03*
%TO.N,Net-(U6-EN4)*%
X117668270Y-105327767D03*
X120340417Y-122118646D03*
%TO.N,Net-(U6-SEL0)*%
X118703652Y-100423619D03*
X118931404Y-122662185D03*
%TO.N,Net-(U6-SEL1)*%
X119495447Y-122026292D03*
X119500000Y-100500000D03*
%TO.N,/HS1_SNS*%
X122500000Y-97500000D03*
X119907985Y-91407985D03*
%TO.N,/IN1*%
X108592134Y-89000000D03*
X111500000Y-87000000D03*
X112900000Y-145000000D03*
X114500000Y-84500000D03*
%TO.N,/IN2*%
X114000000Y-91000000D03*
X108592134Y-93000000D03*
X115065687Y-85065687D03*
X111400000Y-145500000D03*
%TO.N,/IN3*%
X110500000Y-146500000D03*
X115713730Y-85534776D03*
X108592134Y-97000000D03*
X114000000Y-94850000D03*
%TO.N,/IN4*%
X108592134Y-100561218D03*
X114500000Y-99000000D03*
X116500000Y-86000000D03*
X110400764Y-148099236D03*
%TO.N,/IN5*%
X108592134Y-87000000D03*
%TO.N,/IN6*%
X108592134Y-91000000D03*
%TO.N,/IN7*%
X108592134Y-95000000D03*
%TO.N,/IN8*%
X108596103Y-99081605D03*
%TO.N,/HS2_EN4*%
X131000000Y-87500000D03*
X141000000Y-92000000D03*
X134000000Y-88000000D03*
X132100000Y-88500000D03*
%TO.N,Net-(U8-EN4)*%
X141000000Y-96500000D03*
X129825000Y-122500000D03*
%TO.N,Net-(U8-EN3)*%
X130526422Y-121414208D03*
X142500000Y-96500000D03*
%TO.N,/HS2_EN3*%
X135000000Y-87400000D03*
X142500000Y-92000000D03*
%TO.N,Net-(U8-EN2)*%
X144000000Y-96500000D03*
X131088297Y-122052017D03*
%TO.N,/HS2_EN2*%
X135512149Y-86785421D03*
X144000000Y-92000000D03*
%TO.N,Net-(U8-SEL1)*%
X131500000Y-79500000D03*
X128826422Y-121500000D03*
%TO.N,Net-(U8-EN1)*%
X131801000Y-122515222D03*
X145500000Y-96500000D03*
%TO.N,/HS2_EN1*%
X145500000Y-92000000D03*
X135508002Y-85970014D03*
%TO.N,Net-(U8-SEL0)*%
X128500000Y-122500000D03*
X133000000Y-79500000D03*
%TO.N,/HB_IN2*%
X131275000Y-101500000D03*
X132500000Y-103500000D03*
%TO.N,/CAN_H*%
X154500000Y-112000000D03*
%TO.N,/CAN_L*%
X154000000Y-113500000D03*
%TO.N,/RS232_TX*%
X141000000Y-134500000D03*
X142500000Y-135500000D03*
X142500000Y-112500000D03*
%TO.N,/RS232_RX*%
X135000000Y-116000000D03*
%TO.N,/BO_IN6*%
X132659239Y-93871026D03*
X122124474Y-104532222D03*
%TO.N,/BO_IN7*%
X122722040Y-105064124D03*
X133500000Y-94000000D03*
%TO.N,/BO_IN5*%
X132592858Y-92825461D03*
X121350000Y-104331736D03*
%TO.N,/BO_IN3*%
X132534431Y-91162628D03*
X121100647Y-102620614D03*
%TO.N,/BO_IN4*%
X121035716Y-103534074D03*
X132522794Y-92022794D03*
%TO.N,/BO_IN1*%
X132500000Y-89500000D03*
X121000000Y-101000000D03*
%TO.N,/BO_IN2*%
X121024263Y-101824266D03*
X132524263Y-90324266D03*
%TO.N,/BO_IN8*%
X123500000Y-105500000D03*
X134324266Y-94024263D03*
D15*
%TO.N,/BO_OUT5*%
X119201466Y-116499079D03*
%TO.N,/BO_OUT6*%
X120451463Y-116502849D03*
%TO.N,/BO_OUT8*%
X122942129Y-116355789D03*
%TO.N,/BO_OUT2*%
X114000000Y-116500000D03*
%TO.N,/BO_OUT1*%
X115500000Y-115500000D03*
%TO.N,/BO_OUT3*%
X115815686Y-117315686D03*
%TO.N,/BO_OUT7*%
X121701454Y-116508210D03*
%TO.N,/BO_OUT4*%
X117966007Y-116689201D03*
%TO.N,/HS1_VBB*%
X119000000Y-130500000D03*
X138000000Y-137000000D03*
%TO.N,/HS2_VBB*%
X128500000Y-130500000D03*
%TO.N,/HB_VIN*%
X138500000Y-128225000D03*
%TD*%
D17*
%TO.N,/HS2_VBB*%
X141250000Y-146150001D02*
X139500000Y-144400001D01*
X139500000Y-144400001D02*
X139500000Y-135598105D01*
X139500000Y-135598105D02*
X139818172Y-135279933D01*
D18*
%TO.N,/3V3*%
X102460000Y-80460000D02*
X102460000Y-83000000D01*
X105500000Y-86500000D02*
X105500000Y-86040000D01*
X105500000Y-86040000D02*
X102460000Y-83000000D01*
D19*
X116000000Y-109500000D02*
X126000000Y-109500000D01*
X126000000Y-109500000D02*
X133000000Y-116500000D01*
X133000000Y-116500000D02*
X133000000Y-119000000D01*
X133000000Y-119000000D02*
X134000000Y-120000000D01*
D17*
X129500000Y-92500000D02*
X129500000Y-90000000D01*
X151500000Y-121500000D02*
X144000000Y-114000000D01*
D20*
X129500000Y-90000000D02*
X126500000Y-87000000D01*
X112562075Y-87000000D02*
X111372293Y-85810218D01*
D17*
X149701000Y-142299000D02*
X149700999Y-145364033D01*
X144000000Y-114000000D02*
X142500000Y-114000000D01*
D19*
X129500000Y-90000000D02*
X135000000Y-84500000D01*
X138500000Y-120000000D02*
X134000000Y-120000000D01*
X144000000Y-114500000D02*
X138500000Y-120000000D01*
D17*
X138000000Y-101000000D02*
X129500000Y-92500000D01*
X146065032Y-149000000D02*
X138099999Y-149000000D01*
X142500000Y-114000000D02*
X138000000Y-109500000D01*
X149700999Y-145364033D02*
X146065032Y-149000000D01*
D20*
X126500000Y-87000000D02*
X112562075Y-87000000D01*
D17*
X153306696Y-125306696D02*
X153306696Y-138693304D01*
X153306696Y-138693304D02*
X149701000Y-142299000D01*
X151500000Y-123500000D02*
X153306696Y-125306696D01*
D20*
X106189782Y-85810218D02*
X105500000Y-86500000D01*
D19*
X144000000Y-114000000D02*
X144000000Y-114500000D01*
D17*
X129500000Y-90000000D02*
X129500000Y-89500000D01*
X151500000Y-123500000D02*
X151500000Y-121500000D01*
X138000000Y-109500000D02*
X138000000Y-101000000D01*
D19*
X135000000Y-84500000D02*
X137000000Y-84500000D01*
D20*
X111372293Y-85810218D02*
X106189782Y-85810218D01*
D17*
X138099999Y-149000000D02*
X135250000Y-146150001D01*
D19*
%TO.N,/5V*%
X122301294Y-111500000D02*
X117500000Y-111500000D01*
D17*
X148500000Y-136000000D02*
X148500000Y-144866562D01*
D19*
X145524000Y-127024000D02*
X137825294Y-127024000D01*
X137825294Y-127024000D02*
X122301294Y-111500000D01*
D17*
X145613861Y-147752701D02*
X139352700Y-147752701D01*
X139352700Y-147752701D02*
X137750000Y-146150001D01*
X150500000Y-134000000D02*
X148500000Y-136000000D01*
D19*
X150500000Y-132000000D02*
X145524000Y-127024000D01*
D17*
X148500000Y-144866562D02*
X145613861Y-147752701D01*
X150500000Y-132000000D02*
X150500000Y-134000000D01*
%TD*%
M02*
