%TF.GenerationSoftware,KiCad,Pcbnew,9.0.1*%
%TF.CreationDate,2025-10-29T09:39:47+01:00*%
%TF.ProjectId,ZoneECU,5a6f6e65-4543-4552-9e6b-696361645f70,rev?*%
%TF.SameCoordinates,Original*%
%TF.FileFunction,Legend,Top*%
%TF.FilePolarity,Positive*%
%FSLAX46Y46*%
G04 Gerber Fmt 4.6, Leading zero omitted, Abs format (unit mm)*
G04 Created by KiCad (PCBNEW 9.0.1) date 2025-10-29 09:39:47*
%MOMM*%
%LPD*%
G01*
G04 APERTURE LIST*
%ADD10C,0.150000*%
%ADD11C,0.120000*%
%ADD12C,0.152400*%
%ADD13C,0.508000*%
G04 APERTURE END LIST*
D10*
X117357142Y-79454819D02*
X117023809Y-78978628D01*
X116785714Y-79454819D02*
X116785714Y-78454819D01*
X116785714Y-78454819D02*
X117166666Y-78454819D01*
X117166666Y-78454819D02*
X117261904Y-78502438D01*
X117261904Y-78502438D02*
X117309523Y-78550057D01*
X117309523Y-78550057D02*
X117357142Y-78645295D01*
X117357142Y-78645295D02*
X117357142Y-78788152D01*
X117357142Y-78788152D02*
X117309523Y-78883390D01*
X117309523Y-78883390D02*
X117261904Y-78931009D01*
X117261904Y-78931009D02*
X117166666Y-78978628D01*
X117166666Y-78978628D02*
X116785714Y-78978628D01*
X118214285Y-78788152D02*
X118214285Y-79454819D01*
X117976190Y-78407200D02*
X117738095Y-79121485D01*
X117738095Y-79121485D02*
X118357142Y-79121485D01*
X118690476Y-78550057D02*
X118738095Y-78502438D01*
X118738095Y-78502438D02*
X118833333Y-78454819D01*
X118833333Y-78454819D02*
X119071428Y-78454819D01*
X119071428Y-78454819D02*
X119166666Y-78502438D01*
X119166666Y-78502438D02*
X119214285Y-78550057D01*
X119214285Y-78550057D02*
X119261904Y-78645295D01*
X119261904Y-78645295D02*
X119261904Y-78740533D01*
X119261904Y-78740533D02*
X119214285Y-78883390D01*
X119214285Y-78883390D02*
X118642857Y-79454819D01*
X118642857Y-79454819D02*
X119261904Y-79454819D01*
X117357142Y-80954819D02*
X117023809Y-80478628D01*
X116785714Y-80954819D02*
X116785714Y-79954819D01*
X116785714Y-79954819D02*
X117166666Y-79954819D01*
X117166666Y-79954819D02*
X117261904Y-80002438D01*
X117261904Y-80002438D02*
X117309523Y-80050057D01*
X117309523Y-80050057D02*
X117357142Y-80145295D01*
X117357142Y-80145295D02*
X117357142Y-80288152D01*
X117357142Y-80288152D02*
X117309523Y-80383390D01*
X117309523Y-80383390D02*
X117261904Y-80431009D01*
X117261904Y-80431009D02*
X117166666Y-80478628D01*
X117166666Y-80478628D02*
X116785714Y-80478628D01*
X118214285Y-80288152D02*
X118214285Y-80954819D01*
X117976190Y-79907200D02*
X117738095Y-80621485D01*
X117738095Y-80621485D02*
X118357142Y-80621485D01*
X119261904Y-80954819D02*
X118690476Y-80954819D01*
X118976190Y-80954819D02*
X118976190Y-79954819D01*
X118976190Y-79954819D02*
X118880952Y-80097676D01*
X118880952Y-80097676D02*
X118785714Y-80192914D01*
X118785714Y-80192914D02*
X118690476Y-80240533D01*
X109374819Y-82063333D02*
X110089104Y-82063333D01*
X110089104Y-82063333D02*
X110231961Y-82110952D01*
X110231961Y-82110952D02*
X110327200Y-82206190D01*
X110327200Y-82206190D02*
X110374819Y-82349047D01*
X110374819Y-82349047D02*
X110374819Y-82444285D01*
X109470057Y-81634761D02*
X109422438Y-81587142D01*
X109422438Y-81587142D02*
X109374819Y-81491904D01*
X109374819Y-81491904D02*
X109374819Y-81253809D01*
X109374819Y-81253809D02*
X109422438Y-81158571D01*
X109422438Y-81158571D02*
X109470057Y-81110952D01*
X109470057Y-81110952D02*
X109565295Y-81063333D01*
X109565295Y-81063333D02*
X109660533Y-81063333D01*
X109660533Y-81063333D02*
X109803390Y-81110952D01*
X109803390Y-81110952D02*
X110374819Y-81682380D01*
X110374819Y-81682380D02*
X110374819Y-81063333D01*
X151492080Y-121705357D02*
X151539700Y-121752976D01*
X151539700Y-121752976D02*
X151587319Y-121895833D01*
X151587319Y-121895833D02*
X151587319Y-121991071D01*
X151587319Y-121991071D02*
X151539700Y-122133928D01*
X151539700Y-122133928D02*
X151444461Y-122229166D01*
X151444461Y-122229166D02*
X151349223Y-122276785D01*
X151349223Y-122276785D02*
X151158747Y-122324404D01*
X151158747Y-122324404D02*
X151015890Y-122324404D01*
X151015890Y-122324404D02*
X150825414Y-122276785D01*
X150825414Y-122276785D02*
X150730176Y-122229166D01*
X150730176Y-122229166D02*
X150634938Y-122133928D01*
X150634938Y-122133928D02*
X150587319Y-121991071D01*
X150587319Y-121991071D02*
X150587319Y-121895833D01*
X150587319Y-121895833D02*
X150634938Y-121752976D01*
X150634938Y-121752976D02*
X150682557Y-121705357D01*
X151587319Y-120752976D02*
X151587319Y-121324404D01*
X151587319Y-121038690D02*
X150587319Y-121038690D01*
X150587319Y-121038690D02*
X150730176Y-121133928D01*
X150730176Y-121133928D02*
X150825414Y-121229166D01*
X150825414Y-121229166D02*
X150873033Y-121324404D01*
X150587319Y-119895833D02*
X150587319Y-120086309D01*
X150587319Y-120086309D02*
X150634938Y-120181547D01*
X150634938Y-120181547D02*
X150682557Y-120229166D01*
X150682557Y-120229166D02*
X150825414Y-120324404D01*
X150825414Y-120324404D02*
X151015890Y-120372023D01*
X151015890Y-120372023D02*
X151396842Y-120372023D01*
X151396842Y-120372023D02*
X151492080Y-120324404D01*
X151492080Y-120324404D02*
X151539700Y-120276785D01*
X151539700Y-120276785D02*
X151587319Y-120181547D01*
X151587319Y-120181547D02*
X151587319Y-119991071D01*
X151587319Y-119991071D02*
X151539700Y-119895833D01*
X151539700Y-119895833D02*
X151492080Y-119848214D01*
X151492080Y-119848214D02*
X151396842Y-119800595D01*
X151396842Y-119800595D02*
X151158747Y-119800595D01*
X151158747Y-119800595D02*
X151063509Y-119848214D01*
X151063509Y-119848214D02*
X151015890Y-119895833D01*
X151015890Y-119895833D02*
X150968271Y-119991071D01*
X150968271Y-119991071D02*
X150968271Y-120181547D01*
X150968271Y-120181547D02*
X151015890Y-120276785D01*
X151015890Y-120276785D02*
X151063509Y-120324404D01*
X151063509Y-120324404D02*
X151158747Y-120372023D01*
X113954819Y-120230357D02*
X113478628Y-120563690D01*
X113954819Y-120801785D02*
X112954819Y-120801785D01*
X112954819Y-120801785D02*
X112954819Y-120420833D01*
X112954819Y-120420833D02*
X113002438Y-120325595D01*
X113002438Y-120325595D02*
X113050057Y-120277976D01*
X113050057Y-120277976D02*
X113145295Y-120230357D01*
X113145295Y-120230357D02*
X113288152Y-120230357D01*
X113288152Y-120230357D02*
X113383390Y-120277976D01*
X113383390Y-120277976D02*
X113431009Y-120325595D01*
X113431009Y-120325595D02*
X113478628Y-120420833D01*
X113478628Y-120420833D02*
X113478628Y-120801785D01*
X113954819Y-119277976D02*
X113954819Y-119849404D01*
X113954819Y-119563690D02*
X112954819Y-119563690D01*
X112954819Y-119563690D02*
X113097676Y-119658928D01*
X113097676Y-119658928D02*
X113192914Y-119754166D01*
X113192914Y-119754166D02*
X113240533Y-119849404D01*
X112954819Y-118658928D02*
X112954819Y-118563690D01*
X112954819Y-118563690D02*
X113002438Y-118468452D01*
X113002438Y-118468452D02*
X113050057Y-118420833D01*
X113050057Y-118420833D02*
X113145295Y-118373214D01*
X113145295Y-118373214D02*
X113335771Y-118325595D01*
X113335771Y-118325595D02*
X113573866Y-118325595D01*
X113573866Y-118325595D02*
X113764342Y-118373214D01*
X113764342Y-118373214D02*
X113859580Y-118420833D01*
X113859580Y-118420833D02*
X113907200Y-118468452D01*
X113907200Y-118468452D02*
X113954819Y-118563690D01*
X113954819Y-118563690D02*
X113954819Y-118658928D01*
X113954819Y-118658928D02*
X113907200Y-118754166D01*
X113907200Y-118754166D02*
X113859580Y-118801785D01*
X113859580Y-118801785D02*
X113764342Y-118849404D01*
X113764342Y-118849404D02*
X113573866Y-118897023D01*
X113573866Y-118897023D02*
X113335771Y-118897023D01*
X113335771Y-118897023D02*
X113145295Y-118849404D01*
X113145295Y-118849404D02*
X113050057Y-118801785D01*
X113050057Y-118801785D02*
X113002438Y-118754166D01*
X113002438Y-118754166D02*
X112954819Y-118658928D01*
X155920833Y-109524819D02*
X155587500Y-109048628D01*
X155349405Y-109524819D02*
X155349405Y-108524819D01*
X155349405Y-108524819D02*
X155730357Y-108524819D01*
X155730357Y-108524819D02*
X155825595Y-108572438D01*
X155825595Y-108572438D02*
X155873214Y-108620057D01*
X155873214Y-108620057D02*
X155920833Y-108715295D01*
X155920833Y-108715295D02*
X155920833Y-108858152D01*
X155920833Y-108858152D02*
X155873214Y-108953390D01*
X155873214Y-108953390D02*
X155825595Y-109001009D01*
X155825595Y-109001009D02*
X155730357Y-109048628D01*
X155730357Y-109048628D02*
X155349405Y-109048628D01*
X156873214Y-109524819D02*
X156301786Y-109524819D01*
X156587500Y-109524819D02*
X156587500Y-108524819D01*
X156587500Y-108524819D02*
X156492262Y-108667676D01*
X156492262Y-108667676D02*
X156397024Y-108762914D01*
X156397024Y-108762914D02*
X156301786Y-108810533D01*
X133359580Y-109142857D02*
X133407200Y-109190476D01*
X133407200Y-109190476D02*
X133454819Y-109333333D01*
X133454819Y-109333333D02*
X133454819Y-109428571D01*
X133454819Y-109428571D02*
X133407200Y-109571428D01*
X133407200Y-109571428D02*
X133311961Y-109666666D01*
X133311961Y-109666666D02*
X133216723Y-109714285D01*
X133216723Y-109714285D02*
X133026247Y-109761904D01*
X133026247Y-109761904D02*
X132883390Y-109761904D01*
X132883390Y-109761904D02*
X132692914Y-109714285D01*
X132692914Y-109714285D02*
X132597676Y-109666666D01*
X132597676Y-109666666D02*
X132502438Y-109571428D01*
X132502438Y-109571428D02*
X132454819Y-109428571D01*
X132454819Y-109428571D02*
X132454819Y-109333333D01*
X132454819Y-109333333D02*
X132502438Y-109190476D01*
X132502438Y-109190476D02*
X132550057Y-109142857D01*
X133454819Y-108190476D02*
X133454819Y-108761904D01*
X133454819Y-108476190D02*
X132454819Y-108476190D01*
X132454819Y-108476190D02*
X132597676Y-108571428D01*
X132597676Y-108571428D02*
X132692914Y-108666666D01*
X132692914Y-108666666D02*
X132740533Y-108761904D01*
X132454819Y-107857142D02*
X132454819Y-107190476D01*
X132454819Y-107190476D02*
X133454819Y-107619047D01*
X110357142Y-108359580D02*
X110309523Y-108407200D01*
X110309523Y-108407200D02*
X110166666Y-108454819D01*
X110166666Y-108454819D02*
X110071428Y-108454819D01*
X110071428Y-108454819D02*
X109928571Y-108407200D01*
X109928571Y-108407200D02*
X109833333Y-108311961D01*
X109833333Y-108311961D02*
X109785714Y-108216723D01*
X109785714Y-108216723D02*
X109738095Y-108026247D01*
X109738095Y-108026247D02*
X109738095Y-107883390D01*
X109738095Y-107883390D02*
X109785714Y-107692914D01*
X109785714Y-107692914D02*
X109833333Y-107597676D01*
X109833333Y-107597676D02*
X109928571Y-107502438D01*
X109928571Y-107502438D02*
X110071428Y-107454819D01*
X110071428Y-107454819D02*
X110166666Y-107454819D01*
X110166666Y-107454819D02*
X110309523Y-107502438D01*
X110309523Y-107502438D02*
X110357142Y-107550057D01*
X110738095Y-107550057D02*
X110785714Y-107502438D01*
X110785714Y-107502438D02*
X110880952Y-107454819D01*
X110880952Y-107454819D02*
X111119047Y-107454819D01*
X111119047Y-107454819D02*
X111214285Y-107502438D01*
X111214285Y-107502438D02*
X111261904Y-107550057D01*
X111261904Y-107550057D02*
X111309523Y-107645295D01*
X111309523Y-107645295D02*
X111309523Y-107740533D01*
X111309523Y-107740533D02*
X111261904Y-107883390D01*
X111261904Y-107883390D02*
X110690476Y-108454819D01*
X110690476Y-108454819D02*
X111309523Y-108454819D01*
X111880952Y-107883390D02*
X111785714Y-107835771D01*
X111785714Y-107835771D02*
X111738095Y-107788152D01*
X111738095Y-107788152D02*
X111690476Y-107692914D01*
X111690476Y-107692914D02*
X111690476Y-107645295D01*
X111690476Y-107645295D02*
X111738095Y-107550057D01*
X111738095Y-107550057D02*
X111785714Y-107502438D01*
X111785714Y-107502438D02*
X111880952Y-107454819D01*
X111880952Y-107454819D02*
X112071428Y-107454819D01*
X112071428Y-107454819D02*
X112166666Y-107502438D01*
X112166666Y-107502438D02*
X112214285Y-107550057D01*
X112214285Y-107550057D02*
X112261904Y-107645295D01*
X112261904Y-107645295D02*
X112261904Y-107692914D01*
X112261904Y-107692914D02*
X112214285Y-107788152D01*
X112214285Y-107788152D02*
X112166666Y-107835771D01*
X112166666Y-107835771D02*
X112071428Y-107883390D01*
X112071428Y-107883390D02*
X111880952Y-107883390D01*
X111880952Y-107883390D02*
X111785714Y-107931009D01*
X111785714Y-107931009D02*
X111738095Y-107978628D01*
X111738095Y-107978628D02*
X111690476Y-108073866D01*
X111690476Y-108073866D02*
X111690476Y-108264342D01*
X111690476Y-108264342D02*
X111738095Y-108359580D01*
X111738095Y-108359580D02*
X111785714Y-108407200D01*
X111785714Y-108407200D02*
X111880952Y-108454819D01*
X111880952Y-108454819D02*
X112071428Y-108454819D01*
X112071428Y-108454819D02*
X112166666Y-108407200D01*
X112166666Y-108407200D02*
X112214285Y-108359580D01*
X112214285Y-108359580D02*
X112261904Y-108264342D01*
X112261904Y-108264342D02*
X112261904Y-108073866D01*
X112261904Y-108073866D02*
X112214285Y-107978628D01*
X112214285Y-107978628D02*
X112166666Y-107931009D01*
X112166666Y-107931009D02*
X112071428Y-107883390D01*
X127454819Y-116642857D02*
X126978628Y-116976190D01*
X127454819Y-117214285D02*
X126454819Y-117214285D01*
X126454819Y-117214285D02*
X126454819Y-116833333D01*
X126454819Y-116833333D02*
X126502438Y-116738095D01*
X126502438Y-116738095D02*
X126550057Y-116690476D01*
X126550057Y-116690476D02*
X126645295Y-116642857D01*
X126645295Y-116642857D02*
X126788152Y-116642857D01*
X126788152Y-116642857D02*
X126883390Y-116690476D01*
X126883390Y-116690476D02*
X126931009Y-116738095D01*
X126931009Y-116738095D02*
X126978628Y-116833333D01*
X126978628Y-116833333D02*
X126978628Y-117214285D01*
X126788152Y-115785714D02*
X127454819Y-115785714D01*
X126407200Y-116023809D02*
X127121485Y-116261904D01*
X127121485Y-116261904D02*
X127121485Y-115642857D01*
X126454819Y-115071428D02*
X126454819Y-114976190D01*
X126454819Y-114976190D02*
X126502438Y-114880952D01*
X126502438Y-114880952D02*
X126550057Y-114833333D01*
X126550057Y-114833333D02*
X126645295Y-114785714D01*
X126645295Y-114785714D02*
X126835771Y-114738095D01*
X126835771Y-114738095D02*
X127073866Y-114738095D01*
X127073866Y-114738095D02*
X127264342Y-114785714D01*
X127264342Y-114785714D02*
X127359580Y-114833333D01*
X127359580Y-114833333D02*
X127407200Y-114880952D01*
X127407200Y-114880952D02*
X127454819Y-114976190D01*
X127454819Y-114976190D02*
X127454819Y-115071428D01*
X127454819Y-115071428D02*
X127407200Y-115166666D01*
X127407200Y-115166666D02*
X127359580Y-115214285D01*
X127359580Y-115214285D02*
X127264342Y-115261904D01*
X127264342Y-115261904D02*
X127073866Y-115309523D01*
X127073866Y-115309523D02*
X126835771Y-115309523D01*
X126835771Y-115309523D02*
X126645295Y-115261904D01*
X126645295Y-115261904D02*
X126550057Y-115214285D01*
X126550057Y-115214285D02*
X126502438Y-115166666D01*
X126502438Y-115166666D02*
X126454819Y-115071428D01*
X115833333Y-106454819D02*
X115500000Y-105978628D01*
X115261905Y-106454819D02*
X115261905Y-105454819D01*
X115261905Y-105454819D02*
X115642857Y-105454819D01*
X115642857Y-105454819D02*
X115738095Y-105502438D01*
X115738095Y-105502438D02*
X115785714Y-105550057D01*
X115785714Y-105550057D02*
X115833333Y-105645295D01*
X115833333Y-105645295D02*
X115833333Y-105788152D01*
X115833333Y-105788152D02*
X115785714Y-105883390D01*
X115785714Y-105883390D02*
X115738095Y-105931009D01*
X115738095Y-105931009D02*
X115642857Y-105978628D01*
X115642857Y-105978628D02*
X115261905Y-105978628D01*
X116690476Y-105788152D02*
X116690476Y-106454819D01*
X116452381Y-105407200D02*
X116214286Y-106121485D01*
X116214286Y-106121485D02*
X116833333Y-106121485D01*
X135719642Y-126359580D02*
X135672023Y-126407200D01*
X135672023Y-126407200D02*
X135529166Y-126454819D01*
X135529166Y-126454819D02*
X135433928Y-126454819D01*
X135433928Y-126454819D02*
X135291071Y-126407200D01*
X135291071Y-126407200D02*
X135195833Y-126311961D01*
X135195833Y-126311961D02*
X135148214Y-126216723D01*
X135148214Y-126216723D02*
X135100595Y-126026247D01*
X135100595Y-126026247D02*
X135100595Y-125883390D01*
X135100595Y-125883390D02*
X135148214Y-125692914D01*
X135148214Y-125692914D02*
X135195833Y-125597676D01*
X135195833Y-125597676D02*
X135291071Y-125502438D01*
X135291071Y-125502438D02*
X135433928Y-125454819D01*
X135433928Y-125454819D02*
X135529166Y-125454819D01*
X135529166Y-125454819D02*
X135672023Y-125502438D01*
X135672023Y-125502438D02*
X135719642Y-125550057D01*
X136100595Y-125550057D02*
X136148214Y-125502438D01*
X136148214Y-125502438D02*
X136243452Y-125454819D01*
X136243452Y-125454819D02*
X136481547Y-125454819D01*
X136481547Y-125454819D02*
X136576785Y-125502438D01*
X136576785Y-125502438D02*
X136624404Y-125550057D01*
X136624404Y-125550057D02*
X136672023Y-125645295D01*
X136672023Y-125645295D02*
X136672023Y-125740533D01*
X136672023Y-125740533D02*
X136624404Y-125883390D01*
X136624404Y-125883390D02*
X136052976Y-126454819D01*
X136052976Y-126454819D02*
X136672023Y-126454819D01*
X137005357Y-125454819D02*
X137624404Y-125454819D01*
X137624404Y-125454819D02*
X137291071Y-125835771D01*
X137291071Y-125835771D02*
X137433928Y-125835771D01*
X137433928Y-125835771D02*
X137529166Y-125883390D01*
X137529166Y-125883390D02*
X137576785Y-125931009D01*
X137576785Y-125931009D02*
X137624404Y-126026247D01*
X137624404Y-126026247D02*
X137624404Y-126264342D01*
X137624404Y-126264342D02*
X137576785Y-126359580D01*
X137576785Y-126359580D02*
X137529166Y-126407200D01*
X137529166Y-126407200D02*
X137433928Y-126454819D01*
X137433928Y-126454819D02*
X137148214Y-126454819D01*
X137148214Y-126454819D02*
X137052976Y-126407200D01*
X137052976Y-126407200D02*
X137005357Y-126359580D01*
X160557142Y-120354580D02*
X160509523Y-120402200D01*
X160509523Y-120402200D02*
X160366666Y-120449819D01*
X160366666Y-120449819D02*
X160271428Y-120449819D01*
X160271428Y-120449819D02*
X160128571Y-120402200D01*
X160128571Y-120402200D02*
X160033333Y-120306961D01*
X160033333Y-120306961D02*
X159985714Y-120211723D01*
X159985714Y-120211723D02*
X159938095Y-120021247D01*
X159938095Y-120021247D02*
X159938095Y-119878390D01*
X159938095Y-119878390D02*
X159985714Y-119687914D01*
X159985714Y-119687914D02*
X160033333Y-119592676D01*
X160033333Y-119592676D02*
X160128571Y-119497438D01*
X160128571Y-119497438D02*
X160271428Y-119449819D01*
X160271428Y-119449819D02*
X160366666Y-119449819D01*
X160366666Y-119449819D02*
X160509523Y-119497438D01*
X160509523Y-119497438D02*
X160557142Y-119545057D01*
X161509523Y-120449819D02*
X160938095Y-120449819D01*
X161223809Y-120449819D02*
X161223809Y-119449819D01*
X161223809Y-119449819D02*
X161128571Y-119592676D01*
X161128571Y-119592676D02*
X161033333Y-119687914D01*
X161033333Y-119687914D02*
X160938095Y-119735533D01*
X162366666Y-119783152D02*
X162366666Y-120449819D01*
X162128571Y-119402200D02*
X161890476Y-120116485D01*
X161890476Y-120116485D02*
X162509523Y-120116485D01*
X133384819Y-119730357D02*
X132908628Y-120063690D01*
X133384819Y-120301785D02*
X132384819Y-120301785D01*
X132384819Y-120301785D02*
X132384819Y-119920833D01*
X132384819Y-119920833D02*
X132432438Y-119825595D01*
X132432438Y-119825595D02*
X132480057Y-119777976D01*
X132480057Y-119777976D02*
X132575295Y-119730357D01*
X132575295Y-119730357D02*
X132718152Y-119730357D01*
X132718152Y-119730357D02*
X132813390Y-119777976D01*
X132813390Y-119777976D02*
X132861009Y-119825595D01*
X132861009Y-119825595D02*
X132908628Y-119920833D01*
X132908628Y-119920833D02*
X132908628Y-120301785D01*
X132384819Y-119397023D02*
X132384819Y-118777976D01*
X132384819Y-118777976D02*
X132765771Y-119111309D01*
X132765771Y-119111309D02*
X132765771Y-118968452D01*
X132765771Y-118968452D02*
X132813390Y-118873214D01*
X132813390Y-118873214D02*
X132861009Y-118825595D01*
X132861009Y-118825595D02*
X132956247Y-118777976D01*
X132956247Y-118777976D02*
X133194342Y-118777976D01*
X133194342Y-118777976D02*
X133289580Y-118825595D01*
X133289580Y-118825595D02*
X133337200Y-118873214D01*
X133337200Y-118873214D02*
X133384819Y-118968452D01*
X133384819Y-118968452D02*
X133384819Y-119254166D01*
X133384819Y-119254166D02*
X133337200Y-119349404D01*
X133337200Y-119349404D02*
X133289580Y-119397023D01*
X132480057Y-118397023D02*
X132432438Y-118349404D01*
X132432438Y-118349404D02*
X132384819Y-118254166D01*
X132384819Y-118254166D02*
X132384819Y-118016071D01*
X132384819Y-118016071D02*
X132432438Y-117920833D01*
X132432438Y-117920833D02*
X132480057Y-117873214D01*
X132480057Y-117873214D02*
X132575295Y-117825595D01*
X132575295Y-117825595D02*
X132670533Y-117825595D01*
X132670533Y-117825595D02*
X132813390Y-117873214D01*
X132813390Y-117873214D02*
X133384819Y-118444642D01*
X133384819Y-118444642D02*
X133384819Y-117825595D01*
X130454819Y-116642857D02*
X129978628Y-116976190D01*
X130454819Y-117214285D02*
X129454819Y-117214285D01*
X129454819Y-117214285D02*
X129454819Y-116833333D01*
X129454819Y-116833333D02*
X129502438Y-116738095D01*
X129502438Y-116738095D02*
X129550057Y-116690476D01*
X129550057Y-116690476D02*
X129645295Y-116642857D01*
X129645295Y-116642857D02*
X129788152Y-116642857D01*
X129788152Y-116642857D02*
X129883390Y-116690476D01*
X129883390Y-116690476D02*
X129931009Y-116738095D01*
X129931009Y-116738095D02*
X129978628Y-116833333D01*
X129978628Y-116833333D02*
X129978628Y-117214285D01*
X129454819Y-116309523D02*
X129454819Y-115690476D01*
X129454819Y-115690476D02*
X129835771Y-116023809D01*
X129835771Y-116023809D02*
X129835771Y-115880952D01*
X129835771Y-115880952D02*
X129883390Y-115785714D01*
X129883390Y-115785714D02*
X129931009Y-115738095D01*
X129931009Y-115738095D02*
X130026247Y-115690476D01*
X130026247Y-115690476D02*
X130264342Y-115690476D01*
X130264342Y-115690476D02*
X130359580Y-115738095D01*
X130359580Y-115738095D02*
X130407200Y-115785714D01*
X130407200Y-115785714D02*
X130454819Y-115880952D01*
X130454819Y-115880952D02*
X130454819Y-116166666D01*
X130454819Y-116166666D02*
X130407200Y-116261904D01*
X130407200Y-116261904D02*
X130359580Y-116309523D01*
X129883390Y-115119047D02*
X129835771Y-115214285D01*
X129835771Y-115214285D02*
X129788152Y-115261904D01*
X129788152Y-115261904D02*
X129692914Y-115309523D01*
X129692914Y-115309523D02*
X129645295Y-115309523D01*
X129645295Y-115309523D02*
X129550057Y-115261904D01*
X129550057Y-115261904D02*
X129502438Y-115214285D01*
X129502438Y-115214285D02*
X129454819Y-115119047D01*
X129454819Y-115119047D02*
X129454819Y-114928571D01*
X129454819Y-114928571D02*
X129502438Y-114833333D01*
X129502438Y-114833333D02*
X129550057Y-114785714D01*
X129550057Y-114785714D02*
X129645295Y-114738095D01*
X129645295Y-114738095D02*
X129692914Y-114738095D01*
X129692914Y-114738095D02*
X129788152Y-114785714D01*
X129788152Y-114785714D02*
X129835771Y-114833333D01*
X129835771Y-114833333D02*
X129883390Y-114928571D01*
X129883390Y-114928571D02*
X129883390Y-115119047D01*
X129883390Y-115119047D02*
X129931009Y-115214285D01*
X129931009Y-115214285D02*
X129978628Y-115261904D01*
X129978628Y-115261904D02*
X130073866Y-115309523D01*
X130073866Y-115309523D02*
X130264342Y-115309523D01*
X130264342Y-115309523D02*
X130359580Y-115261904D01*
X130359580Y-115261904D02*
X130407200Y-115214285D01*
X130407200Y-115214285D02*
X130454819Y-115119047D01*
X130454819Y-115119047D02*
X130454819Y-114928571D01*
X130454819Y-114928571D02*
X130407200Y-114833333D01*
X130407200Y-114833333D02*
X130359580Y-114785714D01*
X130359580Y-114785714D02*
X130264342Y-114738095D01*
X130264342Y-114738095D02*
X130073866Y-114738095D01*
X130073866Y-114738095D02*
X129978628Y-114785714D01*
X129978628Y-114785714D02*
X129931009Y-114833333D01*
X129931009Y-114833333D02*
X129883390Y-114928571D01*
X132738095Y-126454819D02*
X132738095Y-127264342D01*
X132738095Y-127264342D02*
X132785714Y-127359580D01*
X132785714Y-127359580D02*
X132833333Y-127407200D01*
X132833333Y-127407200D02*
X132928571Y-127454819D01*
X132928571Y-127454819D02*
X133119047Y-127454819D01*
X133119047Y-127454819D02*
X133214285Y-127407200D01*
X133214285Y-127407200D02*
X133261904Y-127359580D01*
X133261904Y-127359580D02*
X133309523Y-127264342D01*
X133309523Y-127264342D02*
X133309523Y-126454819D01*
X133928571Y-126883390D02*
X133833333Y-126835771D01*
X133833333Y-126835771D02*
X133785714Y-126788152D01*
X133785714Y-126788152D02*
X133738095Y-126692914D01*
X133738095Y-126692914D02*
X133738095Y-126645295D01*
X133738095Y-126645295D02*
X133785714Y-126550057D01*
X133785714Y-126550057D02*
X133833333Y-126502438D01*
X133833333Y-126502438D02*
X133928571Y-126454819D01*
X133928571Y-126454819D02*
X134119047Y-126454819D01*
X134119047Y-126454819D02*
X134214285Y-126502438D01*
X134214285Y-126502438D02*
X134261904Y-126550057D01*
X134261904Y-126550057D02*
X134309523Y-126645295D01*
X134309523Y-126645295D02*
X134309523Y-126692914D01*
X134309523Y-126692914D02*
X134261904Y-126788152D01*
X134261904Y-126788152D02*
X134214285Y-126835771D01*
X134214285Y-126835771D02*
X134119047Y-126883390D01*
X134119047Y-126883390D02*
X133928571Y-126883390D01*
X133928571Y-126883390D02*
X133833333Y-126931009D01*
X133833333Y-126931009D02*
X133785714Y-126978628D01*
X133785714Y-126978628D02*
X133738095Y-127073866D01*
X133738095Y-127073866D02*
X133738095Y-127264342D01*
X133738095Y-127264342D02*
X133785714Y-127359580D01*
X133785714Y-127359580D02*
X133833333Y-127407200D01*
X133833333Y-127407200D02*
X133928571Y-127454819D01*
X133928571Y-127454819D02*
X134119047Y-127454819D01*
X134119047Y-127454819D02*
X134214285Y-127407200D01*
X134214285Y-127407200D02*
X134261904Y-127359580D01*
X134261904Y-127359580D02*
X134309523Y-127264342D01*
X134309523Y-127264342D02*
X134309523Y-127073866D01*
X134309523Y-127073866D02*
X134261904Y-126978628D01*
X134261904Y-126978628D02*
X134214285Y-126931009D01*
X134214285Y-126931009D02*
X134119047Y-126883390D01*
X114333333Y-101954819D02*
X114000000Y-101478628D01*
X113761905Y-101954819D02*
X113761905Y-100954819D01*
X113761905Y-100954819D02*
X114142857Y-100954819D01*
X114142857Y-100954819D02*
X114238095Y-101002438D01*
X114238095Y-101002438D02*
X114285714Y-101050057D01*
X114285714Y-101050057D02*
X114333333Y-101145295D01*
X114333333Y-101145295D02*
X114333333Y-101288152D01*
X114333333Y-101288152D02*
X114285714Y-101383390D01*
X114285714Y-101383390D02*
X114238095Y-101431009D01*
X114238095Y-101431009D02*
X114142857Y-101478628D01*
X114142857Y-101478628D02*
X113761905Y-101478628D01*
X114666667Y-100954819D02*
X115285714Y-100954819D01*
X115285714Y-100954819D02*
X114952381Y-101335771D01*
X114952381Y-101335771D02*
X115095238Y-101335771D01*
X115095238Y-101335771D02*
X115190476Y-101383390D01*
X115190476Y-101383390D02*
X115238095Y-101431009D01*
X115238095Y-101431009D02*
X115285714Y-101526247D01*
X115285714Y-101526247D02*
X115285714Y-101764342D01*
X115285714Y-101764342D02*
X115238095Y-101859580D01*
X115238095Y-101859580D02*
X115190476Y-101907200D01*
X115190476Y-101907200D02*
X115095238Y-101954819D01*
X115095238Y-101954819D02*
X114809524Y-101954819D01*
X114809524Y-101954819D02*
X114714286Y-101907200D01*
X114714286Y-101907200D02*
X114666667Y-101859580D01*
X131289580Y-133280357D02*
X131337200Y-133327976D01*
X131337200Y-133327976D02*
X131384819Y-133470833D01*
X131384819Y-133470833D02*
X131384819Y-133566071D01*
X131384819Y-133566071D02*
X131337200Y-133708928D01*
X131337200Y-133708928D02*
X131241961Y-133804166D01*
X131241961Y-133804166D02*
X131146723Y-133851785D01*
X131146723Y-133851785D02*
X130956247Y-133899404D01*
X130956247Y-133899404D02*
X130813390Y-133899404D01*
X130813390Y-133899404D02*
X130622914Y-133851785D01*
X130622914Y-133851785D02*
X130527676Y-133804166D01*
X130527676Y-133804166D02*
X130432438Y-133708928D01*
X130432438Y-133708928D02*
X130384819Y-133566071D01*
X130384819Y-133566071D02*
X130384819Y-133470833D01*
X130384819Y-133470833D02*
X130432438Y-133327976D01*
X130432438Y-133327976D02*
X130480057Y-133280357D01*
X130480057Y-132899404D02*
X130432438Y-132851785D01*
X130432438Y-132851785D02*
X130384819Y-132756547D01*
X130384819Y-132756547D02*
X130384819Y-132518452D01*
X130384819Y-132518452D02*
X130432438Y-132423214D01*
X130432438Y-132423214D02*
X130480057Y-132375595D01*
X130480057Y-132375595D02*
X130575295Y-132327976D01*
X130575295Y-132327976D02*
X130670533Y-132327976D01*
X130670533Y-132327976D02*
X130813390Y-132375595D01*
X130813390Y-132375595D02*
X131384819Y-132947023D01*
X131384819Y-132947023D02*
X131384819Y-132327976D01*
X130384819Y-131470833D02*
X130384819Y-131661309D01*
X130384819Y-131661309D02*
X130432438Y-131756547D01*
X130432438Y-131756547D02*
X130480057Y-131804166D01*
X130480057Y-131804166D02*
X130622914Y-131899404D01*
X130622914Y-131899404D02*
X130813390Y-131947023D01*
X130813390Y-131947023D02*
X131194342Y-131947023D01*
X131194342Y-131947023D02*
X131289580Y-131899404D01*
X131289580Y-131899404D02*
X131337200Y-131851785D01*
X131337200Y-131851785D02*
X131384819Y-131756547D01*
X131384819Y-131756547D02*
X131384819Y-131566071D01*
X131384819Y-131566071D02*
X131337200Y-131470833D01*
X131337200Y-131470833D02*
X131289580Y-131423214D01*
X131289580Y-131423214D02*
X131194342Y-131375595D01*
X131194342Y-131375595D02*
X130956247Y-131375595D01*
X130956247Y-131375595D02*
X130861009Y-131423214D01*
X130861009Y-131423214D02*
X130813390Y-131470833D01*
X130813390Y-131470833D02*
X130765771Y-131566071D01*
X130765771Y-131566071D02*
X130765771Y-131756547D01*
X130765771Y-131756547D02*
X130813390Y-131851785D01*
X130813390Y-131851785D02*
X130861009Y-131899404D01*
X130861009Y-131899404D02*
X130956247Y-131947023D01*
X123070833Y-96689580D02*
X123023214Y-96737200D01*
X123023214Y-96737200D02*
X122880357Y-96784819D01*
X122880357Y-96784819D02*
X122785119Y-96784819D01*
X122785119Y-96784819D02*
X122642262Y-96737200D01*
X122642262Y-96737200D02*
X122547024Y-96641961D01*
X122547024Y-96641961D02*
X122499405Y-96546723D01*
X122499405Y-96546723D02*
X122451786Y-96356247D01*
X122451786Y-96356247D02*
X122451786Y-96213390D01*
X122451786Y-96213390D02*
X122499405Y-96022914D01*
X122499405Y-96022914D02*
X122547024Y-95927676D01*
X122547024Y-95927676D02*
X122642262Y-95832438D01*
X122642262Y-95832438D02*
X122785119Y-95784819D01*
X122785119Y-95784819D02*
X122880357Y-95784819D01*
X122880357Y-95784819D02*
X123023214Y-95832438D01*
X123023214Y-95832438D02*
X123070833Y-95880057D01*
X123404167Y-95784819D02*
X124023214Y-95784819D01*
X124023214Y-95784819D02*
X123689881Y-96165771D01*
X123689881Y-96165771D02*
X123832738Y-96165771D01*
X123832738Y-96165771D02*
X123927976Y-96213390D01*
X123927976Y-96213390D02*
X123975595Y-96261009D01*
X123975595Y-96261009D02*
X124023214Y-96356247D01*
X124023214Y-96356247D02*
X124023214Y-96594342D01*
X124023214Y-96594342D02*
X123975595Y-96689580D01*
X123975595Y-96689580D02*
X123927976Y-96737200D01*
X123927976Y-96737200D02*
X123832738Y-96784819D01*
X123832738Y-96784819D02*
X123547024Y-96784819D01*
X123547024Y-96784819D02*
X123451786Y-96737200D01*
X123451786Y-96737200D02*
X123404167Y-96689580D01*
X114857142Y-90454819D02*
X114523809Y-89978628D01*
X114285714Y-90454819D02*
X114285714Y-89454819D01*
X114285714Y-89454819D02*
X114666666Y-89454819D01*
X114666666Y-89454819D02*
X114761904Y-89502438D01*
X114761904Y-89502438D02*
X114809523Y-89550057D01*
X114809523Y-89550057D02*
X114857142Y-89645295D01*
X114857142Y-89645295D02*
X114857142Y-89788152D01*
X114857142Y-89788152D02*
X114809523Y-89883390D01*
X114809523Y-89883390D02*
X114761904Y-89931009D01*
X114761904Y-89931009D02*
X114666666Y-89978628D01*
X114666666Y-89978628D02*
X114285714Y-89978628D01*
X115238095Y-89550057D02*
X115285714Y-89502438D01*
X115285714Y-89502438D02*
X115380952Y-89454819D01*
X115380952Y-89454819D02*
X115619047Y-89454819D01*
X115619047Y-89454819D02*
X115714285Y-89502438D01*
X115714285Y-89502438D02*
X115761904Y-89550057D01*
X115761904Y-89550057D02*
X115809523Y-89645295D01*
X115809523Y-89645295D02*
X115809523Y-89740533D01*
X115809523Y-89740533D02*
X115761904Y-89883390D01*
X115761904Y-89883390D02*
X115190476Y-90454819D01*
X115190476Y-90454819D02*
X115809523Y-90454819D01*
X116666666Y-89454819D02*
X116476190Y-89454819D01*
X116476190Y-89454819D02*
X116380952Y-89502438D01*
X116380952Y-89502438D02*
X116333333Y-89550057D01*
X116333333Y-89550057D02*
X116238095Y-89692914D01*
X116238095Y-89692914D02*
X116190476Y-89883390D01*
X116190476Y-89883390D02*
X116190476Y-90264342D01*
X116190476Y-90264342D02*
X116238095Y-90359580D01*
X116238095Y-90359580D02*
X116285714Y-90407200D01*
X116285714Y-90407200D02*
X116380952Y-90454819D01*
X116380952Y-90454819D02*
X116571428Y-90454819D01*
X116571428Y-90454819D02*
X116666666Y-90407200D01*
X116666666Y-90407200D02*
X116714285Y-90359580D01*
X116714285Y-90359580D02*
X116761904Y-90264342D01*
X116761904Y-90264342D02*
X116761904Y-90026247D01*
X116761904Y-90026247D02*
X116714285Y-89931009D01*
X116714285Y-89931009D02*
X116666666Y-89883390D01*
X116666666Y-89883390D02*
X116571428Y-89835771D01*
X116571428Y-89835771D02*
X116380952Y-89835771D01*
X116380952Y-89835771D02*
X116285714Y-89883390D01*
X116285714Y-89883390D02*
X116238095Y-89931009D01*
X116238095Y-89931009D02*
X116190476Y-90026247D01*
X159333333Y-116954819D02*
X158857143Y-116954819D01*
X158857143Y-116954819D02*
X158857143Y-115954819D01*
X159619048Y-116050057D02*
X159666667Y-116002438D01*
X159666667Y-116002438D02*
X159761905Y-115954819D01*
X159761905Y-115954819D02*
X160000000Y-115954819D01*
X160000000Y-115954819D02*
X160095238Y-116002438D01*
X160095238Y-116002438D02*
X160142857Y-116050057D01*
X160142857Y-116050057D02*
X160190476Y-116145295D01*
X160190476Y-116145295D02*
X160190476Y-116240533D01*
X160190476Y-116240533D02*
X160142857Y-116383390D01*
X160142857Y-116383390D02*
X159571429Y-116954819D01*
X159571429Y-116954819D02*
X160190476Y-116954819D01*
X114857142Y-86454819D02*
X114523809Y-85978628D01*
X114285714Y-86454819D02*
X114285714Y-85454819D01*
X114285714Y-85454819D02*
X114666666Y-85454819D01*
X114666666Y-85454819D02*
X114761904Y-85502438D01*
X114761904Y-85502438D02*
X114809523Y-85550057D01*
X114809523Y-85550057D02*
X114857142Y-85645295D01*
X114857142Y-85645295D02*
X114857142Y-85788152D01*
X114857142Y-85788152D02*
X114809523Y-85883390D01*
X114809523Y-85883390D02*
X114761904Y-85931009D01*
X114761904Y-85931009D02*
X114666666Y-85978628D01*
X114666666Y-85978628D02*
X114285714Y-85978628D01*
X115238095Y-85550057D02*
X115285714Y-85502438D01*
X115285714Y-85502438D02*
X115380952Y-85454819D01*
X115380952Y-85454819D02*
X115619047Y-85454819D01*
X115619047Y-85454819D02*
X115714285Y-85502438D01*
X115714285Y-85502438D02*
X115761904Y-85550057D01*
X115761904Y-85550057D02*
X115809523Y-85645295D01*
X115809523Y-85645295D02*
X115809523Y-85740533D01*
X115809523Y-85740533D02*
X115761904Y-85883390D01*
X115761904Y-85883390D02*
X115190476Y-86454819D01*
X115190476Y-86454819D02*
X115809523Y-86454819D01*
X116714285Y-85454819D02*
X116238095Y-85454819D01*
X116238095Y-85454819D02*
X116190476Y-85931009D01*
X116190476Y-85931009D02*
X116238095Y-85883390D01*
X116238095Y-85883390D02*
X116333333Y-85835771D01*
X116333333Y-85835771D02*
X116571428Y-85835771D01*
X116571428Y-85835771D02*
X116666666Y-85883390D01*
X116666666Y-85883390D02*
X116714285Y-85931009D01*
X116714285Y-85931009D02*
X116761904Y-86026247D01*
X116761904Y-86026247D02*
X116761904Y-86264342D01*
X116761904Y-86264342D02*
X116714285Y-86359580D01*
X116714285Y-86359580D02*
X116666666Y-86407200D01*
X116666666Y-86407200D02*
X116571428Y-86454819D01*
X116571428Y-86454819D02*
X116333333Y-86454819D01*
X116333333Y-86454819D02*
X116238095Y-86407200D01*
X116238095Y-86407200D02*
X116190476Y-86359580D01*
X146929580Y-89804166D02*
X146977200Y-89851785D01*
X146977200Y-89851785D02*
X147024819Y-89994642D01*
X147024819Y-89994642D02*
X147024819Y-90089880D01*
X147024819Y-90089880D02*
X146977200Y-90232737D01*
X146977200Y-90232737D02*
X146881961Y-90327975D01*
X146881961Y-90327975D02*
X146786723Y-90375594D01*
X146786723Y-90375594D02*
X146596247Y-90423213D01*
X146596247Y-90423213D02*
X146453390Y-90423213D01*
X146453390Y-90423213D02*
X146262914Y-90375594D01*
X146262914Y-90375594D02*
X146167676Y-90327975D01*
X146167676Y-90327975D02*
X146072438Y-90232737D01*
X146072438Y-90232737D02*
X146024819Y-90089880D01*
X146024819Y-90089880D02*
X146024819Y-89994642D01*
X146024819Y-89994642D02*
X146072438Y-89851785D01*
X146072438Y-89851785D02*
X146120057Y-89804166D01*
X147024819Y-89327975D02*
X147024819Y-89137499D01*
X147024819Y-89137499D02*
X146977200Y-89042261D01*
X146977200Y-89042261D02*
X146929580Y-88994642D01*
X146929580Y-88994642D02*
X146786723Y-88899404D01*
X146786723Y-88899404D02*
X146596247Y-88851785D01*
X146596247Y-88851785D02*
X146215295Y-88851785D01*
X146215295Y-88851785D02*
X146120057Y-88899404D01*
X146120057Y-88899404D02*
X146072438Y-88947023D01*
X146072438Y-88947023D02*
X146024819Y-89042261D01*
X146024819Y-89042261D02*
X146024819Y-89232737D01*
X146024819Y-89232737D02*
X146072438Y-89327975D01*
X146072438Y-89327975D02*
X146120057Y-89375594D01*
X146120057Y-89375594D02*
X146215295Y-89423213D01*
X146215295Y-89423213D02*
X146453390Y-89423213D01*
X146453390Y-89423213D02*
X146548628Y-89375594D01*
X146548628Y-89375594D02*
X146596247Y-89327975D01*
X146596247Y-89327975D02*
X146643866Y-89232737D01*
X146643866Y-89232737D02*
X146643866Y-89042261D01*
X146643866Y-89042261D02*
X146596247Y-88947023D01*
X146596247Y-88947023D02*
X146548628Y-88899404D01*
X146548628Y-88899404D02*
X146453390Y-88851785D01*
X130323402Y-78875775D02*
X130371022Y-78923394D01*
X130371022Y-78923394D02*
X130418641Y-79066251D01*
X130418641Y-79066251D02*
X130418641Y-79161489D01*
X130418641Y-79161489D02*
X130371022Y-79304346D01*
X130371022Y-79304346D02*
X130275783Y-79399584D01*
X130275783Y-79399584D02*
X130180545Y-79447203D01*
X130180545Y-79447203D02*
X129990069Y-79494822D01*
X129990069Y-79494822D02*
X129847212Y-79494822D01*
X129847212Y-79494822D02*
X129656736Y-79447203D01*
X129656736Y-79447203D02*
X129561498Y-79399584D01*
X129561498Y-79399584D02*
X129466260Y-79304346D01*
X129466260Y-79304346D02*
X129418641Y-79161489D01*
X129418641Y-79161489D02*
X129418641Y-79066251D01*
X129418641Y-79066251D02*
X129466260Y-78923394D01*
X129466260Y-78923394D02*
X129513879Y-78875775D01*
X129418641Y-78018632D02*
X129418641Y-78209108D01*
X129418641Y-78209108D02*
X129466260Y-78304346D01*
X129466260Y-78304346D02*
X129513879Y-78351965D01*
X129513879Y-78351965D02*
X129656736Y-78447203D01*
X129656736Y-78447203D02*
X129847212Y-78494822D01*
X129847212Y-78494822D02*
X130228164Y-78494822D01*
X130228164Y-78494822D02*
X130323402Y-78447203D01*
X130323402Y-78447203D02*
X130371022Y-78399584D01*
X130371022Y-78399584D02*
X130418641Y-78304346D01*
X130418641Y-78304346D02*
X130418641Y-78113870D01*
X130418641Y-78113870D02*
X130371022Y-78018632D01*
X130371022Y-78018632D02*
X130323402Y-77971013D01*
X130323402Y-77971013D02*
X130228164Y-77923394D01*
X130228164Y-77923394D02*
X129990069Y-77923394D01*
X129990069Y-77923394D02*
X129894831Y-77971013D01*
X129894831Y-77971013D02*
X129847212Y-78018632D01*
X129847212Y-78018632D02*
X129799593Y-78113870D01*
X129799593Y-78113870D02*
X129799593Y-78304346D01*
X129799593Y-78304346D02*
X129847212Y-78399584D01*
X129847212Y-78399584D02*
X129894831Y-78447203D01*
X129894831Y-78447203D02*
X129990069Y-78494822D01*
X115857142Y-117454819D02*
X115523809Y-116978628D01*
X115285714Y-117454819D02*
X115285714Y-116454819D01*
X115285714Y-116454819D02*
X115666666Y-116454819D01*
X115666666Y-116454819D02*
X115761904Y-116502438D01*
X115761904Y-116502438D02*
X115809523Y-116550057D01*
X115809523Y-116550057D02*
X115857142Y-116645295D01*
X115857142Y-116645295D02*
X115857142Y-116788152D01*
X115857142Y-116788152D02*
X115809523Y-116883390D01*
X115809523Y-116883390D02*
X115761904Y-116931009D01*
X115761904Y-116931009D02*
X115666666Y-116978628D01*
X115666666Y-116978628D02*
X115285714Y-116978628D01*
X116809523Y-117454819D02*
X116238095Y-117454819D01*
X116523809Y-117454819D02*
X116523809Y-116454819D01*
X116523809Y-116454819D02*
X116428571Y-116597676D01*
X116428571Y-116597676D02*
X116333333Y-116692914D01*
X116333333Y-116692914D02*
X116238095Y-116740533D01*
X117761904Y-117454819D02*
X117190476Y-117454819D01*
X117476190Y-117454819D02*
X117476190Y-116454819D01*
X117476190Y-116454819D02*
X117380952Y-116597676D01*
X117380952Y-116597676D02*
X117285714Y-116692914D01*
X117285714Y-116692914D02*
X117190476Y-116740533D01*
X114857142Y-96454819D02*
X114523809Y-95978628D01*
X114285714Y-96454819D02*
X114285714Y-95454819D01*
X114285714Y-95454819D02*
X114666666Y-95454819D01*
X114666666Y-95454819D02*
X114761904Y-95502438D01*
X114761904Y-95502438D02*
X114809523Y-95550057D01*
X114809523Y-95550057D02*
X114857142Y-95645295D01*
X114857142Y-95645295D02*
X114857142Y-95788152D01*
X114857142Y-95788152D02*
X114809523Y-95883390D01*
X114809523Y-95883390D02*
X114761904Y-95931009D01*
X114761904Y-95931009D02*
X114666666Y-95978628D01*
X114666666Y-95978628D02*
X114285714Y-95978628D01*
X115238095Y-95550057D02*
X115285714Y-95502438D01*
X115285714Y-95502438D02*
X115380952Y-95454819D01*
X115380952Y-95454819D02*
X115619047Y-95454819D01*
X115619047Y-95454819D02*
X115714285Y-95502438D01*
X115714285Y-95502438D02*
X115761904Y-95550057D01*
X115761904Y-95550057D02*
X115809523Y-95645295D01*
X115809523Y-95645295D02*
X115809523Y-95740533D01*
X115809523Y-95740533D02*
X115761904Y-95883390D01*
X115761904Y-95883390D02*
X115190476Y-96454819D01*
X115190476Y-96454819D02*
X115809523Y-96454819D01*
X116142857Y-95454819D02*
X116761904Y-95454819D01*
X116761904Y-95454819D02*
X116428571Y-95835771D01*
X116428571Y-95835771D02*
X116571428Y-95835771D01*
X116571428Y-95835771D02*
X116666666Y-95883390D01*
X116666666Y-95883390D02*
X116714285Y-95931009D01*
X116714285Y-95931009D02*
X116761904Y-96026247D01*
X116761904Y-96026247D02*
X116761904Y-96264342D01*
X116761904Y-96264342D02*
X116714285Y-96359580D01*
X116714285Y-96359580D02*
X116666666Y-96407200D01*
X116666666Y-96407200D02*
X116571428Y-96454819D01*
X116571428Y-96454819D02*
X116285714Y-96454819D01*
X116285714Y-96454819D02*
X116190476Y-96407200D01*
X116190476Y-96407200D02*
X116142857Y-96359580D01*
X110857142Y-113859580D02*
X110809523Y-113907200D01*
X110809523Y-113907200D02*
X110666666Y-113954819D01*
X110666666Y-113954819D02*
X110571428Y-113954819D01*
X110571428Y-113954819D02*
X110428571Y-113907200D01*
X110428571Y-113907200D02*
X110333333Y-113811961D01*
X110333333Y-113811961D02*
X110285714Y-113716723D01*
X110285714Y-113716723D02*
X110238095Y-113526247D01*
X110238095Y-113526247D02*
X110238095Y-113383390D01*
X110238095Y-113383390D02*
X110285714Y-113192914D01*
X110285714Y-113192914D02*
X110333333Y-113097676D01*
X110333333Y-113097676D02*
X110428571Y-113002438D01*
X110428571Y-113002438D02*
X110571428Y-112954819D01*
X110571428Y-112954819D02*
X110666666Y-112954819D01*
X110666666Y-112954819D02*
X110809523Y-113002438D01*
X110809523Y-113002438D02*
X110857142Y-113050057D01*
X111238095Y-113050057D02*
X111285714Y-113002438D01*
X111285714Y-113002438D02*
X111380952Y-112954819D01*
X111380952Y-112954819D02*
X111619047Y-112954819D01*
X111619047Y-112954819D02*
X111714285Y-113002438D01*
X111714285Y-113002438D02*
X111761904Y-113050057D01*
X111761904Y-113050057D02*
X111809523Y-113145295D01*
X111809523Y-113145295D02*
X111809523Y-113240533D01*
X111809523Y-113240533D02*
X111761904Y-113383390D01*
X111761904Y-113383390D02*
X111190476Y-113954819D01*
X111190476Y-113954819D02*
X111809523Y-113954819D01*
X112142857Y-112954819D02*
X112809523Y-112954819D01*
X112809523Y-112954819D02*
X112380952Y-113954819D01*
X134857142Y-116859580D02*
X134809523Y-116907200D01*
X134809523Y-116907200D02*
X134666666Y-116954819D01*
X134666666Y-116954819D02*
X134571428Y-116954819D01*
X134571428Y-116954819D02*
X134428571Y-116907200D01*
X134428571Y-116907200D02*
X134333333Y-116811961D01*
X134333333Y-116811961D02*
X134285714Y-116716723D01*
X134285714Y-116716723D02*
X134238095Y-116526247D01*
X134238095Y-116526247D02*
X134238095Y-116383390D01*
X134238095Y-116383390D02*
X134285714Y-116192914D01*
X134285714Y-116192914D02*
X134333333Y-116097676D01*
X134333333Y-116097676D02*
X134428571Y-116002438D01*
X134428571Y-116002438D02*
X134571428Y-115954819D01*
X134571428Y-115954819D02*
X134666666Y-115954819D01*
X134666666Y-115954819D02*
X134809523Y-116002438D01*
X134809523Y-116002438D02*
X134857142Y-116050057D01*
X135238095Y-116050057D02*
X135285714Y-116002438D01*
X135285714Y-116002438D02*
X135380952Y-115954819D01*
X135380952Y-115954819D02*
X135619047Y-115954819D01*
X135619047Y-115954819D02*
X135714285Y-116002438D01*
X135714285Y-116002438D02*
X135761904Y-116050057D01*
X135761904Y-116050057D02*
X135809523Y-116145295D01*
X135809523Y-116145295D02*
X135809523Y-116240533D01*
X135809523Y-116240533D02*
X135761904Y-116383390D01*
X135761904Y-116383390D02*
X135190476Y-116954819D01*
X135190476Y-116954819D02*
X135809523Y-116954819D01*
X136428571Y-115954819D02*
X136523809Y-115954819D01*
X136523809Y-115954819D02*
X136619047Y-116002438D01*
X136619047Y-116002438D02*
X136666666Y-116050057D01*
X136666666Y-116050057D02*
X136714285Y-116145295D01*
X136714285Y-116145295D02*
X136761904Y-116335771D01*
X136761904Y-116335771D02*
X136761904Y-116573866D01*
X136761904Y-116573866D02*
X136714285Y-116764342D01*
X136714285Y-116764342D02*
X136666666Y-116859580D01*
X136666666Y-116859580D02*
X136619047Y-116907200D01*
X136619047Y-116907200D02*
X136523809Y-116954819D01*
X136523809Y-116954819D02*
X136428571Y-116954819D01*
X136428571Y-116954819D02*
X136333333Y-116907200D01*
X136333333Y-116907200D02*
X136285714Y-116859580D01*
X136285714Y-116859580D02*
X136238095Y-116764342D01*
X136238095Y-116764342D02*
X136190476Y-116573866D01*
X136190476Y-116573866D02*
X136190476Y-116335771D01*
X136190476Y-116335771D02*
X136238095Y-116145295D01*
X136238095Y-116145295D02*
X136285714Y-116050057D01*
X136285714Y-116050057D02*
X136333333Y-116002438D01*
X136333333Y-116002438D02*
X136428571Y-115954819D01*
X131357142Y-82454819D02*
X131023809Y-81978628D01*
X130785714Y-82454819D02*
X130785714Y-81454819D01*
X130785714Y-81454819D02*
X131166666Y-81454819D01*
X131166666Y-81454819D02*
X131261904Y-81502438D01*
X131261904Y-81502438D02*
X131309523Y-81550057D01*
X131309523Y-81550057D02*
X131357142Y-81645295D01*
X131357142Y-81645295D02*
X131357142Y-81788152D01*
X131357142Y-81788152D02*
X131309523Y-81883390D01*
X131309523Y-81883390D02*
X131261904Y-81931009D01*
X131261904Y-81931009D02*
X131166666Y-81978628D01*
X131166666Y-81978628D02*
X130785714Y-81978628D01*
X131690476Y-81454819D02*
X132309523Y-81454819D01*
X132309523Y-81454819D02*
X131976190Y-81835771D01*
X131976190Y-81835771D02*
X132119047Y-81835771D01*
X132119047Y-81835771D02*
X132214285Y-81883390D01*
X132214285Y-81883390D02*
X132261904Y-81931009D01*
X132261904Y-81931009D02*
X132309523Y-82026247D01*
X132309523Y-82026247D02*
X132309523Y-82264342D01*
X132309523Y-82264342D02*
X132261904Y-82359580D01*
X132261904Y-82359580D02*
X132214285Y-82407200D01*
X132214285Y-82407200D02*
X132119047Y-82454819D01*
X132119047Y-82454819D02*
X131833333Y-82454819D01*
X131833333Y-82454819D02*
X131738095Y-82407200D01*
X131738095Y-82407200D02*
X131690476Y-82359580D01*
X133214285Y-81454819D02*
X132738095Y-81454819D01*
X132738095Y-81454819D02*
X132690476Y-81931009D01*
X132690476Y-81931009D02*
X132738095Y-81883390D01*
X132738095Y-81883390D02*
X132833333Y-81835771D01*
X132833333Y-81835771D02*
X133071428Y-81835771D01*
X133071428Y-81835771D02*
X133166666Y-81883390D01*
X133166666Y-81883390D02*
X133214285Y-81931009D01*
X133214285Y-81931009D02*
X133261904Y-82026247D01*
X133261904Y-82026247D02*
X133261904Y-82264342D01*
X133261904Y-82264342D02*
X133214285Y-82359580D01*
X133214285Y-82359580D02*
X133166666Y-82407200D01*
X133166666Y-82407200D02*
X133071428Y-82454819D01*
X133071428Y-82454819D02*
X132833333Y-82454819D01*
X132833333Y-82454819D02*
X132738095Y-82407200D01*
X132738095Y-82407200D02*
X132690476Y-82359580D01*
X122208333Y-89189580D02*
X122160714Y-89237200D01*
X122160714Y-89237200D02*
X122017857Y-89284819D01*
X122017857Y-89284819D02*
X121922619Y-89284819D01*
X121922619Y-89284819D02*
X121779762Y-89237200D01*
X121779762Y-89237200D02*
X121684524Y-89141961D01*
X121684524Y-89141961D02*
X121636905Y-89046723D01*
X121636905Y-89046723D02*
X121589286Y-88856247D01*
X121589286Y-88856247D02*
X121589286Y-88713390D01*
X121589286Y-88713390D02*
X121636905Y-88522914D01*
X121636905Y-88522914D02*
X121684524Y-88427676D01*
X121684524Y-88427676D02*
X121779762Y-88332438D01*
X121779762Y-88332438D02*
X121922619Y-88284819D01*
X121922619Y-88284819D02*
X122017857Y-88284819D01*
X122017857Y-88284819D02*
X122160714Y-88332438D01*
X122160714Y-88332438D02*
X122208333Y-88380057D01*
X123160714Y-89284819D02*
X122589286Y-89284819D01*
X122875000Y-89284819D02*
X122875000Y-88284819D01*
X122875000Y-88284819D02*
X122779762Y-88427676D01*
X122779762Y-88427676D02*
X122684524Y-88522914D01*
X122684524Y-88522914D02*
X122589286Y-88570533D01*
X119454819Y-100166666D02*
X118978628Y-100499999D01*
X119454819Y-100738094D02*
X118454819Y-100738094D01*
X118454819Y-100738094D02*
X118454819Y-100357142D01*
X118454819Y-100357142D02*
X118502438Y-100261904D01*
X118502438Y-100261904D02*
X118550057Y-100214285D01*
X118550057Y-100214285D02*
X118645295Y-100166666D01*
X118645295Y-100166666D02*
X118788152Y-100166666D01*
X118788152Y-100166666D02*
X118883390Y-100214285D01*
X118883390Y-100214285D02*
X118931009Y-100261904D01*
X118931009Y-100261904D02*
X118978628Y-100357142D01*
X118978628Y-100357142D02*
X118978628Y-100738094D01*
X118454819Y-99309523D02*
X118454819Y-99499999D01*
X118454819Y-99499999D02*
X118502438Y-99595237D01*
X118502438Y-99595237D02*
X118550057Y-99642856D01*
X118550057Y-99642856D02*
X118692914Y-99738094D01*
X118692914Y-99738094D02*
X118883390Y-99785713D01*
X118883390Y-99785713D02*
X119264342Y-99785713D01*
X119264342Y-99785713D02*
X119359580Y-99738094D01*
X119359580Y-99738094D02*
X119407200Y-99690475D01*
X119407200Y-99690475D02*
X119454819Y-99595237D01*
X119454819Y-99595237D02*
X119454819Y-99404761D01*
X119454819Y-99404761D02*
X119407200Y-99309523D01*
X119407200Y-99309523D02*
X119359580Y-99261904D01*
X119359580Y-99261904D02*
X119264342Y-99214285D01*
X119264342Y-99214285D02*
X119026247Y-99214285D01*
X119026247Y-99214285D02*
X118931009Y-99261904D01*
X118931009Y-99261904D02*
X118883390Y-99309523D01*
X118883390Y-99309523D02*
X118835771Y-99404761D01*
X118835771Y-99404761D02*
X118835771Y-99595237D01*
X118835771Y-99595237D02*
X118883390Y-99690475D01*
X118883390Y-99690475D02*
X118931009Y-99738094D01*
X118931009Y-99738094D02*
X119026247Y-99785713D01*
X153238095Y-117679819D02*
X153238095Y-118489342D01*
X153238095Y-118489342D02*
X153285714Y-118584580D01*
X153285714Y-118584580D02*
X153333333Y-118632200D01*
X153333333Y-118632200D02*
X153428571Y-118679819D01*
X153428571Y-118679819D02*
X153619047Y-118679819D01*
X153619047Y-118679819D02*
X153714285Y-118632200D01*
X153714285Y-118632200D02*
X153761904Y-118584580D01*
X153761904Y-118584580D02*
X153809523Y-118489342D01*
X153809523Y-118489342D02*
X153809523Y-117679819D01*
X154714285Y-118013152D02*
X154714285Y-118679819D01*
X154476190Y-117632200D02*
X154238095Y-118346485D01*
X154238095Y-118346485D02*
X154857142Y-118346485D01*
X115029819Y-111399404D02*
X115839342Y-111399404D01*
X115839342Y-111399404D02*
X115934580Y-111351785D01*
X115934580Y-111351785D02*
X115982200Y-111304166D01*
X115982200Y-111304166D02*
X116029819Y-111208928D01*
X116029819Y-111208928D02*
X116029819Y-111018452D01*
X116029819Y-111018452D02*
X115982200Y-110923214D01*
X115982200Y-110923214D02*
X115934580Y-110875595D01*
X115934580Y-110875595D02*
X115839342Y-110827976D01*
X115839342Y-110827976D02*
X115029819Y-110827976D01*
X116029819Y-110304166D02*
X116029819Y-110113690D01*
X116029819Y-110113690D02*
X115982200Y-110018452D01*
X115982200Y-110018452D02*
X115934580Y-109970833D01*
X115934580Y-109970833D02*
X115791723Y-109875595D01*
X115791723Y-109875595D02*
X115601247Y-109827976D01*
X115601247Y-109827976D02*
X115220295Y-109827976D01*
X115220295Y-109827976D02*
X115125057Y-109875595D01*
X115125057Y-109875595D02*
X115077438Y-109923214D01*
X115077438Y-109923214D02*
X115029819Y-110018452D01*
X115029819Y-110018452D02*
X115029819Y-110208928D01*
X115029819Y-110208928D02*
X115077438Y-110304166D01*
X115077438Y-110304166D02*
X115125057Y-110351785D01*
X115125057Y-110351785D02*
X115220295Y-110399404D01*
X115220295Y-110399404D02*
X115458390Y-110399404D01*
X115458390Y-110399404D02*
X115553628Y-110351785D01*
X115553628Y-110351785D02*
X115601247Y-110304166D01*
X115601247Y-110304166D02*
X115648866Y-110208928D01*
X115648866Y-110208928D02*
X115648866Y-110018452D01*
X115648866Y-110018452D02*
X115601247Y-109923214D01*
X115601247Y-109923214D02*
X115553628Y-109875595D01*
X115553628Y-109875595D02*
X115458390Y-109827976D01*
X142833333Y-84859580D02*
X142785714Y-84907200D01*
X142785714Y-84907200D02*
X142642857Y-84954819D01*
X142642857Y-84954819D02*
X142547619Y-84954819D01*
X142547619Y-84954819D02*
X142404762Y-84907200D01*
X142404762Y-84907200D02*
X142309524Y-84811961D01*
X142309524Y-84811961D02*
X142261905Y-84716723D01*
X142261905Y-84716723D02*
X142214286Y-84526247D01*
X142214286Y-84526247D02*
X142214286Y-84383390D01*
X142214286Y-84383390D02*
X142261905Y-84192914D01*
X142261905Y-84192914D02*
X142309524Y-84097676D01*
X142309524Y-84097676D02*
X142404762Y-84002438D01*
X142404762Y-84002438D02*
X142547619Y-83954819D01*
X142547619Y-83954819D02*
X142642857Y-83954819D01*
X142642857Y-83954819D02*
X142785714Y-84002438D01*
X142785714Y-84002438D02*
X142833333Y-84050057D01*
X143738095Y-83954819D02*
X143261905Y-83954819D01*
X143261905Y-83954819D02*
X143214286Y-84431009D01*
X143214286Y-84431009D02*
X143261905Y-84383390D01*
X143261905Y-84383390D02*
X143357143Y-84335771D01*
X143357143Y-84335771D02*
X143595238Y-84335771D01*
X143595238Y-84335771D02*
X143690476Y-84383390D01*
X143690476Y-84383390D02*
X143738095Y-84431009D01*
X143738095Y-84431009D02*
X143785714Y-84526247D01*
X143785714Y-84526247D02*
X143785714Y-84764342D01*
X143785714Y-84764342D02*
X143738095Y-84859580D01*
X143738095Y-84859580D02*
X143690476Y-84907200D01*
X143690476Y-84907200D02*
X143595238Y-84954819D01*
X143595238Y-84954819D02*
X143357143Y-84954819D01*
X143357143Y-84954819D02*
X143261905Y-84907200D01*
X143261905Y-84907200D02*
X143214286Y-84859580D01*
X114857142Y-88454819D02*
X114523809Y-87978628D01*
X114285714Y-88454819D02*
X114285714Y-87454819D01*
X114285714Y-87454819D02*
X114666666Y-87454819D01*
X114666666Y-87454819D02*
X114761904Y-87502438D01*
X114761904Y-87502438D02*
X114809523Y-87550057D01*
X114809523Y-87550057D02*
X114857142Y-87645295D01*
X114857142Y-87645295D02*
X114857142Y-87788152D01*
X114857142Y-87788152D02*
X114809523Y-87883390D01*
X114809523Y-87883390D02*
X114761904Y-87931009D01*
X114761904Y-87931009D02*
X114666666Y-87978628D01*
X114666666Y-87978628D02*
X114285714Y-87978628D01*
X115809523Y-88454819D02*
X115238095Y-88454819D01*
X115523809Y-88454819D02*
X115523809Y-87454819D01*
X115523809Y-87454819D02*
X115428571Y-87597676D01*
X115428571Y-87597676D02*
X115333333Y-87692914D01*
X115333333Y-87692914D02*
X115238095Y-87740533D01*
X116142857Y-87454819D02*
X116761904Y-87454819D01*
X116761904Y-87454819D02*
X116428571Y-87835771D01*
X116428571Y-87835771D02*
X116571428Y-87835771D01*
X116571428Y-87835771D02*
X116666666Y-87883390D01*
X116666666Y-87883390D02*
X116714285Y-87931009D01*
X116714285Y-87931009D02*
X116761904Y-88026247D01*
X116761904Y-88026247D02*
X116761904Y-88264342D01*
X116761904Y-88264342D02*
X116714285Y-88359580D01*
X116714285Y-88359580D02*
X116666666Y-88407200D01*
X116666666Y-88407200D02*
X116571428Y-88454819D01*
X116571428Y-88454819D02*
X116285714Y-88454819D01*
X116285714Y-88454819D02*
X116190476Y-88407200D01*
X116190476Y-88407200D02*
X116142857Y-88359580D01*
X104857142Y-88454819D02*
X104523809Y-87978628D01*
X104285714Y-88454819D02*
X104285714Y-87454819D01*
X104285714Y-87454819D02*
X104666666Y-87454819D01*
X104666666Y-87454819D02*
X104761904Y-87502438D01*
X104761904Y-87502438D02*
X104809523Y-87550057D01*
X104809523Y-87550057D02*
X104857142Y-87645295D01*
X104857142Y-87645295D02*
X104857142Y-87788152D01*
X104857142Y-87788152D02*
X104809523Y-87883390D01*
X104809523Y-87883390D02*
X104761904Y-87931009D01*
X104761904Y-87931009D02*
X104666666Y-87978628D01*
X104666666Y-87978628D02*
X104285714Y-87978628D01*
X105809523Y-88454819D02*
X105238095Y-88454819D01*
X105523809Y-88454819D02*
X105523809Y-87454819D01*
X105523809Y-87454819D02*
X105428571Y-87597676D01*
X105428571Y-87597676D02*
X105333333Y-87692914D01*
X105333333Y-87692914D02*
X105238095Y-87740533D01*
X106666666Y-87788152D02*
X106666666Y-88454819D01*
X106428571Y-87407200D02*
X106190476Y-88121485D01*
X106190476Y-88121485D02*
X106809523Y-88121485D01*
X104857142Y-96454819D02*
X104523809Y-95978628D01*
X104285714Y-96454819D02*
X104285714Y-95454819D01*
X104285714Y-95454819D02*
X104666666Y-95454819D01*
X104666666Y-95454819D02*
X104761904Y-95502438D01*
X104761904Y-95502438D02*
X104809523Y-95550057D01*
X104809523Y-95550057D02*
X104857142Y-95645295D01*
X104857142Y-95645295D02*
X104857142Y-95788152D01*
X104857142Y-95788152D02*
X104809523Y-95883390D01*
X104809523Y-95883390D02*
X104761904Y-95931009D01*
X104761904Y-95931009D02*
X104666666Y-95978628D01*
X104666666Y-95978628D02*
X104285714Y-95978628D01*
X105809523Y-96454819D02*
X105238095Y-96454819D01*
X105523809Y-96454819D02*
X105523809Y-95454819D01*
X105523809Y-95454819D02*
X105428571Y-95597676D01*
X105428571Y-95597676D02*
X105333333Y-95692914D01*
X105333333Y-95692914D02*
X105238095Y-95740533D01*
X106666666Y-95454819D02*
X106476190Y-95454819D01*
X106476190Y-95454819D02*
X106380952Y-95502438D01*
X106380952Y-95502438D02*
X106333333Y-95550057D01*
X106333333Y-95550057D02*
X106238095Y-95692914D01*
X106238095Y-95692914D02*
X106190476Y-95883390D01*
X106190476Y-95883390D02*
X106190476Y-96264342D01*
X106190476Y-96264342D02*
X106238095Y-96359580D01*
X106238095Y-96359580D02*
X106285714Y-96407200D01*
X106285714Y-96407200D02*
X106380952Y-96454819D01*
X106380952Y-96454819D02*
X106571428Y-96454819D01*
X106571428Y-96454819D02*
X106666666Y-96407200D01*
X106666666Y-96407200D02*
X106714285Y-96359580D01*
X106714285Y-96359580D02*
X106761904Y-96264342D01*
X106761904Y-96264342D02*
X106761904Y-96026247D01*
X106761904Y-96026247D02*
X106714285Y-95931009D01*
X106714285Y-95931009D02*
X106666666Y-95883390D01*
X106666666Y-95883390D02*
X106571428Y-95835771D01*
X106571428Y-95835771D02*
X106380952Y-95835771D01*
X106380952Y-95835771D02*
X106285714Y-95883390D01*
X106285714Y-95883390D02*
X106238095Y-95931009D01*
X106238095Y-95931009D02*
X106190476Y-96026247D01*
X148978628Y-82476190D02*
X149454819Y-82476190D01*
X148454819Y-82809523D02*
X148978628Y-82476190D01*
X148978628Y-82476190D02*
X148454819Y-82142857D01*
X149454819Y-81285714D02*
X149454819Y-81857142D01*
X149454819Y-81571428D02*
X148454819Y-81571428D01*
X148454819Y-81571428D02*
X148597676Y-81666666D01*
X148597676Y-81666666D02*
X148692914Y-81761904D01*
X148692914Y-81761904D02*
X148740533Y-81857142D01*
X119384819Y-103754166D02*
X118908628Y-104087499D01*
X119384819Y-104325594D02*
X118384819Y-104325594D01*
X118384819Y-104325594D02*
X118384819Y-103944642D01*
X118384819Y-103944642D02*
X118432438Y-103849404D01*
X118432438Y-103849404D02*
X118480057Y-103801785D01*
X118480057Y-103801785D02*
X118575295Y-103754166D01*
X118575295Y-103754166D02*
X118718152Y-103754166D01*
X118718152Y-103754166D02*
X118813390Y-103801785D01*
X118813390Y-103801785D02*
X118861009Y-103849404D01*
X118861009Y-103849404D02*
X118908628Y-103944642D01*
X118908628Y-103944642D02*
X118908628Y-104325594D01*
X118384819Y-102849404D02*
X118384819Y-103325594D01*
X118384819Y-103325594D02*
X118861009Y-103373213D01*
X118861009Y-103373213D02*
X118813390Y-103325594D01*
X118813390Y-103325594D02*
X118765771Y-103230356D01*
X118765771Y-103230356D02*
X118765771Y-102992261D01*
X118765771Y-102992261D02*
X118813390Y-102897023D01*
X118813390Y-102897023D02*
X118861009Y-102849404D01*
X118861009Y-102849404D02*
X118956247Y-102801785D01*
X118956247Y-102801785D02*
X119194342Y-102801785D01*
X119194342Y-102801785D02*
X119289580Y-102849404D01*
X119289580Y-102849404D02*
X119337200Y-102897023D01*
X119337200Y-102897023D02*
X119384819Y-102992261D01*
X119384819Y-102992261D02*
X119384819Y-103230356D01*
X119384819Y-103230356D02*
X119337200Y-103325594D01*
X119337200Y-103325594D02*
X119289580Y-103373213D01*
X114857142Y-98454819D02*
X114523809Y-97978628D01*
X114285714Y-98454819D02*
X114285714Y-97454819D01*
X114285714Y-97454819D02*
X114666666Y-97454819D01*
X114666666Y-97454819D02*
X114761904Y-97502438D01*
X114761904Y-97502438D02*
X114809523Y-97550057D01*
X114809523Y-97550057D02*
X114857142Y-97645295D01*
X114857142Y-97645295D02*
X114857142Y-97788152D01*
X114857142Y-97788152D02*
X114809523Y-97883390D01*
X114809523Y-97883390D02*
X114761904Y-97931009D01*
X114761904Y-97931009D02*
X114666666Y-97978628D01*
X114666666Y-97978628D02*
X114285714Y-97978628D01*
X115238095Y-97550057D02*
X115285714Y-97502438D01*
X115285714Y-97502438D02*
X115380952Y-97454819D01*
X115380952Y-97454819D02*
X115619047Y-97454819D01*
X115619047Y-97454819D02*
X115714285Y-97502438D01*
X115714285Y-97502438D02*
X115761904Y-97550057D01*
X115761904Y-97550057D02*
X115809523Y-97645295D01*
X115809523Y-97645295D02*
X115809523Y-97740533D01*
X115809523Y-97740533D02*
X115761904Y-97883390D01*
X115761904Y-97883390D02*
X115190476Y-98454819D01*
X115190476Y-98454819D02*
X115809523Y-98454819D01*
X116380952Y-97883390D02*
X116285714Y-97835771D01*
X116285714Y-97835771D02*
X116238095Y-97788152D01*
X116238095Y-97788152D02*
X116190476Y-97692914D01*
X116190476Y-97692914D02*
X116190476Y-97645295D01*
X116190476Y-97645295D02*
X116238095Y-97550057D01*
X116238095Y-97550057D02*
X116285714Y-97502438D01*
X116285714Y-97502438D02*
X116380952Y-97454819D01*
X116380952Y-97454819D02*
X116571428Y-97454819D01*
X116571428Y-97454819D02*
X116666666Y-97502438D01*
X116666666Y-97502438D02*
X116714285Y-97550057D01*
X116714285Y-97550057D02*
X116761904Y-97645295D01*
X116761904Y-97645295D02*
X116761904Y-97692914D01*
X116761904Y-97692914D02*
X116714285Y-97788152D01*
X116714285Y-97788152D02*
X116666666Y-97835771D01*
X116666666Y-97835771D02*
X116571428Y-97883390D01*
X116571428Y-97883390D02*
X116380952Y-97883390D01*
X116380952Y-97883390D02*
X116285714Y-97931009D01*
X116285714Y-97931009D02*
X116238095Y-97978628D01*
X116238095Y-97978628D02*
X116190476Y-98073866D01*
X116190476Y-98073866D02*
X116190476Y-98264342D01*
X116190476Y-98264342D02*
X116238095Y-98359580D01*
X116238095Y-98359580D02*
X116285714Y-98407200D01*
X116285714Y-98407200D02*
X116380952Y-98454819D01*
X116380952Y-98454819D02*
X116571428Y-98454819D01*
X116571428Y-98454819D02*
X116666666Y-98407200D01*
X116666666Y-98407200D02*
X116714285Y-98359580D01*
X116714285Y-98359580D02*
X116761904Y-98264342D01*
X116761904Y-98264342D02*
X116761904Y-98073866D01*
X116761904Y-98073866D02*
X116714285Y-97978628D01*
X116714285Y-97978628D02*
X116666666Y-97931009D01*
X116666666Y-97931009D02*
X116571428Y-97883390D01*
X149083095Y-108664819D02*
X149083095Y-109474342D01*
X149083095Y-109474342D02*
X149130714Y-109569580D01*
X149130714Y-109569580D02*
X149178333Y-109617200D01*
X149178333Y-109617200D02*
X149273571Y-109664819D01*
X149273571Y-109664819D02*
X149464047Y-109664819D01*
X149464047Y-109664819D02*
X149559285Y-109617200D01*
X149559285Y-109617200D02*
X149606904Y-109569580D01*
X149606904Y-109569580D02*
X149654523Y-109474342D01*
X149654523Y-109474342D02*
X149654523Y-108664819D01*
X150083095Y-108760057D02*
X150130714Y-108712438D01*
X150130714Y-108712438D02*
X150225952Y-108664819D01*
X150225952Y-108664819D02*
X150464047Y-108664819D01*
X150464047Y-108664819D02*
X150559285Y-108712438D01*
X150559285Y-108712438D02*
X150606904Y-108760057D01*
X150606904Y-108760057D02*
X150654523Y-108855295D01*
X150654523Y-108855295D02*
X150654523Y-108950533D01*
X150654523Y-108950533D02*
X150606904Y-109093390D01*
X150606904Y-109093390D02*
X150035476Y-109664819D01*
X150035476Y-109664819D02*
X150654523Y-109664819D01*
X126859580Y-133280357D02*
X126907200Y-133327976D01*
X126907200Y-133327976D02*
X126954819Y-133470833D01*
X126954819Y-133470833D02*
X126954819Y-133566071D01*
X126954819Y-133566071D02*
X126907200Y-133708928D01*
X126907200Y-133708928D02*
X126811961Y-133804166D01*
X126811961Y-133804166D02*
X126716723Y-133851785D01*
X126716723Y-133851785D02*
X126526247Y-133899404D01*
X126526247Y-133899404D02*
X126383390Y-133899404D01*
X126383390Y-133899404D02*
X126192914Y-133851785D01*
X126192914Y-133851785D02*
X126097676Y-133804166D01*
X126097676Y-133804166D02*
X126002438Y-133708928D01*
X126002438Y-133708928D02*
X125954819Y-133566071D01*
X125954819Y-133566071D02*
X125954819Y-133470833D01*
X125954819Y-133470833D02*
X126002438Y-133327976D01*
X126002438Y-133327976D02*
X126050057Y-133280357D01*
X126050057Y-132899404D02*
X126002438Y-132851785D01*
X126002438Y-132851785D02*
X125954819Y-132756547D01*
X125954819Y-132756547D02*
X125954819Y-132518452D01*
X125954819Y-132518452D02*
X126002438Y-132423214D01*
X126002438Y-132423214D02*
X126050057Y-132375595D01*
X126050057Y-132375595D02*
X126145295Y-132327976D01*
X126145295Y-132327976D02*
X126240533Y-132327976D01*
X126240533Y-132327976D02*
X126383390Y-132375595D01*
X126383390Y-132375595D02*
X126954819Y-132947023D01*
X126954819Y-132947023D02*
X126954819Y-132327976D01*
X125954819Y-131423214D02*
X125954819Y-131899404D01*
X125954819Y-131899404D02*
X126431009Y-131947023D01*
X126431009Y-131947023D02*
X126383390Y-131899404D01*
X126383390Y-131899404D02*
X126335771Y-131804166D01*
X126335771Y-131804166D02*
X126335771Y-131566071D01*
X126335771Y-131566071D02*
X126383390Y-131470833D01*
X126383390Y-131470833D02*
X126431009Y-131423214D01*
X126431009Y-131423214D02*
X126526247Y-131375595D01*
X126526247Y-131375595D02*
X126764342Y-131375595D01*
X126764342Y-131375595D02*
X126859580Y-131423214D01*
X126859580Y-131423214D02*
X126907200Y-131470833D01*
X126907200Y-131470833D02*
X126954819Y-131566071D01*
X126954819Y-131566071D02*
X126954819Y-131804166D01*
X126954819Y-131804166D02*
X126907200Y-131899404D01*
X126907200Y-131899404D02*
X126859580Y-131947023D01*
X138479819Y-90986904D02*
X139289342Y-90986904D01*
X139289342Y-90986904D02*
X139384580Y-90939285D01*
X139384580Y-90939285D02*
X139432200Y-90891666D01*
X139432200Y-90891666D02*
X139479819Y-90796428D01*
X139479819Y-90796428D02*
X139479819Y-90605952D01*
X139479819Y-90605952D02*
X139432200Y-90510714D01*
X139432200Y-90510714D02*
X139384580Y-90463095D01*
X139384580Y-90463095D02*
X139289342Y-90415476D01*
X139289342Y-90415476D02*
X138479819Y-90415476D01*
X139479819Y-89415476D02*
X139479819Y-89986904D01*
X139479819Y-89701190D02*
X138479819Y-89701190D01*
X138479819Y-89701190D02*
X138622676Y-89796428D01*
X138622676Y-89796428D02*
X138717914Y-89891666D01*
X138717914Y-89891666D02*
X138765533Y-89986904D01*
X137664580Y-99204166D02*
X137712200Y-99251785D01*
X137712200Y-99251785D02*
X137759819Y-99394642D01*
X137759819Y-99394642D02*
X137759819Y-99489880D01*
X137759819Y-99489880D02*
X137712200Y-99632737D01*
X137712200Y-99632737D02*
X137616961Y-99727975D01*
X137616961Y-99727975D02*
X137521723Y-99775594D01*
X137521723Y-99775594D02*
X137331247Y-99823213D01*
X137331247Y-99823213D02*
X137188390Y-99823213D01*
X137188390Y-99823213D02*
X136997914Y-99775594D01*
X136997914Y-99775594D02*
X136902676Y-99727975D01*
X136902676Y-99727975D02*
X136807438Y-99632737D01*
X136807438Y-99632737D02*
X136759819Y-99489880D01*
X136759819Y-99489880D02*
X136759819Y-99394642D01*
X136759819Y-99394642D02*
X136807438Y-99251785D01*
X136807438Y-99251785D02*
X136855057Y-99204166D01*
X136855057Y-98823213D02*
X136807438Y-98775594D01*
X136807438Y-98775594D02*
X136759819Y-98680356D01*
X136759819Y-98680356D02*
X136759819Y-98442261D01*
X136759819Y-98442261D02*
X136807438Y-98347023D01*
X136807438Y-98347023D02*
X136855057Y-98299404D01*
X136855057Y-98299404D02*
X136950295Y-98251785D01*
X136950295Y-98251785D02*
X137045533Y-98251785D01*
X137045533Y-98251785D02*
X137188390Y-98299404D01*
X137188390Y-98299404D02*
X137759819Y-98870832D01*
X137759819Y-98870832D02*
X137759819Y-98251785D01*
X104857142Y-92454819D02*
X104523809Y-91978628D01*
X104285714Y-92454819D02*
X104285714Y-91454819D01*
X104285714Y-91454819D02*
X104666666Y-91454819D01*
X104666666Y-91454819D02*
X104761904Y-91502438D01*
X104761904Y-91502438D02*
X104809523Y-91550057D01*
X104809523Y-91550057D02*
X104857142Y-91645295D01*
X104857142Y-91645295D02*
X104857142Y-91788152D01*
X104857142Y-91788152D02*
X104809523Y-91883390D01*
X104809523Y-91883390D02*
X104761904Y-91931009D01*
X104761904Y-91931009D02*
X104666666Y-91978628D01*
X104666666Y-91978628D02*
X104285714Y-91978628D01*
X105809523Y-92454819D02*
X105238095Y-92454819D01*
X105523809Y-92454819D02*
X105523809Y-91454819D01*
X105523809Y-91454819D02*
X105428571Y-91597676D01*
X105428571Y-91597676D02*
X105333333Y-91692914D01*
X105333333Y-91692914D02*
X105238095Y-91740533D01*
X106714285Y-91454819D02*
X106238095Y-91454819D01*
X106238095Y-91454819D02*
X106190476Y-91931009D01*
X106190476Y-91931009D02*
X106238095Y-91883390D01*
X106238095Y-91883390D02*
X106333333Y-91835771D01*
X106333333Y-91835771D02*
X106571428Y-91835771D01*
X106571428Y-91835771D02*
X106666666Y-91883390D01*
X106666666Y-91883390D02*
X106714285Y-91931009D01*
X106714285Y-91931009D02*
X106761904Y-92026247D01*
X106761904Y-92026247D02*
X106761904Y-92264342D01*
X106761904Y-92264342D02*
X106714285Y-92359580D01*
X106714285Y-92359580D02*
X106666666Y-92407200D01*
X106666666Y-92407200D02*
X106571428Y-92454819D01*
X106571428Y-92454819D02*
X106333333Y-92454819D01*
X106333333Y-92454819D02*
X106238095Y-92407200D01*
X106238095Y-92407200D02*
X106190476Y-92359580D01*
X151492080Y-131705357D02*
X151539700Y-131752976D01*
X151539700Y-131752976D02*
X151587319Y-131895833D01*
X151587319Y-131895833D02*
X151587319Y-131991071D01*
X151587319Y-131991071D02*
X151539700Y-132133928D01*
X151539700Y-132133928D02*
X151444461Y-132229166D01*
X151444461Y-132229166D02*
X151349223Y-132276785D01*
X151349223Y-132276785D02*
X151158747Y-132324404D01*
X151158747Y-132324404D02*
X151015890Y-132324404D01*
X151015890Y-132324404D02*
X150825414Y-132276785D01*
X150825414Y-132276785D02*
X150730176Y-132229166D01*
X150730176Y-132229166D02*
X150634938Y-132133928D01*
X150634938Y-132133928D02*
X150587319Y-131991071D01*
X150587319Y-131991071D02*
X150587319Y-131895833D01*
X150587319Y-131895833D02*
X150634938Y-131752976D01*
X150634938Y-131752976D02*
X150682557Y-131705357D01*
X151587319Y-130752976D02*
X151587319Y-131324404D01*
X151587319Y-131038690D02*
X150587319Y-131038690D01*
X150587319Y-131038690D02*
X150730176Y-131133928D01*
X150730176Y-131133928D02*
X150825414Y-131229166D01*
X150825414Y-131229166D02*
X150873033Y-131324404D01*
X150587319Y-130419642D02*
X150587319Y-129800595D01*
X150587319Y-129800595D02*
X150968271Y-130133928D01*
X150968271Y-130133928D02*
X150968271Y-129991071D01*
X150968271Y-129991071D02*
X151015890Y-129895833D01*
X151015890Y-129895833D02*
X151063509Y-129848214D01*
X151063509Y-129848214D02*
X151158747Y-129800595D01*
X151158747Y-129800595D02*
X151396842Y-129800595D01*
X151396842Y-129800595D02*
X151492080Y-129848214D01*
X151492080Y-129848214D02*
X151539700Y-129895833D01*
X151539700Y-129895833D02*
X151587319Y-129991071D01*
X151587319Y-129991071D02*
X151587319Y-130276785D01*
X151587319Y-130276785D02*
X151539700Y-130372023D01*
X151539700Y-130372023D02*
X151492080Y-130419642D01*
X135857142Y-130789580D02*
X135809523Y-130837200D01*
X135809523Y-130837200D02*
X135666666Y-130884819D01*
X135666666Y-130884819D02*
X135571428Y-130884819D01*
X135571428Y-130884819D02*
X135428571Y-130837200D01*
X135428571Y-130837200D02*
X135333333Y-130741961D01*
X135333333Y-130741961D02*
X135285714Y-130646723D01*
X135285714Y-130646723D02*
X135238095Y-130456247D01*
X135238095Y-130456247D02*
X135238095Y-130313390D01*
X135238095Y-130313390D02*
X135285714Y-130122914D01*
X135285714Y-130122914D02*
X135333333Y-130027676D01*
X135333333Y-130027676D02*
X135428571Y-129932438D01*
X135428571Y-129932438D02*
X135571428Y-129884819D01*
X135571428Y-129884819D02*
X135666666Y-129884819D01*
X135666666Y-129884819D02*
X135809523Y-129932438D01*
X135809523Y-129932438D02*
X135857142Y-129980057D01*
X136238095Y-129980057D02*
X136285714Y-129932438D01*
X136285714Y-129932438D02*
X136380952Y-129884819D01*
X136380952Y-129884819D02*
X136619047Y-129884819D01*
X136619047Y-129884819D02*
X136714285Y-129932438D01*
X136714285Y-129932438D02*
X136761904Y-129980057D01*
X136761904Y-129980057D02*
X136809523Y-130075295D01*
X136809523Y-130075295D02*
X136809523Y-130170533D01*
X136809523Y-130170533D02*
X136761904Y-130313390D01*
X136761904Y-130313390D02*
X136190476Y-130884819D01*
X136190476Y-130884819D02*
X136809523Y-130884819D01*
X137666666Y-130218152D02*
X137666666Y-130884819D01*
X137428571Y-129837200D02*
X137190476Y-130551485D01*
X137190476Y-130551485D02*
X137809523Y-130551485D01*
X127304580Y-81429166D02*
X127352200Y-81476785D01*
X127352200Y-81476785D02*
X127399819Y-81619642D01*
X127399819Y-81619642D02*
X127399819Y-81714880D01*
X127399819Y-81714880D02*
X127352200Y-81857737D01*
X127352200Y-81857737D02*
X127256961Y-81952975D01*
X127256961Y-81952975D02*
X127161723Y-82000594D01*
X127161723Y-82000594D02*
X126971247Y-82048213D01*
X126971247Y-82048213D02*
X126828390Y-82048213D01*
X126828390Y-82048213D02*
X126637914Y-82000594D01*
X126637914Y-82000594D02*
X126542676Y-81952975D01*
X126542676Y-81952975D02*
X126447438Y-81857737D01*
X126447438Y-81857737D02*
X126399819Y-81714880D01*
X126399819Y-81714880D02*
X126399819Y-81619642D01*
X126399819Y-81619642D02*
X126447438Y-81476785D01*
X126447438Y-81476785D02*
X126495057Y-81429166D01*
X126399819Y-81095832D02*
X126399819Y-80429166D01*
X126399819Y-80429166D02*
X127399819Y-80857737D01*
X144954819Y-126111904D02*
X145764342Y-126111904D01*
X145764342Y-126111904D02*
X145859580Y-126064285D01*
X145859580Y-126064285D02*
X145907200Y-126016666D01*
X145907200Y-126016666D02*
X145954819Y-125921428D01*
X145954819Y-125921428D02*
X145954819Y-125730952D01*
X145954819Y-125730952D02*
X145907200Y-125635714D01*
X145907200Y-125635714D02*
X145859580Y-125588095D01*
X145859580Y-125588095D02*
X145764342Y-125540476D01*
X145764342Y-125540476D02*
X144954819Y-125540476D01*
X144954819Y-125159523D02*
X144954819Y-124492857D01*
X144954819Y-124492857D02*
X145954819Y-124921428D01*
X165407200Y-91833332D02*
X165454819Y-91690475D01*
X165454819Y-91690475D02*
X165454819Y-91452380D01*
X165454819Y-91452380D02*
X165407200Y-91357142D01*
X165407200Y-91357142D02*
X165359580Y-91309523D01*
X165359580Y-91309523D02*
X165264342Y-91261904D01*
X165264342Y-91261904D02*
X165169104Y-91261904D01*
X165169104Y-91261904D02*
X165073866Y-91309523D01*
X165073866Y-91309523D02*
X165026247Y-91357142D01*
X165026247Y-91357142D02*
X164978628Y-91452380D01*
X164978628Y-91452380D02*
X164931009Y-91642856D01*
X164931009Y-91642856D02*
X164883390Y-91738094D01*
X164883390Y-91738094D02*
X164835771Y-91785713D01*
X164835771Y-91785713D02*
X164740533Y-91833332D01*
X164740533Y-91833332D02*
X164645295Y-91833332D01*
X164645295Y-91833332D02*
X164550057Y-91785713D01*
X164550057Y-91785713D02*
X164502438Y-91738094D01*
X164502438Y-91738094D02*
X164454819Y-91642856D01*
X164454819Y-91642856D02*
X164454819Y-91404761D01*
X164454819Y-91404761D02*
X164502438Y-91261904D01*
X164454819Y-90928570D02*
X165454819Y-90690475D01*
X165454819Y-90690475D02*
X164740533Y-90499999D01*
X164740533Y-90499999D02*
X165454819Y-90309523D01*
X165454819Y-90309523D02*
X164454819Y-90071428D01*
X165454819Y-89166666D02*
X165454819Y-89738094D01*
X165454819Y-89452380D02*
X164454819Y-89452380D01*
X164454819Y-89452380D02*
X164597676Y-89547618D01*
X164597676Y-89547618D02*
X164692914Y-89642856D01*
X164692914Y-89642856D02*
X164740533Y-89738094D01*
X114857142Y-94454819D02*
X114523809Y-93978628D01*
X114285714Y-94454819D02*
X114285714Y-93454819D01*
X114285714Y-93454819D02*
X114666666Y-93454819D01*
X114666666Y-93454819D02*
X114761904Y-93502438D01*
X114761904Y-93502438D02*
X114809523Y-93550057D01*
X114809523Y-93550057D02*
X114857142Y-93645295D01*
X114857142Y-93645295D02*
X114857142Y-93788152D01*
X114857142Y-93788152D02*
X114809523Y-93883390D01*
X114809523Y-93883390D02*
X114761904Y-93931009D01*
X114761904Y-93931009D02*
X114666666Y-93978628D01*
X114666666Y-93978628D02*
X114285714Y-93978628D01*
X115238095Y-93550057D02*
X115285714Y-93502438D01*
X115285714Y-93502438D02*
X115380952Y-93454819D01*
X115380952Y-93454819D02*
X115619047Y-93454819D01*
X115619047Y-93454819D02*
X115714285Y-93502438D01*
X115714285Y-93502438D02*
X115761904Y-93550057D01*
X115761904Y-93550057D02*
X115809523Y-93645295D01*
X115809523Y-93645295D02*
X115809523Y-93740533D01*
X115809523Y-93740533D02*
X115761904Y-93883390D01*
X115761904Y-93883390D02*
X115190476Y-94454819D01*
X115190476Y-94454819D02*
X115809523Y-94454819D01*
X116142857Y-93454819D02*
X116809523Y-93454819D01*
X116809523Y-93454819D02*
X116380952Y-94454819D01*
X137375595Y-108729819D02*
X137375595Y-109539342D01*
X137375595Y-109539342D02*
X137423214Y-109634580D01*
X137423214Y-109634580D02*
X137470833Y-109682200D01*
X137470833Y-109682200D02*
X137566071Y-109729819D01*
X137566071Y-109729819D02*
X137756547Y-109729819D01*
X137756547Y-109729819D02*
X137851785Y-109682200D01*
X137851785Y-109682200D02*
X137899404Y-109634580D01*
X137899404Y-109634580D02*
X137947023Y-109539342D01*
X137947023Y-109539342D02*
X137947023Y-108729819D01*
X138899404Y-108729819D02*
X138423214Y-108729819D01*
X138423214Y-108729819D02*
X138375595Y-109206009D01*
X138375595Y-109206009D02*
X138423214Y-109158390D01*
X138423214Y-109158390D02*
X138518452Y-109110771D01*
X138518452Y-109110771D02*
X138756547Y-109110771D01*
X138756547Y-109110771D02*
X138851785Y-109158390D01*
X138851785Y-109158390D02*
X138899404Y-109206009D01*
X138899404Y-109206009D02*
X138947023Y-109301247D01*
X138947023Y-109301247D02*
X138947023Y-109539342D01*
X138947023Y-109539342D02*
X138899404Y-109634580D01*
X138899404Y-109634580D02*
X138851785Y-109682200D01*
X138851785Y-109682200D02*
X138756547Y-109729819D01*
X138756547Y-109729819D02*
X138518452Y-109729819D01*
X138518452Y-109729819D02*
X138423214Y-109682200D01*
X138423214Y-109682200D02*
X138375595Y-109634580D01*
X104857142Y-94454819D02*
X104523809Y-93978628D01*
X104285714Y-94454819D02*
X104285714Y-93454819D01*
X104285714Y-93454819D02*
X104666666Y-93454819D01*
X104666666Y-93454819D02*
X104761904Y-93502438D01*
X104761904Y-93502438D02*
X104809523Y-93550057D01*
X104809523Y-93550057D02*
X104857142Y-93645295D01*
X104857142Y-93645295D02*
X104857142Y-93788152D01*
X104857142Y-93788152D02*
X104809523Y-93883390D01*
X104809523Y-93883390D02*
X104761904Y-93931009D01*
X104761904Y-93931009D02*
X104666666Y-93978628D01*
X104666666Y-93978628D02*
X104285714Y-93978628D01*
X105238095Y-93550057D02*
X105285714Y-93502438D01*
X105285714Y-93502438D02*
X105380952Y-93454819D01*
X105380952Y-93454819D02*
X105619047Y-93454819D01*
X105619047Y-93454819D02*
X105714285Y-93502438D01*
X105714285Y-93502438D02*
X105761904Y-93550057D01*
X105761904Y-93550057D02*
X105809523Y-93645295D01*
X105809523Y-93645295D02*
X105809523Y-93740533D01*
X105809523Y-93740533D02*
X105761904Y-93883390D01*
X105761904Y-93883390D02*
X105190476Y-94454819D01*
X105190476Y-94454819D02*
X105809523Y-94454819D01*
X106428571Y-93454819D02*
X106523809Y-93454819D01*
X106523809Y-93454819D02*
X106619047Y-93502438D01*
X106619047Y-93502438D02*
X106666666Y-93550057D01*
X106666666Y-93550057D02*
X106714285Y-93645295D01*
X106714285Y-93645295D02*
X106761904Y-93835771D01*
X106761904Y-93835771D02*
X106761904Y-94073866D01*
X106761904Y-94073866D02*
X106714285Y-94264342D01*
X106714285Y-94264342D02*
X106666666Y-94359580D01*
X106666666Y-94359580D02*
X106619047Y-94407200D01*
X106619047Y-94407200D02*
X106523809Y-94454819D01*
X106523809Y-94454819D02*
X106428571Y-94454819D01*
X106428571Y-94454819D02*
X106333333Y-94407200D01*
X106333333Y-94407200D02*
X106285714Y-94359580D01*
X106285714Y-94359580D02*
X106238095Y-94264342D01*
X106238095Y-94264342D02*
X106190476Y-94073866D01*
X106190476Y-94073866D02*
X106190476Y-93835771D01*
X106190476Y-93835771D02*
X106238095Y-93645295D01*
X106238095Y-93645295D02*
X106285714Y-93550057D01*
X106285714Y-93550057D02*
X106333333Y-93502438D01*
X106333333Y-93502438D02*
X106428571Y-93454819D01*
X161333333Y-84859580D02*
X161285714Y-84907200D01*
X161285714Y-84907200D02*
X161142857Y-84954819D01*
X161142857Y-84954819D02*
X161047619Y-84954819D01*
X161047619Y-84954819D02*
X160904762Y-84907200D01*
X160904762Y-84907200D02*
X160809524Y-84811961D01*
X160809524Y-84811961D02*
X160761905Y-84716723D01*
X160761905Y-84716723D02*
X160714286Y-84526247D01*
X160714286Y-84526247D02*
X160714286Y-84383390D01*
X160714286Y-84383390D02*
X160761905Y-84192914D01*
X160761905Y-84192914D02*
X160809524Y-84097676D01*
X160809524Y-84097676D02*
X160904762Y-84002438D01*
X160904762Y-84002438D02*
X161047619Y-83954819D01*
X161047619Y-83954819D02*
X161142857Y-83954819D01*
X161142857Y-83954819D02*
X161285714Y-84002438D01*
X161285714Y-84002438D02*
X161333333Y-84050057D01*
X161904762Y-84383390D02*
X161809524Y-84335771D01*
X161809524Y-84335771D02*
X161761905Y-84288152D01*
X161761905Y-84288152D02*
X161714286Y-84192914D01*
X161714286Y-84192914D02*
X161714286Y-84145295D01*
X161714286Y-84145295D02*
X161761905Y-84050057D01*
X161761905Y-84050057D02*
X161809524Y-84002438D01*
X161809524Y-84002438D02*
X161904762Y-83954819D01*
X161904762Y-83954819D02*
X162095238Y-83954819D01*
X162095238Y-83954819D02*
X162190476Y-84002438D01*
X162190476Y-84002438D02*
X162238095Y-84050057D01*
X162238095Y-84050057D02*
X162285714Y-84145295D01*
X162285714Y-84145295D02*
X162285714Y-84192914D01*
X162285714Y-84192914D02*
X162238095Y-84288152D01*
X162238095Y-84288152D02*
X162190476Y-84335771D01*
X162190476Y-84335771D02*
X162095238Y-84383390D01*
X162095238Y-84383390D02*
X161904762Y-84383390D01*
X161904762Y-84383390D02*
X161809524Y-84431009D01*
X161809524Y-84431009D02*
X161761905Y-84478628D01*
X161761905Y-84478628D02*
X161714286Y-84573866D01*
X161714286Y-84573866D02*
X161714286Y-84764342D01*
X161714286Y-84764342D02*
X161761905Y-84859580D01*
X161761905Y-84859580D02*
X161809524Y-84907200D01*
X161809524Y-84907200D02*
X161904762Y-84954819D01*
X161904762Y-84954819D02*
X162095238Y-84954819D01*
X162095238Y-84954819D02*
X162190476Y-84907200D01*
X162190476Y-84907200D02*
X162238095Y-84859580D01*
X162238095Y-84859580D02*
X162285714Y-84764342D01*
X162285714Y-84764342D02*
X162285714Y-84573866D01*
X162285714Y-84573866D02*
X162238095Y-84478628D01*
X162238095Y-84478628D02*
X162190476Y-84431009D01*
X162190476Y-84431009D02*
X162095238Y-84383390D01*
X159357142Y-118359580D02*
X159309523Y-118407200D01*
X159309523Y-118407200D02*
X159166666Y-118454819D01*
X159166666Y-118454819D02*
X159071428Y-118454819D01*
X159071428Y-118454819D02*
X158928571Y-118407200D01*
X158928571Y-118407200D02*
X158833333Y-118311961D01*
X158833333Y-118311961D02*
X158785714Y-118216723D01*
X158785714Y-118216723D02*
X158738095Y-118026247D01*
X158738095Y-118026247D02*
X158738095Y-117883390D01*
X158738095Y-117883390D02*
X158785714Y-117692914D01*
X158785714Y-117692914D02*
X158833333Y-117597676D01*
X158833333Y-117597676D02*
X158928571Y-117502438D01*
X158928571Y-117502438D02*
X159071428Y-117454819D01*
X159071428Y-117454819D02*
X159166666Y-117454819D01*
X159166666Y-117454819D02*
X159309523Y-117502438D01*
X159309523Y-117502438D02*
X159357142Y-117550057D01*
X160309523Y-118454819D02*
X159738095Y-118454819D01*
X160023809Y-118454819D02*
X160023809Y-117454819D01*
X160023809Y-117454819D02*
X159928571Y-117597676D01*
X159928571Y-117597676D02*
X159833333Y-117692914D01*
X159833333Y-117692914D02*
X159738095Y-117740533D01*
X161214285Y-117454819D02*
X160738095Y-117454819D01*
X160738095Y-117454819D02*
X160690476Y-117931009D01*
X160690476Y-117931009D02*
X160738095Y-117883390D01*
X160738095Y-117883390D02*
X160833333Y-117835771D01*
X160833333Y-117835771D02*
X161071428Y-117835771D01*
X161071428Y-117835771D02*
X161166666Y-117883390D01*
X161166666Y-117883390D02*
X161214285Y-117931009D01*
X161214285Y-117931009D02*
X161261904Y-118026247D01*
X161261904Y-118026247D02*
X161261904Y-118264342D01*
X161261904Y-118264342D02*
X161214285Y-118359580D01*
X161214285Y-118359580D02*
X161166666Y-118407200D01*
X161166666Y-118407200D02*
X161071428Y-118454819D01*
X161071428Y-118454819D02*
X160833333Y-118454819D01*
X160833333Y-118454819D02*
X160738095Y-118407200D01*
X160738095Y-118407200D02*
X160690476Y-118359580D01*
X142884819Y-95055357D02*
X142408628Y-95388690D01*
X142884819Y-95626785D02*
X141884819Y-95626785D01*
X141884819Y-95626785D02*
X141884819Y-95245833D01*
X141884819Y-95245833D02*
X141932438Y-95150595D01*
X141932438Y-95150595D02*
X141980057Y-95102976D01*
X141980057Y-95102976D02*
X142075295Y-95055357D01*
X142075295Y-95055357D02*
X142218152Y-95055357D01*
X142218152Y-95055357D02*
X142313390Y-95102976D01*
X142313390Y-95102976D02*
X142361009Y-95150595D01*
X142361009Y-95150595D02*
X142408628Y-95245833D01*
X142408628Y-95245833D02*
X142408628Y-95626785D01*
X141884819Y-94722023D02*
X141884819Y-94102976D01*
X141884819Y-94102976D02*
X142265771Y-94436309D01*
X142265771Y-94436309D02*
X142265771Y-94293452D01*
X142265771Y-94293452D02*
X142313390Y-94198214D01*
X142313390Y-94198214D02*
X142361009Y-94150595D01*
X142361009Y-94150595D02*
X142456247Y-94102976D01*
X142456247Y-94102976D02*
X142694342Y-94102976D01*
X142694342Y-94102976D02*
X142789580Y-94150595D01*
X142789580Y-94150595D02*
X142837200Y-94198214D01*
X142837200Y-94198214D02*
X142884819Y-94293452D01*
X142884819Y-94293452D02*
X142884819Y-94579166D01*
X142884819Y-94579166D02*
X142837200Y-94674404D01*
X142837200Y-94674404D02*
X142789580Y-94722023D01*
X141884819Y-93483928D02*
X141884819Y-93388690D01*
X141884819Y-93388690D02*
X141932438Y-93293452D01*
X141932438Y-93293452D02*
X141980057Y-93245833D01*
X141980057Y-93245833D02*
X142075295Y-93198214D01*
X142075295Y-93198214D02*
X142265771Y-93150595D01*
X142265771Y-93150595D02*
X142503866Y-93150595D01*
X142503866Y-93150595D02*
X142694342Y-93198214D01*
X142694342Y-93198214D02*
X142789580Y-93245833D01*
X142789580Y-93245833D02*
X142837200Y-93293452D01*
X142837200Y-93293452D02*
X142884819Y-93388690D01*
X142884819Y-93388690D02*
X142884819Y-93483928D01*
X142884819Y-93483928D02*
X142837200Y-93579166D01*
X142837200Y-93579166D02*
X142789580Y-93626785D01*
X142789580Y-93626785D02*
X142694342Y-93674404D01*
X142694342Y-93674404D02*
X142503866Y-93722023D01*
X142503866Y-93722023D02*
X142265771Y-93722023D01*
X142265771Y-93722023D02*
X142075295Y-93674404D01*
X142075295Y-93674404D02*
X141980057Y-93626785D01*
X141980057Y-93626785D02*
X141932438Y-93579166D01*
X141932438Y-93579166D02*
X141884819Y-93483928D01*
X159357142Y-128859580D02*
X159309523Y-128907200D01*
X159309523Y-128907200D02*
X159166666Y-128954819D01*
X159166666Y-128954819D02*
X159071428Y-128954819D01*
X159071428Y-128954819D02*
X158928571Y-128907200D01*
X158928571Y-128907200D02*
X158833333Y-128811961D01*
X158833333Y-128811961D02*
X158785714Y-128716723D01*
X158785714Y-128716723D02*
X158738095Y-128526247D01*
X158738095Y-128526247D02*
X158738095Y-128383390D01*
X158738095Y-128383390D02*
X158785714Y-128192914D01*
X158785714Y-128192914D02*
X158833333Y-128097676D01*
X158833333Y-128097676D02*
X158928571Y-128002438D01*
X158928571Y-128002438D02*
X159071428Y-127954819D01*
X159071428Y-127954819D02*
X159166666Y-127954819D01*
X159166666Y-127954819D02*
X159309523Y-128002438D01*
X159309523Y-128002438D02*
X159357142Y-128050057D01*
X160309523Y-128954819D02*
X159738095Y-128954819D01*
X160023809Y-128954819D02*
X160023809Y-127954819D01*
X160023809Y-127954819D02*
X159928571Y-128097676D01*
X159928571Y-128097676D02*
X159833333Y-128192914D01*
X159833333Y-128192914D02*
X159738095Y-128240533D01*
X161261904Y-128954819D02*
X160690476Y-128954819D01*
X160976190Y-128954819D02*
X160976190Y-127954819D01*
X160976190Y-127954819D02*
X160880952Y-128097676D01*
X160880952Y-128097676D02*
X160785714Y-128192914D01*
X160785714Y-128192914D02*
X160690476Y-128240533D01*
X159333333Y-127454819D02*
X158857143Y-127454819D01*
X158857143Y-127454819D02*
X158857143Y-126454819D01*
X160190476Y-127454819D02*
X159619048Y-127454819D01*
X159904762Y-127454819D02*
X159904762Y-126454819D01*
X159904762Y-126454819D02*
X159809524Y-126597676D01*
X159809524Y-126597676D02*
X159714286Y-126692914D01*
X159714286Y-126692914D02*
X159619048Y-126740533D01*
X153238095Y-127979819D02*
X153238095Y-128789342D01*
X153238095Y-128789342D02*
X153285714Y-128884580D01*
X153285714Y-128884580D02*
X153333333Y-128932200D01*
X153333333Y-128932200D02*
X153428571Y-128979819D01*
X153428571Y-128979819D02*
X153619047Y-128979819D01*
X153619047Y-128979819D02*
X153714285Y-128932200D01*
X153714285Y-128932200D02*
X153761904Y-128884580D01*
X153761904Y-128884580D02*
X153809523Y-128789342D01*
X153809523Y-128789342D02*
X153809523Y-127979819D01*
X154190476Y-127979819D02*
X154809523Y-127979819D01*
X154809523Y-127979819D02*
X154476190Y-128360771D01*
X154476190Y-128360771D02*
X154619047Y-128360771D01*
X154619047Y-128360771D02*
X154714285Y-128408390D01*
X154714285Y-128408390D02*
X154761904Y-128456009D01*
X154761904Y-128456009D02*
X154809523Y-128551247D01*
X154809523Y-128551247D02*
X154809523Y-128789342D01*
X154809523Y-128789342D02*
X154761904Y-128884580D01*
X154761904Y-128884580D02*
X154714285Y-128932200D01*
X154714285Y-128932200D02*
X154619047Y-128979819D01*
X154619047Y-128979819D02*
X154333333Y-128979819D01*
X154333333Y-128979819D02*
X154238095Y-128932200D01*
X154238095Y-128932200D02*
X154190476Y-128884580D01*
X128357142Y-113859580D02*
X128309523Y-113907200D01*
X128309523Y-113907200D02*
X128166666Y-113954819D01*
X128166666Y-113954819D02*
X128071428Y-113954819D01*
X128071428Y-113954819D02*
X127928571Y-113907200D01*
X127928571Y-113907200D02*
X127833333Y-113811961D01*
X127833333Y-113811961D02*
X127785714Y-113716723D01*
X127785714Y-113716723D02*
X127738095Y-113526247D01*
X127738095Y-113526247D02*
X127738095Y-113383390D01*
X127738095Y-113383390D02*
X127785714Y-113192914D01*
X127785714Y-113192914D02*
X127833333Y-113097676D01*
X127833333Y-113097676D02*
X127928571Y-113002438D01*
X127928571Y-113002438D02*
X128071428Y-112954819D01*
X128071428Y-112954819D02*
X128166666Y-112954819D01*
X128166666Y-112954819D02*
X128309523Y-113002438D01*
X128309523Y-113002438D02*
X128357142Y-113050057D01*
X129309523Y-113954819D02*
X128738095Y-113954819D01*
X129023809Y-113954819D02*
X129023809Y-112954819D01*
X129023809Y-112954819D02*
X128928571Y-113097676D01*
X128928571Y-113097676D02*
X128833333Y-113192914D01*
X128833333Y-113192914D02*
X128738095Y-113240533D01*
X129880952Y-113383390D02*
X129785714Y-113335771D01*
X129785714Y-113335771D02*
X129738095Y-113288152D01*
X129738095Y-113288152D02*
X129690476Y-113192914D01*
X129690476Y-113192914D02*
X129690476Y-113145295D01*
X129690476Y-113145295D02*
X129738095Y-113050057D01*
X129738095Y-113050057D02*
X129785714Y-113002438D01*
X129785714Y-113002438D02*
X129880952Y-112954819D01*
X129880952Y-112954819D02*
X130071428Y-112954819D01*
X130071428Y-112954819D02*
X130166666Y-113002438D01*
X130166666Y-113002438D02*
X130214285Y-113050057D01*
X130214285Y-113050057D02*
X130261904Y-113145295D01*
X130261904Y-113145295D02*
X130261904Y-113192914D01*
X130261904Y-113192914D02*
X130214285Y-113288152D01*
X130214285Y-113288152D02*
X130166666Y-113335771D01*
X130166666Y-113335771D02*
X130071428Y-113383390D01*
X130071428Y-113383390D02*
X129880952Y-113383390D01*
X129880952Y-113383390D02*
X129785714Y-113431009D01*
X129785714Y-113431009D02*
X129738095Y-113478628D01*
X129738095Y-113478628D02*
X129690476Y-113573866D01*
X129690476Y-113573866D02*
X129690476Y-113764342D01*
X129690476Y-113764342D02*
X129738095Y-113859580D01*
X129738095Y-113859580D02*
X129785714Y-113907200D01*
X129785714Y-113907200D02*
X129880952Y-113954819D01*
X129880952Y-113954819D02*
X130071428Y-113954819D01*
X130071428Y-113954819D02*
X130166666Y-113907200D01*
X130166666Y-113907200D02*
X130214285Y-113859580D01*
X130214285Y-113859580D02*
X130261904Y-113764342D01*
X130261904Y-113764342D02*
X130261904Y-113573866D01*
X130261904Y-113573866D02*
X130214285Y-113478628D01*
X130214285Y-113478628D02*
X130166666Y-113431009D01*
X130166666Y-113431009D02*
X130071428Y-113383390D01*
X147384819Y-95055357D02*
X146908628Y-95388690D01*
X147384819Y-95626785D02*
X146384819Y-95626785D01*
X146384819Y-95626785D02*
X146384819Y-95245833D01*
X146384819Y-95245833D02*
X146432438Y-95150595D01*
X146432438Y-95150595D02*
X146480057Y-95102976D01*
X146480057Y-95102976D02*
X146575295Y-95055357D01*
X146575295Y-95055357D02*
X146718152Y-95055357D01*
X146718152Y-95055357D02*
X146813390Y-95102976D01*
X146813390Y-95102976D02*
X146861009Y-95150595D01*
X146861009Y-95150595D02*
X146908628Y-95245833D01*
X146908628Y-95245833D02*
X146908628Y-95626785D01*
X146384819Y-94722023D02*
X146384819Y-94102976D01*
X146384819Y-94102976D02*
X146765771Y-94436309D01*
X146765771Y-94436309D02*
X146765771Y-94293452D01*
X146765771Y-94293452D02*
X146813390Y-94198214D01*
X146813390Y-94198214D02*
X146861009Y-94150595D01*
X146861009Y-94150595D02*
X146956247Y-94102976D01*
X146956247Y-94102976D02*
X147194342Y-94102976D01*
X147194342Y-94102976D02*
X147289580Y-94150595D01*
X147289580Y-94150595D02*
X147337200Y-94198214D01*
X147337200Y-94198214D02*
X147384819Y-94293452D01*
X147384819Y-94293452D02*
X147384819Y-94579166D01*
X147384819Y-94579166D02*
X147337200Y-94674404D01*
X147337200Y-94674404D02*
X147289580Y-94722023D01*
X146384819Y-93245833D02*
X146384819Y-93436309D01*
X146384819Y-93436309D02*
X146432438Y-93531547D01*
X146432438Y-93531547D02*
X146480057Y-93579166D01*
X146480057Y-93579166D02*
X146622914Y-93674404D01*
X146622914Y-93674404D02*
X146813390Y-93722023D01*
X146813390Y-93722023D02*
X147194342Y-93722023D01*
X147194342Y-93722023D02*
X147289580Y-93674404D01*
X147289580Y-93674404D02*
X147337200Y-93626785D01*
X147337200Y-93626785D02*
X147384819Y-93531547D01*
X147384819Y-93531547D02*
X147384819Y-93341071D01*
X147384819Y-93341071D02*
X147337200Y-93245833D01*
X147337200Y-93245833D02*
X147289580Y-93198214D01*
X147289580Y-93198214D02*
X147194342Y-93150595D01*
X147194342Y-93150595D02*
X146956247Y-93150595D01*
X146956247Y-93150595D02*
X146861009Y-93198214D01*
X146861009Y-93198214D02*
X146813390Y-93245833D01*
X146813390Y-93245833D02*
X146765771Y-93341071D01*
X146765771Y-93341071D02*
X146765771Y-93531547D01*
X146765771Y-93531547D02*
X146813390Y-93626785D01*
X146813390Y-93626785D02*
X146861009Y-93674404D01*
X146861009Y-93674404D02*
X146956247Y-93722023D01*
X142833333Y-86359580D02*
X142785714Y-86407200D01*
X142785714Y-86407200D02*
X142642857Y-86454819D01*
X142642857Y-86454819D02*
X142547619Y-86454819D01*
X142547619Y-86454819D02*
X142404762Y-86407200D01*
X142404762Y-86407200D02*
X142309524Y-86311961D01*
X142309524Y-86311961D02*
X142261905Y-86216723D01*
X142261905Y-86216723D02*
X142214286Y-86026247D01*
X142214286Y-86026247D02*
X142214286Y-85883390D01*
X142214286Y-85883390D02*
X142261905Y-85692914D01*
X142261905Y-85692914D02*
X142309524Y-85597676D01*
X142309524Y-85597676D02*
X142404762Y-85502438D01*
X142404762Y-85502438D02*
X142547619Y-85454819D01*
X142547619Y-85454819D02*
X142642857Y-85454819D01*
X142642857Y-85454819D02*
X142785714Y-85502438D01*
X142785714Y-85502438D02*
X142833333Y-85550057D01*
X143690476Y-85788152D02*
X143690476Y-86454819D01*
X143452381Y-85407200D02*
X143214286Y-86121485D01*
X143214286Y-86121485D02*
X143833333Y-86121485D01*
X104857142Y-86454819D02*
X104523809Y-85978628D01*
X104285714Y-86454819D02*
X104285714Y-85454819D01*
X104285714Y-85454819D02*
X104666666Y-85454819D01*
X104666666Y-85454819D02*
X104761904Y-85502438D01*
X104761904Y-85502438D02*
X104809523Y-85550057D01*
X104809523Y-85550057D02*
X104857142Y-85645295D01*
X104857142Y-85645295D02*
X104857142Y-85788152D01*
X104857142Y-85788152D02*
X104809523Y-85883390D01*
X104809523Y-85883390D02*
X104761904Y-85931009D01*
X104761904Y-85931009D02*
X104666666Y-85978628D01*
X104666666Y-85978628D02*
X104285714Y-85978628D01*
X105809523Y-86454819D02*
X105238095Y-86454819D01*
X105523809Y-86454819D02*
X105523809Y-85454819D01*
X105523809Y-85454819D02*
X105428571Y-85597676D01*
X105428571Y-85597676D02*
X105333333Y-85692914D01*
X105333333Y-85692914D02*
X105238095Y-85740533D01*
X106380952Y-85883390D02*
X106285714Y-85835771D01*
X106285714Y-85835771D02*
X106238095Y-85788152D01*
X106238095Y-85788152D02*
X106190476Y-85692914D01*
X106190476Y-85692914D02*
X106190476Y-85645295D01*
X106190476Y-85645295D02*
X106238095Y-85550057D01*
X106238095Y-85550057D02*
X106285714Y-85502438D01*
X106285714Y-85502438D02*
X106380952Y-85454819D01*
X106380952Y-85454819D02*
X106571428Y-85454819D01*
X106571428Y-85454819D02*
X106666666Y-85502438D01*
X106666666Y-85502438D02*
X106714285Y-85550057D01*
X106714285Y-85550057D02*
X106761904Y-85645295D01*
X106761904Y-85645295D02*
X106761904Y-85692914D01*
X106761904Y-85692914D02*
X106714285Y-85788152D01*
X106714285Y-85788152D02*
X106666666Y-85835771D01*
X106666666Y-85835771D02*
X106571428Y-85883390D01*
X106571428Y-85883390D02*
X106380952Y-85883390D01*
X106380952Y-85883390D02*
X106285714Y-85931009D01*
X106285714Y-85931009D02*
X106238095Y-85978628D01*
X106238095Y-85978628D02*
X106190476Y-86073866D01*
X106190476Y-86073866D02*
X106190476Y-86264342D01*
X106190476Y-86264342D02*
X106238095Y-86359580D01*
X106238095Y-86359580D02*
X106285714Y-86407200D01*
X106285714Y-86407200D02*
X106380952Y-86454819D01*
X106380952Y-86454819D02*
X106571428Y-86454819D01*
X106571428Y-86454819D02*
X106666666Y-86407200D01*
X106666666Y-86407200D02*
X106714285Y-86359580D01*
X106714285Y-86359580D02*
X106761904Y-86264342D01*
X106761904Y-86264342D02*
X106761904Y-86073866D01*
X106761904Y-86073866D02*
X106714285Y-85978628D01*
X106714285Y-85978628D02*
X106666666Y-85931009D01*
X106666666Y-85931009D02*
X106571428Y-85883390D01*
X137524819Y-122230357D02*
X137048628Y-122563690D01*
X137524819Y-122801785D02*
X136524819Y-122801785D01*
X136524819Y-122801785D02*
X136524819Y-122420833D01*
X136524819Y-122420833D02*
X136572438Y-122325595D01*
X136572438Y-122325595D02*
X136620057Y-122277976D01*
X136620057Y-122277976D02*
X136715295Y-122230357D01*
X136715295Y-122230357D02*
X136858152Y-122230357D01*
X136858152Y-122230357D02*
X136953390Y-122277976D01*
X136953390Y-122277976D02*
X137001009Y-122325595D01*
X137001009Y-122325595D02*
X137048628Y-122420833D01*
X137048628Y-122420833D02*
X137048628Y-122801785D01*
X136620057Y-121849404D02*
X136572438Y-121801785D01*
X136572438Y-121801785D02*
X136524819Y-121706547D01*
X136524819Y-121706547D02*
X136524819Y-121468452D01*
X136524819Y-121468452D02*
X136572438Y-121373214D01*
X136572438Y-121373214D02*
X136620057Y-121325595D01*
X136620057Y-121325595D02*
X136715295Y-121277976D01*
X136715295Y-121277976D02*
X136810533Y-121277976D01*
X136810533Y-121277976D02*
X136953390Y-121325595D01*
X136953390Y-121325595D02*
X137524819Y-121897023D01*
X137524819Y-121897023D02*
X137524819Y-121277976D01*
X137524819Y-120801785D02*
X137524819Y-120611309D01*
X137524819Y-120611309D02*
X137477200Y-120516071D01*
X137477200Y-120516071D02*
X137429580Y-120468452D01*
X137429580Y-120468452D02*
X137286723Y-120373214D01*
X137286723Y-120373214D02*
X137096247Y-120325595D01*
X137096247Y-120325595D02*
X136715295Y-120325595D01*
X136715295Y-120325595D02*
X136620057Y-120373214D01*
X136620057Y-120373214D02*
X136572438Y-120420833D01*
X136572438Y-120420833D02*
X136524819Y-120516071D01*
X136524819Y-120516071D02*
X136524819Y-120706547D01*
X136524819Y-120706547D02*
X136572438Y-120801785D01*
X136572438Y-120801785D02*
X136620057Y-120849404D01*
X136620057Y-120849404D02*
X136715295Y-120897023D01*
X136715295Y-120897023D02*
X136953390Y-120897023D01*
X136953390Y-120897023D02*
X137048628Y-120849404D01*
X137048628Y-120849404D02*
X137096247Y-120801785D01*
X137096247Y-120801785D02*
X137143866Y-120706547D01*
X137143866Y-120706547D02*
X137143866Y-120516071D01*
X137143866Y-120516071D02*
X137096247Y-120420833D01*
X137096247Y-120420833D02*
X137048628Y-120373214D01*
X137048628Y-120373214D02*
X136953390Y-120325595D01*
X120954819Y-100166666D02*
X120478628Y-100499999D01*
X120954819Y-100738094D02*
X119954819Y-100738094D01*
X119954819Y-100738094D02*
X119954819Y-100357142D01*
X119954819Y-100357142D02*
X120002438Y-100261904D01*
X120002438Y-100261904D02*
X120050057Y-100214285D01*
X120050057Y-100214285D02*
X120145295Y-100166666D01*
X120145295Y-100166666D02*
X120288152Y-100166666D01*
X120288152Y-100166666D02*
X120383390Y-100214285D01*
X120383390Y-100214285D02*
X120431009Y-100261904D01*
X120431009Y-100261904D02*
X120478628Y-100357142D01*
X120478628Y-100357142D02*
X120478628Y-100738094D01*
X119954819Y-99833332D02*
X119954819Y-99166666D01*
X119954819Y-99166666D02*
X120954819Y-99595237D01*
X117359580Y-133780357D02*
X117407200Y-133827976D01*
X117407200Y-133827976D02*
X117454819Y-133970833D01*
X117454819Y-133970833D02*
X117454819Y-134066071D01*
X117454819Y-134066071D02*
X117407200Y-134208928D01*
X117407200Y-134208928D02*
X117311961Y-134304166D01*
X117311961Y-134304166D02*
X117216723Y-134351785D01*
X117216723Y-134351785D02*
X117026247Y-134399404D01*
X117026247Y-134399404D02*
X116883390Y-134399404D01*
X116883390Y-134399404D02*
X116692914Y-134351785D01*
X116692914Y-134351785D02*
X116597676Y-134304166D01*
X116597676Y-134304166D02*
X116502438Y-134208928D01*
X116502438Y-134208928D02*
X116454819Y-134066071D01*
X116454819Y-134066071D02*
X116454819Y-133970833D01*
X116454819Y-133970833D02*
X116502438Y-133827976D01*
X116502438Y-133827976D02*
X116550057Y-133780357D01*
X116550057Y-133399404D02*
X116502438Y-133351785D01*
X116502438Y-133351785D02*
X116454819Y-133256547D01*
X116454819Y-133256547D02*
X116454819Y-133018452D01*
X116454819Y-133018452D02*
X116502438Y-132923214D01*
X116502438Y-132923214D02*
X116550057Y-132875595D01*
X116550057Y-132875595D02*
X116645295Y-132827976D01*
X116645295Y-132827976D02*
X116740533Y-132827976D01*
X116740533Y-132827976D02*
X116883390Y-132875595D01*
X116883390Y-132875595D02*
X117454819Y-133447023D01*
X117454819Y-133447023D02*
X117454819Y-132827976D01*
X117454819Y-131875595D02*
X117454819Y-132447023D01*
X117454819Y-132161309D02*
X116454819Y-132161309D01*
X116454819Y-132161309D02*
X116597676Y-132256547D01*
X116597676Y-132256547D02*
X116692914Y-132351785D01*
X116692914Y-132351785D02*
X116740533Y-132447023D01*
X111954819Y-103754166D02*
X111478628Y-104087499D01*
X111954819Y-104325594D02*
X110954819Y-104325594D01*
X110954819Y-104325594D02*
X110954819Y-103944642D01*
X110954819Y-103944642D02*
X111002438Y-103849404D01*
X111002438Y-103849404D02*
X111050057Y-103801785D01*
X111050057Y-103801785D02*
X111145295Y-103754166D01*
X111145295Y-103754166D02*
X111288152Y-103754166D01*
X111288152Y-103754166D02*
X111383390Y-103801785D01*
X111383390Y-103801785D02*
X111431009Y-103849404D01*
X111431009Y-103849404D02*
X111478628Y-103944642D01*
X111478628Y-103944642D02*
X111478628Y-104325594D01*
X111050057Y-103373213D02*
X111002438Y-103325594D01*
X111002438Y-103325594D02*
X110954819Y-103230356D01*
X110954819Y-103230356D02*
X110954819Y-102992261D01*
X110954819Y-102992261D02*
X111002438Y-102897023D01*
X111002438Y-102897023D02*
X111050057Y-102849404D01*
X111050057Y-102849404D02*
X111145295Y-102801785D01*
X111145295Y-102801785D02*
X111240533Y-102801785D01*
X111240533Y-102801785D02*
X111383390Y-102849404D01*
X111383390Y-102849404D02*
X111954819Y-103420832D01*
X111954819Y-103420832D02*
X111954819Y-102801785D01*
X122884819Y-120142857D02*
X122408628Y-120476190D01*
X122884819Y-120714285D02*
X121884819Y-120714285D01*
X121884819Y-120714285D02*
X121884819Y-120333333D01*
X121884819Y-120333333D02*
X121932438Y-120238095D01*
X121932438Y-120238095D02*
X121980057Y-120190476D01*
X121980057Y-120190476D02*
X122075295Y-120142857D01*
X122075295Y-120142857D02*
X122218152Y-120142857D01*
X122218152Y-120142857D02*
X122313390Y-120190476D01*
X122313390Y-120190476D02*
X122361009Y-120238095D01*
X122361009Y-120238095D02*
X122408628Y-120333333D01*
X122408628Y-120333333D02*
X122408628Y-120714285D01*
X122884819Y-119190476D02*
X122884819Y-119761904D01*
X122884819Y-119476190D02*
X121884819Y-119476190D01*
X121884819Y-119476190D02*
X122027676Y-119571428D01*
X122027676Y-119571428D02*
X122122914Y-119666666D01*
X122122914Y-119666666D02*
X122170533Y-119761904D01*
X121980057Y-118809523D02*
X121932438Y-118761904D01*
X121932438Y-118761904D02*
X121884819Y-118666666D01*
X121884819Y-118666666D02*
X121884819Y-118428571D01*
X121884819Y-118428571D02*
X121932438Y-118333333D01*
X121932438Y-118333333D02*
X121980057Y-118285714D01*
X121980057Y-118285714D02*
X122075295Y-118238095D01*
X122075295Y-118238095D02*
X122170533Y-118238095D01*
X122170533Y-118238095D02*
X122313390Y-118285714D01*
X122313390Y-118285714D02*
X122884819Y-118857142D01*
X122884819Y-118857142D02*
X122884819Y-118238095D01*
X144384819Y-95055357D02*
X143908628Y-95388690D01*
X144384819Y-95626785D02*
X143384819Y-95626785D01*
X143384819Y-95626785D02*
X143384819Y-95245833D01*
X143384819Y-95245833D02*
X143432438Y-95150595D01*
X143432438Y-95150595D02*
X143480057Y-95102976D01*
X143480057Y-95102976D02*
X143575295Y-95055357D01*
X143575295Y-95055357D02*
X143718152Y-95055357D01*
X143718152Y-95055357D02*
X143813390Y-95102976D01*
X143813390Y-95102976D02*
X143861009Y-95150595D01*
X143861009Y-95150595D02*
X143908628Y-95245833D01*
X143908628Y-95245833D02*
X143908628Y-95626785D01*
X143384819Y-94722023D02*
X143384819Y-94102976D01*
X143384819Y-94102976D02*
X143765771Y-94436309D01*
X143765771Y-94436309D02*
X143765771Y-94293452D01*
X143765771Y-94293452D02*
X143813390Y-94198214D01*
X143813390Y-94198214D02*
X143861009Y-94150595D01*
X143861009Y-94150595D02*
X143956247Y-94102976D01*
X143956247Y-94102976D02*
X144194342Y-94102976D01*
X144194342Y-94102976D02*
X144289580Y-94150595D01*
X144289580Y-94150595D02*
X144337200Y-94198214D01*
X144337200Y-94198214D02*
X144384819Y-94293452D01*
X144384819Y-94293452D02*
X144384819Y-94579166D01*
X144384819Y-94579166D02*
X144337200Y-94674404D01*
X144337200Y-94674404D02*
X144289580Y-94722023D01*
X144384819Y-93150595D02*
X144384819Y-93722023D01*
X144384819Y-93436309D02*
X143384819Y-93436309D01*
X143384819Y-93436309D02*
X143527676Y-93531547D01*
X143527676Y-93531547D02*
X143622914Y-93626785D01*
X143622914Y-93626785D02*
X143670533Y-93722023D01*
X146929580Y-86505357D02*
X146977200Y-86552976D01*
X146977200Y-86552976D02*
X147024819Y-86695833D01*
X147024819Y-86695833D02*
X147024819Y-86791071D01*
X147024819Y-86791071D02*
X146977200Y-86933928D01*
X146977200Y-86933928D02*
X146881961Y-87029166D01*
X146881961Y-87029166D02*
X146786723Y-87076785D01*
X146786723Y-87076785D02*
X146596247Y-87124404D01*
X146596247Y-87124404D02*
X146453390Y-87124404D01*
X146453390Y-87124404D02*
X146262914Y-87076785D01*
X146262914Y-87076785D02*
X146167676Y-87029166D01*
X146167676Y-87029166D02*
X146072438Y-86933928D01*
X146072438Y-86933928D02*
X146024819Y-86791071D01*
X146024819Y-86791071D02*
X146024819Y-86695833D01*
X146024819Y-86695833D02*
X146072438Y-86552976D01*
X146072438Y-86552976D02*
X146120057Y-86505357D01*
X147024819Y-85552976D02*
X147024819Y-86124404D01*
X147024819Y-85838690D02*
X146024819Y-85838690D01*
X146024819Y-85838690D02*
X146167676Y-85933928D01*
X146167676Y-85933928D02*
X146262914Y-86029166D01*
X146262914Y-86029166D02*
X146310533Y-86124404D01*
X146024819Y-84933928D02*
X146024819Y-84838690D01*
X146024819Y-84838690D02*
X146072438Y-84743452D01*
X146072438Y-84743452D02*
X146120057Y-84695833D01*
X146120057Y-84695833D02*
X146215295Y-84648214D01*
X146215295Y-84648214D02*
X146405771Y-84600595D01*
X146405771Y-84600595D02*
X146643866Y-84600595D01*
X146643866Y-84600595D02*
X146834342Y-84648214D01*
X146834342Y-84648214D02*
X146929580Y-84695833D01*
X146929580Y-84695833D02*
X146977200Y-84743452D01*
X146977200Y-84743452D02*
X147024819Y-84838690D01*
X147024819Y-84838690D02*
X147024819Y-84933928D01*
X147024819Y-84933928D02*
X146977200Y-85029166D01*
X146977200Y-85029166D02*
X146929580Y-85076785D01*
X146929580Y-85076785D02*
X146834342Y-85124404D01*
X146834342Y-85124404D02*
X146643866Y-85172023D01*
X146643866Y-85172023D02*
X146405771Y-85172023D01*
X146405771Y-85172023D02*
X146215295Y-85124404D01*
X146215295Y-85124404D02*
X146120057Y-85076785D01*
X146120057Y-85076785D02*
X146072438Y-85029166D01*
X146072438Y-85029166D02*
X146024819Y-84933928D01*
X117833333Y-122454819D02*
X117500000Y-121978628D01*
X117261905Y-122454819D02*
X117261905Y-121454819D01*
X117261905Y-121454819D02*
X117642857Y-121454819D01*
X117642857Y-121454819D02*
X117738095Y-121502438D01*
X117738095Y-121502438D02*
X117785714Y-121550057D01*
X117785714Y-121550057D02*
X117833333Y-121645295D01*
X117833333Y-121645295D02*
X117833333Y-121788152D01*
X117833333Y-121788152D02*
X117785714Y-121883390D01*
X117785714Y-121883390D02*
X117738095Y-121931009D01*
X117738095Y-121931009D02*
X117642857Y-121978628D01*
X117642857Y-121978628D02*
X117261905Y-121978628D01*
X118309524Y-122454819D02*
X118500000Y-122454819D01*
X118500000Y-122454819D02*
X118595238Y-122407200D01*
X118595238Y-122407200D02*
X118642857Y-122359580D01*
X118642857Y-122359580D02*
X118738095Y-122216723D01*
X118738095Y-122216723D02*
X118785714Y-122026247D01*
X118785714Y-122026247D02*
X118785714Y-121645295D01*
X118785714Y-121645295D02*
X118738095Y-121550057D01*
X118738095Y-121550057D02*
X118690476Y-121502438D01*
X118690476Y-121502438D02*
X118595238Y-121454819D01*
X118595238Y-121454819D02*
X118404762Y-121454819D01*
X118404762Y-121454819D02*
X118309524Y-121502438D01*
X118309524Y-121502438D02*
X118261905Y-121550057D01*
X118261905Y-121550057D02*
X118214286Y-121645295D01*
X118214286Y-121645295D02*
X118214286Y-121883390D01*
X118214286Y-121883390D02*
X118261905Y-121978628D01*
X118261905Y-121978628D02*
X118309524Y-122026247D01*
X118309524Y-122026247D02*
X118404762Y-122073866D01*
X118404762Y-122073866D02*
X118595238Y-122073866D01*
X118595238Y-122073866D02*
X118690476Y-122026247D01*
X118690476Y-122026247D02*
X118738095Y-121978628D01*
X118738095Y-121978628D02*
X118785714Y-121883390D01*
X160557142Y-130854580D02*
X160509523Y-130902200D01*
X160509523Y-130902200D02*
X160366666Y-130949819D01*
X160366666Y-130949819D02*
X160271428Y-130949819D01*
X160271428Y-130949819D02*
X160128571Y-130902200D01*
X160128571Y-130902200D02*
X160033333Y-130806961D01*
X160033333Y-130806961D02*
X159985714Y-130711723D01*
X159985714Y-130711723D02*
X159938095Y-130521247D01*
X159938095Y-130521247D02*
X159938095Y-130378390D01*
X159938095Y-130378390D02*
X159985714Y-130187914D01*
X159985714Y-130187914D02*
X160033333Y-130092676D01*
X160033333Y-130092676D02*
X160128571Y-129997438D01*
X160128571Y-129997438D02*
X160271428Y-129949819D01*
X160271428Y-129949819D02*
X160366666Y-129949819D01*
X160366666Y-129949819D02*
X160509523Y-129997438D01*
X160509523Y-129997438D02*
X160557142Y-130045057D01*
X161509523Y-130949819D02*
X160938095Y-130949819D01*
X161223809Y-130949819D02*
X161223809Y-129949819D01*
X161223809Y-129949819D02*
X161128571Y-130092676D01*
X161128571Y-130092676D02*
X161033333Y-130187914D01*
X161033333Y-130187914D02*
X160938095Y-130235533D01*
X161890476Y-130045057D02*
X161938095Y-129997438D01*
X161938095Y-129997438D02*
X162033333Y-129949819D01*
X162033333Y-129949819D02*
X162271428Y-129949819D01*
X162271428Y-129949819D02*
X162366666Y-129997438D01*
X162366666Y-129997438D02*
X162414285Y-130045057D01*
X162414285Y-130045057D02*
X162461904Y-130140295D01*
X162461904Y-130140295D02*
X162461904Y-130235533D01*
X162461904Y-130235533D02*
X162414285Y-130378390D01*
X162414285Y-130378390D02*
X161842857Y-130949819D01*
X161842857Y-130949819D02*
X162461904Y-130949819D01*
X104857142Y-90454819D02*
X104523809Y-89978628D01*
X104285714Y-90454819D02*
X104285714Y-89454819D01*
X104285714Y-89454819D02*
X104666666Y-89454819D01*
X104666666Y-89454819D02*
X104761904Y-89502438D01*
X104761904Y-89502438D02*
X104809523Y-89550057D01*
X104809523Y-89550057D02*
X104857142Y-89645295D01*
X104857142Y-89645295D02*
X104857142Y-89788152D01*
X104857142Y-89788152D02*
X104809523Y-89883390D01*
X104809523Y-89883390D02*
X104761904Y-89931009D01*
X104761904Y-89931009D02*
X104666666Y-89978628D01*
X104666666Y-89978628D02*
X104285714Y-89978628D01*
X105809523Y-90454819D02*
X105238095Y-90454819D01*
X105523809Y-90454819D02*
X105523809Y-89454819D01*
X105523809Y-89454819D02*
X105428571Y-89597676D01*
X105428571Y-89597676D02*
X105333333Y-89692914D01*
X105333333Y-89692914D02*
X105238095Y-89740533D01*
X106285714Y-90454819D02*
X106476190Y-90454819D01*
X106476190Y-90454819D02*
X106571428Y-90407200D01*
X106571428Y-90407200D02*
X106619047Y-90359580D01*
X106619047Y-90359580D02*
X106714285Y-90216723D01*
X106714285Y-90216723D02*
X106761904Y-90026247D01*
X106761904Y-90026247D02*
X106761904Y-89645295D01*
X106761904Y-89645295D02*
X106714285Y-89550057D01*
X106714285Y-89550057D02*
X106666666Y-89502438D01*
X106666666Y-89502438D02*
X106571428Y-89454819D01*
X106571428Y-89454819D02*
X106380952Y-89454819D01*
X106380952Y-89454819D02*
X106285714Y-89502438D01*
X106285714Y-89502438D02*
X106238095Y-89550057D01*
X106238095Y-89550057D02*
X106190476Y-89645295D01*
X106190476Y-89645295D02*
X106190476Y-89883390D01*
X106190476Y-89883390D02*
X106238095Y-89978628D01*
X106238095Y-89978628D02*
X106285714Y-90026247D01*
X106285714Y-90026247D02*
X106380952Y-90073866D01*
X106380952Y-90073866D02*
X106571428Y-90073866D01*
X106571428Y-90073866D02*
X106666666Y-90026247D01*
X106666666Y-90026247D02*
X106714285Y-89978628D01*
X106714285Y-89978628D02*
X106761904Y-89883390D01*
X128954819Y-116642857D02*
X128478628Y-116976190D01*
X128954819Y-117214285D02*
X127954819Y-117214285D01*
X127954819Y-117214285D02*
X127954819Y-116833333D01*
X127954819Y-116833333D02*
X128002438Y-116738095D01*
X128002438Y-116738095D02*
X128050057Y-116690476D01*
X128050057Y-116690476D02*
X128145295Y-116642857D01*
X128145295Y-116642857D02*
X128288152Y-116642857D01*
X128288152Y-116642857D02*
X128383390Y-116690476D01*
X128383390Y-116690476D02*
X128431009Y-116738095D01*
X128431009Y-116738095D02*
X128478628Y-116833333D01*
X128478628Y-116833333D02*
X128478628Y-117214285D01*
X127954819Y-116309523D02*
X127954819Y-115690476D01*
X127954819Y-115690476D02*
X128335771Y-116023809D01*
X128335771Y-116023809D02*
X128335771Y-115880952D01*
X128335771Y-115880952D02*
X128383390Y-115785714D01*
X128383390Y-115785714D02*
X128431009Y-115738095D01*
X128431009Y-115738095D02*
X128526247Y-115690476D01*
X128526247Y-115690476D02*
X128764342Y-115690476D01*
X128764342Y-115690476D02*
X128859580Y-115738095D01*
X128859580Y-115738095D02*
X128907200Y-115785714D01*
X128907200Y-115785714D02*
X128954819Y-115880952D01*
X128954819Y-115880952D02*
X128954819Y-116166666D01*
X128954819Y-116166666D02*
X128907200Y-116261904D01*
X128907200Y-116261904D02*
X128859580Y-116309523D01*
X128954819Y-115214285D02*
X128954819Y-115023809D01*
X128954819Y-115023809D02*
X128907200Y-114928571D01*
X128907200Y-114928571D02*
X128859580Y-114880952D01*
X128859580Y-114880952D02*
X128716723Y-114785714D01*
X128716723Y-114785714D02*
X128526247Y-114738095D01*
X128526247Y-114738095D02*
X128145295Y-114738095D01*
X128145295Y-114738095D02*
X128050057Y-114785714D01*
X128050057Y-114785714D02*
X128002438Y-114833333D01*
X128002438Y-114833333D02*
X127954819Y-114928571D01*
X127954819Y-114928571D02*
X127954819Y-115119047D01*
X127954819Y-115119047D02*
X128002438Y-115214285D01*
X128002438Y-115214285D02*
X128050057Y-115261904D01*
X128050057Y-115261904D02*
X128145295Y-115309523D01*
X128145295Y-115309523D02*
X128383390Y-115309523D01*
X128383390Y-115309523D02*
X128478628Y-115261904D01*
X128478628Y-115261904D02*
X128526247Y-115214285D01*
X128526247Y-115214285D02*
X128573866Y-115119047D01*
X128573866Y-115119047D02*
X128573866Y-114928571D01*
X128573866Y-114928571D02*
X128526247Y-114833333D01*
X128526247Y-114833333D02*
X128478628Y-114785714D01*
X128478628Y-114785714D02*
X128383390Y-114738095D01*
X125954819Y-116642857D02*
X125478628Y-116976190D01*
X125954819Y-117214285D02*
X124954819Y-117214285D01*
X124954819Y-117214285D02*
X124954819Y-116833333D01*
X124954819Y-116833333D02*
X125002438Y-116738095D01*
X125002438Y-116738095D02*
X125050057Y-116690476D01*
X125050057Y-116690476D02*
X125145295Y-116642857D01*
X125145295Y-116642857D02*
X125288152Y-116642857D01*
X125288152Y-116642857D02*
X125383390Y-116690476D01*
X125383390Y-116690476D02*
X125431009Y-116738095D01*
X125431009Y-116738095D02*
X125478628Y-116833333D01*
X125478628Y-116833333D02*
X125478628Y-117214285D01*
X124954819Y-116309523D02*
X124954819Y-115690476D01*
X124954819Y-115690476D02*
X125335771Y-116023809D01*
X125335771Y-116023809D02*
X125335771Y-115880952D01*
X125335771Y-115880952D02*
X125383390Y-115785714D01*
X125383390Y-115785714D02*
X125431009Y-115738095D01*
X125431009Y-115738095D02*
X125526247Y-115690476D01*
X125526247Y-115690476D02*
X125764342Y-115690476D01*
X125764342Y-115690476D02*
X125859580Y-115738095D01*
X125859580Y-115738095D02*
X125907200Y-115785714D01*
X125907200Y-115785714D02*
X125954819Y-115880952D01*
X125954819Y-115880952D02*
X125954819Y-116166666D01*
X125954819Y-116166666D02*
X125907200Y-116261904D01*
X125907200Y-116261904D02*
X125859580Y-116309523D01*
X125288152Y-114833333D02*
X125954819Y-114833333D01*
X124907200Y-115071428D02*
X125621485Y-115309523D01*
X125621485Y-115309523D02*
X125621485Y-114690476D01*
X145884819Y-95055357D02*
X145408628Y-95388690D01*
X145884819Y-95626785D02*
X144884819Y-95626785D01*
X144884819Y-95626785D02*
X144884819Y-95245833D01*
X144884819Y-95245833D02*
X144932438Y-95150595D01*
X144932438Y-95150595D02*
X144980057Y-95102976D01*
X144980057Y-95102976D02*
X145075295Y-95055357D01*
X145075295Y-95055357D02*
X145218152Y-95055357D01*
X145218152Y-95055357D02*
X145313390Y-95102976D01*
X145313390Y-95102976D02*
X145361009Y-95150595D01*
X145361009Y-95150595D02*
X145408628Y-95245833D01*
X145408628Y-95245833D02*
X145408628Y-95626785D01*
X144884819Y-94722023D02*
X144884819Y-94102976D01*
X144884819Y-94102976D02*
X145265771Y-94436309D01*
X145265771Y-94436309D02*
X145265771Y-94293452D01*
X145265771Y-94293452D02*
X145313390Y-94198214D01*
X145313390Y-94198214D02*
X145361009Y-94150595D01*
X145361009Y-94150595D02*
X145456247Y-94102976D01*
X145456247Y-94102976D02*
X145694342Y-94102976D01*
X145694342Y-94102976D02*
X145789580Y-94150595D01*
X145789580Y-94150595D02*
X145837200Y-94198214D01*
X145837200Y-94198214D02*
X145884819Y-94293452D01*
X145884819Y-94293452D02*
X145884819Y-94579166D01*
X145884819Y-94579166D02*
X145837200Y-94674404D01*
X145837200Y-94674404D02*
X145789580Y-94722023D01*
X144884819Y-93769642D02*
X144884819Y-93150595D01*
X144884819Y-93150595D02*
X145265771Y-93483928D01*
X145265771Y-93483928D02*
X145265771Y-93341071D01*
X145265771Y-93341071D02*
X145313390Y-93245833D01*
X145313390Y-93245833D02*
X145361009Y-93198214D01*
X145361009Y-93198214D02*
X145456247Y-93150595D01*
X145456247Y-93150595D02*
X145694342Y-93150595D01*
X145694342Y-93150595D02*
X145789580Y-93198214D01*
X145789580Y-93198214D02*
X145837200Y-93245833D01*
X145837200Y-93245833D02*
X145884819Y-93341071D01*
X145884819Y-93341071D02*
X145884819Y-93626785D01*
X145884819Y-93626785D02*
X145837200Y-93722023D01*
X145837200Y-93722023D02*
X145789580Y-93769642D01*
X104857142Y-100454819D02*
X104523809Y-99978628D01*
X104285714Y-100454819D02*
X104285714Y-99454819D01*
X104285714Y-99454819D02*
X104666666Y-99454819D01*
X104666666Y-99454819D02*
X104761904Y-99502438D01*
X104761904Y-99502438D02*
X104809523Y-99550057D01*
X104809523Y-99550057D02*
X104857142Y-99645295D01*
X104857142Y-99645295D02*
X104857142Y-99788152D01*
X104857142Y-99788152D02*
X104809523Y-99883390D01*
X104809523Y-99883390D02*
X104761904Y-99931009D01*
X104761904Y-99931009D02*
X104666666Y-99978628D01*
X104666666Y-99978628D02*
X104285714Y-99978628D01*
X105809523Y-100454819D02*
X105238095Y-100454819D01*
X105523809Y-100454819D02*
X105523809Y-99454819D01*
X105523809Y-99454819D02*
X105428571Y-99597676D01*
X105428571Y-99597676D02*
X105333333Y-99692914D01*
X105333333Y-99692914D02*
X105238095Y-99740533D01*
X106142857Y-99454819D02*
X106809523Y-99454819D01*
X106809523Y-99454819D02*
X106380952Y-100454819D01*
X119333333Y-117454819D02*
X119000000Y-116978628D01*
X118761905Y-117454819D02*
X118761905Y-116454819D01*
X118761905Y-116454819D02*
X119142857Y-116454819D01*
X119142857Y-116454819D02*
X119238095Y-116502438D01*
X119238095Y-116502438D02*
X119285714Y-116550057D01*
X119285714Y-116550057D02*
X119333333Y-116645295D01*
X119333333Y-116645295D02*
X119333333Y-116788152D01*
X119333333Y-116788152D02*
X119285714Y-116883390D01*
X119285714Y-116883390D02*
X119238095Y-116931009D01*
X119238095Y-116931009D02*
X119142857Y-116978628D01*
X119142857Y-116978628D02*
X118761905Y-116978628D01*
X119904762Y-116883390D02*
X119809524Y-116835771D01*
X119809524Y-116835771D02*
X119761905Y-116788152D01*
X119761905Y-116788152D02*
X119714286Y-116692914D01*
X119714286Y-116692914D02*
X119714286Y-116645295D01*
X119714286Y-116645295D02*
X119761905Y-116550057D01*
X119761905Y-116550057D02*
X119809524Y-116502438D01*
X119809524Y-116502438D02*
X119904762Y-116454819D01*
X119904762Y-116454819D02*
X120095238Y-116454819D01*
X120095238Y-116454819D02*
X120190476Y-116502438D01*
X120190476Y-116502438D02*
X120238095Y-116550057D01*
X120238095Y-116550057D02*
X120285714Y-116645295D01*
X120285714Y-116645295D02*
X120285714Y-116692914D01*
X120285714Y-116692914D02*
X120238095Y-116788152D01*
X120238095Y-116788152D02*
X120190476Y-116835771D01*
X120190476Y-116835771D02*
X120095238Y-116883390D01*
X120095238Y-116883390D02*
X119904762Y-116883390D01*
X119904762Y-116883390D02*
X119809524Y-116931009D01*
X119809524Y-116931009D02*
X119761905Y-116978628D01*
X119761905Y-116978628D02*
X119714286Y-117073866D01*
X119714286Y-117073866D02*
X119714286Y-117264342D01*
X119714286Y-117264342D02*
X119761905Y-117359580D01*
X119761905Y-117359580D02*
X119809524Y-117407200D01*
X119809524Y-117407200D02*
X119904762Y-117454819D01*
X119904762Y-117454819D02*
X120095238Y-117454819D01*
X120095238Y-117454819D02*
X120190476Y-117407200D01*
X120190476Y-117407200D02*
X120238095Y-117359580D01*
X120238095Y-117359580D02*
X120285714Y-117264342D01*
X120285714Y-117264342D02*
X120285714Y-117073866D01*
X120285714Y-117073866D02*
X120238095Y-116978628D01*
X120238095Y-116978628D02*
X120190476Y-116931009D01*
X120190476Y-116931009D02*
X120095238Y-116883390D01*
X134954819Y-80230357D02*
X134478628Y-80563690D01*
X134954819Y-80801785D02*
X133954819Y-80801785D01*
X133954819Y-80801785D02*
X133954819Y-80420833D01*
X133954819Y-80420833D02*
X134002438Y-80325595D01*
X134002438Y-80325595D02*
X134050057Y-80277976D01*
X134050057Y-80277976D02*
X134145295Y-80230357D01*
X134145295Y-80230357D02*
X134288152Y-80230357D01*
X134288152Y-80230357D02*
X134383390Y-80277976D01*
X134383390Y-80277976D02*
X134431009Y-80325595D01*
X134431009Y-80325595D02*
X134478628Y-80420833D01*
X134478628Y-80420833D02*
X134478628Y-80801785D01*
X133954819Y-79897023D02*
X133954819Y-79277976D01*
X133954819Y-79277976D02*
X134335771Y-79611309D01*
X134335771Y-79611309D02*
X134335771Y-79468452D01*
X134335771Y-79468452D02*
X134383390Y-79373214D01*
X134383390Y-79373214D02*
X134431009Y-79325595D01*
X134431009Y-79325595D02*
X134526247Y-79277976D01*
X134526247Y-79277976D02*
X134764342Y-79277976D01*
X134764342Y-79277976D02*
X134859580Y-79325595D01*
X134859580Y-79325595D02*
X134907200Y-79373214D01*
X134907200Y-79373214D02*
X134954819Y-79468452D01*
X134954819Y-79468452D02*
X134954819Y-79754166D01*
X134954819Y-79754166D02*
X134907200Y-79849404D01*
X134907200Y-79849404D02*
X134859580Y-79897023D01*
X133954819Y-78944642D02*
X133954819Y-78277976D01*
X133954819Y-78277976D02*
X134954819Y-78706547D01*
X114857142Y-100454819D02*
X114523809Y-99978628D01*
X114285714Y-100454819D02*
X114285714Y-99454819D01*
X114285714Y-99454819D02*
X114666666Y-99454819D01*
X114666666Y-99454819D02*
X114761904Y-99502438D01*
X114761904Y-99502438D02*
X114809523Y-99550057D01*
X114809523Y-99550057D02*
X114857142Y-99645295D01*
X114857142Y-99645295D02*
X114857142Y-99788152D01*
X114857142Y-99788152D02*
X114809523Y-99883390D01*
X114809523Y-99883390D02*
X114761904Y-99931009D01*
X114761904Y-99931009D02*
X114666666Y-99978628D01*
X114666666Y-99978628D02*
X114285714Y-99978628D01*
X115238095Y-99550057D02*
X115285714Y-99502438D01*
X115285714Y-99502438D02*
X115380952Y-99454819D01*
X115380952Y-99454819D02*
X115619047Y-99454819D01*
X115619047Y-99454819D02*
X115714285Y-99502438D01*
X115714285Y-99502438D02*
X115761904Y-99550057D01*
X115761904Y-99550057D02*
X115809523Y-99645295D01*
X115809523Y-99645295D02*
X115809523Y-99740533D01*
X115809523Y-99740533D02*
X115761904Y-99883390D01*
X115761904Y-99883390D02*
X115190476Y-100454819D01*
X115190476Y-100454819D02*
X115809523Y-100454819D01*
X116666666Y-99788152D02*
X116666666Y-100454819D01*
X116428571Y-99407200D02*
X116190476Y-100121485D01*
X116190476Y-100121485D02*
X116809523Y-100121485D01*
X104857142Y-98454819D02*
X104523809Y-97978628D01*
X104285714Y-98454819D02*
X104285714Y-97454819D01*
X104285714Y-97454819D02*
X104666666Y-97454819D01*
X104666666Y-97454819D02*
X104761904Y-97502438D01*
X104761904Y-97502438D02*
X104809523Y-97550057D01*
X104809523Y-97550057D02*
X104857142Y-97645295D01*
X104857142Y-97645295D02*
X104857142Y-97788152D01*
X104857142Y-97788152D02*
X104809523Y-97883390D01*
X104809523Y-97883390D02*
X104761904Y-97931009D01*
X104761904Y-97931009D02*
X104666666Y-97978628D01*
X104666666Y-97978628D02*
X104285714Y-97978628D01*
X105238095Y-97550057D02*
X105285714Y-97502438D01*
X105285714Y-97502438D02*
X105380952Y-97454819D01*
X105380952Y-97454819D02*
X105619047Y-97454819D01*
X105619047Y-97454819D02*
X105714285Y-97502438D01*
X105714285Y-97502438D02*
X105761904Y-97550057D01*
X105761904Y-97550057D02*
X105809523Y-97645295D01*
X105809523Y-97645295D02*
X105809523Y-97740533D01*
X105809523Y-97740533D02*
X105761904Y-97883390D01*
X105761904Y-97883390D02*
X105190476Y-98454819D01*
X105190476Y-98454819D02*
X105809523Y-98454819D01*
X106761904Y-98454819D02*
X106190476Y-98454819D01*
X106476190Y-98454819D02*
X106476190Y-97454819D01*
X106476190Y-97454819D02*
X106380952Y-97597676D01*
X106380952Y-97597676D02*
X106285714Y-97692914D01*
X106285714Y-97692914D02*
X106190476Y-97740533D01*
X129929580Y-111180357D02*
X129977200Y-111227976D01*
X129977200Y-111227976D02*
X130024819Y-111370833D01*
X130024819Y-111370833D02*
X130024819Y-111466071D01*
X130024819Y-111466071D02*
X129977200Y-111608928D01*
X129977200Y-111608928D02*
X129881961Y-111704166D01*
X129881961Y-111704166D02*
X129786723Y-111751785D01*
X129786723Y-111751785D02*
X129596247Y-111799404D01*
X129596247Y-111799404D02*
X129453390Y-111799404D01*
X129453390Y-111799404D02*
X129262914Y-111751785D01*
X129262914Y-111751785D02*
X129167676Y-111704166D01*
X129167676Y-111704166D02*
X129072438Y-111608928D01*
X129072438Y-111608928D02*
X129024819Y-111466071D01*
X129024819Y-111466071D02*
X129024819Y-111370833D01*
X129024819Y-111370833D02*
X129072438Y-111227976D01*
X129072438Y-111227976D02*
X129120057Y-111180357D01*
X130024819Y-110227976D02*
X130024819Y-110799404D01*
X130024819Y-110513690D02*
X129024819Y-110513690D01*
X129024819Y-110513690D02*
X129167676Y-110608928D01*
X129167676Y-110608928D02*
X129262914Y-110704166D01*
X129262914Y-110704166D02*
X129310533Y-110799404D01*
X130024819Y-109751785D02*
X130024819Y-109561309D01*
X130024819Y-109561309D02*
X129977200Y-109466071D01*
X129977200Y-109466071D02*
X129929580Y-109418452D01*
X129929580Y-109418452D02*
X129786723Y-109323214D01*
X129786723Y-109323214D02*
X129596247Y-109275595D01*
X129596247Y-109275595D02*
X129215295Y-109275595D01*
X129215295Y-109275595D02*
X129120057Y-109323214D01*
X129120057Y-109323214D02*
X129072438Y-109370833D01*
X129072438Y-109370833D02*
X129024819Y-109466071D01*
X129024819Y-109466071D02*
X129024819Y-109656547D01*
X129024819Y-109656547D02*
X129072438Y-109751785D01*
X129072438Y-109751785D02*
X129120057Y-109799404D01*
X129120057Y-109799404D02*
X129215295Y-109847023D01*
X129215295Y-109847023D02*
X129453390Y-109847023D01*
X129453390Y-109847023D02*
X129548628Y-109799404D01*
X129548628Y-109799404D02*
X129596247Y-109751785D01*
X129596247Y-109751785D02*
X129643866Y-109656547D01*
X129643866Y-109656547D02*
X129643866Y-109466071D01*
X129643866Y-109466071D02*
X129596247Y-109370833D01*
X129596247Y-109370833D02*
X129548628Y-109323214D01*
X129548628Y-109323214D02*
X129453390Y-109275595D01*
X121789580Y-133780357D02*
X121837200Y-133827976D01*
X121837200Y-133827976D02*
X121884819Y-133970833D01*
X121884819Y-133970833D02*
X121884819Y-134066071D01*
X121884819Y-134066071D02*
X121837200Y-134208928D01*
X121837200Y-134208928D02*
X121741961Y-134304166D01*
X121741961Y-134304166D02*
X121646723Y-134351785D01*
X121646723Y-134351785D02*
X121456247Y-134399404D01*
X121456247Y-134399404D02*
X121313390Y-134399404D01*
X121313390Y-134399404D02*
X121122914Y-134351785D01*
X121122914Y-134351785D02*
X121027676Y-134304166D01*
X121027676Y-134304166D02*
X120932438Y-134208928D01*
X120932438Y-134208928D02*
X120884819Y-134066071D01*
X120884819Y-134066071D02*
X120884819Y-133970833D01*
X120884819Y-133970833D02*
X120932438Y-133827976D01*
X120932438Y-133827976D02*
X120980057Y-133780357D01*
X120980057Y-133399404D02*
X120932438Y-133351785D01*
X120932438Y-133351785D02*
X120884819Y-133256547D01*
X120884819Y-133256547D02*
X120884819Y-133018452D01*
X120884819Y-133018452D02*
X120932438Y-132923214D01*
X120932438Y-132923214D02*
X120980057Y-132875595D01*
X120980057Y-132875595D02*
X121075295Y-132827976D01*
X121075295Y-132827976D02*
X121170533Y-132827976D01*
X121170533Y-132827976D02*
X121313390Y-132875595D01*
X121313390Y-132875595D02*
X121884819Y-133447023D01*
X121884819Y-133447023D02*
X121884819Y-132827976D01*
X120980057Y-132447023D02*
X120932438Y-132399404D01*
X120932438Y-132399404D02*
X120884819Y-132304166D01*
X120884819Y-132304166D02*
X120884819Y-132066071D01*
X120884819Y-132066071D02*
X120932438Y-131970833D01*
X120932438Y-131970833D02*
X120980057Y-131923214D01*
X120980057Y-131923214D02*
X121075295Y-131875595D01*
X121075295Y-131875595D02*
X121170533Y-131875595D01*
X121170533Y-131875595D02*
X121313390Y-131923214D01*
X121313390Y-131923214D02*
X121884819Y-132494642D01*
X121884819Y-132494642D02*
X121884819Y-131875595D01*
X114857142Y-92454819D02*
X114523809Y-91978628D01*
X114285714Y-92454819D02*
X114285714Y-91454819D01*
X114285714Y-91454819D02*
X114666666Y-91454819D01*
X114666666Y-91454819D02*
X114761904Y-91502438D01*
X114761904Y-91502438D02*
X114809523Y-91550057D01*
X114809523Y-91550057D02*
X114857142Y-91645295D01*
X114857142Y-91645295D02*
X114857142Y-91788152D01*
X114857142Y-91788152D02*
X114809523Y-91883390D01*
X114809523Y-91883390D02*
X114761904Y-91931009D01*
X114761904Y-91931009D02*
X114666666Y-91978628D01*
X114666666Y-91978628D02*
X114285714Y-91978628D01*
X115238095Y-91550057D02*
X115285714Y-91502438D01*
X115285714Y-91502438D02*
X115380952Y-91454819D01*
X115380952Y-91454819D02*
X115619047Y-91454819D01*
X115619047Y-91454819D02*
X115714285Y-91502438D01*
X115714285Y-91502438D02*
X115761904Y-91550057D01*
X115761904Y-91550057D02*
X115809523Y-91645295D01*
X115809523Y-91645295D02*
X115809523Y-91740533D01*
X115809523Y-91740533D02*
X115761904Y-91883390D01*
X115761904Y-91883390D02*
X115190476Y-92454819D01*
X115190476Y-92454819D02*
X115809523Y-92454819D01*
X116190476Y-91550057D02*
X116238095Y-91502438D01*
X116238095Y-91502438D02*
X116333333Y-91454819D01*
X116333333Y-91454819D02*
X116571428Y-91454819D01*
X116571428Y-91454819D02*
X116666666Y-91502438D01*
X116666666Y-91502438D02*
X116714285Y-91550057D01*
X116714285Y-91550057D02*
X116761904Y-91645295D01*
X116761904Y-91645295D02*
X116761904Y-91740533D01*
X116761904Y-91740533D02*
X116714285Y-91883390D01*
X116714285Y-91883390D02*
X116142857Y-92454819D01*
X116142857Y-92454819D02*
X116761904Y-92454819D01*
D11*
%TO.C,R42*%
X121342224Y-79522500D02*
X120832776Y-79522500D01*
X121342224Y-78477500D02*
X120832776Y-78477500D01*
%TO.C,R41*%
X121254724Y-81022500D02*
X120745276Y-81022500D01*
X121254724Y-79977500D02*
X120745276Y-79977500D01*
%TO.C,J2*%
X108920000Y-84380000D02*
X101080000Y-84380000D01*
X106270000Y-81730000D02*
X108920000Y-81730000D01*
X108920000Y-81730000D02*
X108920000Y-84380000D01*
X101080000Y-79080000D02*
X101080000Y-84380000D01*
X106270000Y-79080000D02*
X106270000Y-81730000D01*
X106270000Y-79080000D02*
X101080000Y-79080000D01*
X107540000Y-79080000D02*
X108920000Y-79080000D01*
X108920000Y-79080000D02*
X108920000Y-80460000D01*
%TO.C,C16*%
X152052500Y-121208767D02*
X152052500Y-120916233D01*
X153072500Y-121208767D02*
X153072500Y-120916233D01*
%TO.C,R10*%
X114477500Y-119332776D02*
X114477500Y-119842224D01*
X115522500Y-119332776D02*
X115522500Y-119842224D01*
%TO.C,U6*%
X115050000Y-126150000D02*
X115050000Y-124650000D01*
X115050000Y-126200000D02*
X115050000Y-127700000D01*
X122650000Y-126100000D02*
X122650000Y-124600000D01*
X122660000Y-126150000D02*
X122660000Y-127650000D01*
X122700000Y-124202500D02*
X122370000Y-123962500D01*
X122700000Y-123722500D01*
X122700000Y-124202500D01*
G36*
X122700000Y-124202500D02*
G01*
X122370000Y-123962500D01*
X122700000Y-123722500D01*
X122700000Y-124202500D01*
G37*
%TO.C,R1*%
X155832776Y-109977500D02*
X156342224Y-109977500D01*
X155832776Y-111022500D02*
X156342224Y-111022500D01*
D12*
%TO.C,J1*%
X95022600Y-136523000D02*
X95022600Y-153487448D01*
X107827727Y-136523000D02*
X95022600Y-136523000D01*
X150427718Y-136523000D02*
X109772282Y-136523000D01*
X165177400Y-136523000D02*
X152372273Y-136523000D01*
X165177400Y-153487448D02*
X165177400Y-136523000D01*
D13*
X94768600Y-138650001D02*
G75*
G02*
X94006600Y-138650001I-381000J0D01*
G01*
X94006600Y-138650001D02*
G75*
G02*
X94768600Y-138650001I381000J0D01*
G01*
D11*
%TO.C,C17*%
X132490000Y-111391233D02*
X132490000Y-111683767D01*
X133510000Y-111391233D02*
X133510000Y-111683767D01*
%TO.C,C28*%
X114231233Y-107220000D02*
X114523767Y-107220000D01*
X114231233Y-108240000D02*
X114523767Y-108240000D01*
%TO.C,R40*%
X126477500Y-119342224D02*
X126477500Y-118832776D01*
X127522500Y-119342224D02*
X127522500Y-118832776D01*
%TO.C,R4*%
X115477500Y-103332776D02*
X115477500Y-103842224D01*
X116522500Y-103332776D02*
X116522500Y-103842224D01*
%TO.C,C23*%
X136508767Y-126990000D02*
X136216233Y-126990000D01*
X136508767Y-128010000D02*
X136216233Y-128010000D01*
%TO.C,C14*%
X161053733Y-120915000D02*
X161346267Y-120915000D01*
X161053733Y-121935000D02*
X161346267Y-121935000D01*
%TO.C,R32*%
X130977500Y-118832776D02*
X130977500Y-119342224D01*
X132022500Y-118832776D02*
X132022500Y-119342224D01*
%TO.C,R38*%
X129477500Y-119342224D02*
X129477500Y-118832776D01*
X130522500Y-119342224D02*
X130522500Y-118832776D01*
%TO.C,U8*%
X124775000Y-126350000D02*
X124775000Y-124850000D01*
X124775000Y-126400000D02*
X124775000Y-127900000D01*
X132375000Y-126300000D02*
X132375000Y-124800000D01*
X132385000Y-126350000D02*
X132385000Y-127850000D01*
X132425000Y-124402500D02*
X132095000Y-124162500D01*
X132425000Y-123922500D01*
X132425000Y-124402500D01*
G36*
X132425000Y-124402500D02*
G01*
X132095000Y-124162500D01*
X132425000Y-123922500D01*
X132425000Y-124402500D01*
G37*
%TO.C,R3*%
X113977500Y-103332776D02*
X113977500Y-103842224D01*
X115022500Y-103332776D02*
X115022500Y-103842224D01*
%TO.C,C26*%
X128990000Y-132491233D02*
X128990000Y-132783767D01*
X130010000Y-132491233D02*
X130010000Y-132783767D01*
%TO.C,C3*%
X123383767Y-94390000D02*
X123091233Y-94390000D01*
X123383767Y-95410000D02*
X123091233Y-95410000D01*
%TO.C,R26*%
X111832776Y-89477500D02*
X112342224Y-89477500D01*
X111832776Y-90522500D02*
X112342224Y-90522500D01*
%TO.C,L2*%
X156858767Y-115915000D02*
X156516233Y-115915000D01*
X156858767Y-116935000D02*
X156516233Y-116935000D01*
%TO.C,R25*%
X111832776Y-85477500D02*
X112342224Y-85477500D01*
X111832776Y-86522500D02*
X112342224Y-86522500D01*
%TO.C,C9*%
X147490000Y-89783767D02*
X147490000Y-89491233D01*
X148510000Y-89783767D02*
X148510000Y-89491233D01*
%TO.C,C6*%
X129365000Y-81408767D02*
X129365000Y-81116233D01*
X130385000Y-81408767D02*
X130385000Y-81116233D01*
%TO.C,R11*%
X115977500Y-119332776D02*
X115977500Y-119842224D01*
X117022500Y-119332776D02*
X117022500Y-119842224D01*
%TO.C,R23*%
X111832776Y-95477500D02*
X112342224Y-95477500D01*
X111832776Y-96522500D02*
X112342224Y-96522500D01*
%TO.C,C27*%
X114231233Y-113220000D02*
X114523767Y-113220000D01*
X114231233Y-114240000D02*
X114523767Y-114240000D01*
%TO.C,C20*%
X132990000Y-116116233D02*
X132990000Y-116408767D01*
X134010000Y-116116233D02*
X134010000Y-116408767D01*
%TO.C,R35*%
X130977500Y-79842224D02*
X130977500Y-79332776D01*
X132022500Y-79842224D02*
X132022500Y-79332776D01*
%TO.C,C1*%
X122521267Y-86890000D02*
X122228733Y-86890000D01*
X122521267Y-87910000D02*
X122228733Y-87910000D01*
%TO.C,R6*%
X118477500Y-97157776D02*
X118477500Y-97667224D01*
X119522500Y-97157776D02*
X119522500Y-97667224D01*
%TO.C,U4*%
X156437500Y-119065000D02*
X155637500Y-119065000D01*
X156437500Y-119065000D02*
X157237500Y-119065000D01*
X156437500Y-122185000D02*
X155637500Y-122185000D01*
X156437500Y-122185000D02*
X157237500Y-122185000D01*
X155137500Y-119115000D02*
X154897500Y-118785000D01*
X155377500Y-118785000D01*
X155137500Y-119115000D01*
G36*
X155137500Y-119115000D02*
G01*
X154897500Y-118785000D01*
X155377500Y-118785000D01*
X155137500Y-119115000D01*
G37*
%TO.C,U9*%
X116390000Y-110637500D02*
X116390000Y-108437500D01*
X116390000Y-110637500D02*
X116390000Y-112837500D01*
X124460000Y-110637500D02*
X124460000Y-108437500D01*
X124460000Y-110637500D02*
X124460000Y-112837500D01*
X117090000Y-114827500D02*
X116610000Y-114827500D01*
X116850000Y-114497500D01*
X117090000Y-114827500D01*
G36*
X117090000Y-114827500D02*
G01*
X116610000Y-114827500D01*
X116850000Y-114497500D01*
X117090000Y-114827500D01*
G37*
%TO.C,C5*%
X140091233Y-83890000D02*
X140383767Y-83890000D01*
X140091233Y-84910000D02*
X140383767Y-84910000D01*
%TO.C,R13*%
X111832776Y-87477500D02*
X112342224Y-87477500D01*
X111832776Y-88522500D02*
X112342224Y-88522500D01*
%TO.C,R14*%
X108332776Y-87477500D02*
X108842224Y-87477500D01*
X108332776Y-88522500D02*
X108842224Y-88522500D01*
%TO.C,R16*%
X108332776Y-95477500D02*
X108842224Y-95477500D01*
X108332776Y-96522500D02*
X108842224Y-96522500D01*
%TO.C,Y1*%
X149950000Y-80487500D02*
X149950000Y-96462500D01*
X155050000Y-80487500D02*
X149950000Y-80487500D01*
X155050000Y-96462500D02*
X155050000Y-80487500D01*
%TO.C,R5*%
X116977500Y-103332776D02*
X116977500Y-103842224D01*
X118022500Y-103332776D02*
X118022500Y-103842224D01*
%TO.C,R28*%
X111832776Y-97477500D02*
X112342224Y-97477500D01*
X111832776Y-98522500D02*
X112342224Y-98522500D01*
%TO.C,U2*%
X149845000Y-110050000D02*
X147895000Y-110050000D01*
X149845000Y-110050000D02*
X151795000Y-110050000D01*
X149845000Y-115170000D02*
X147895000Y-115170000D01*
X149845000Y-115170000D02*
X151795000Y-115170000D01*
X147145000Y-110145000D02*
X146905000Y-109815000D01*
X147385000Y-109815000D01*
X147145000Y-110145000D01*
G36*
X147145000Y-110145000D02*
G01*
X146905000Y-109815000D01*
X147385000Y-109815000D01*
X147145000Y-110145000D01*
G37*
%TO.C,C25*%
X127490000Y-132491233D02*
X127490000Y-132783767D01*
X128510000Y-132491233D02*
X128510000Y-132783767D01*
%TO.C,U1*%
X126515000Y-85115000D02*
X127465000Y-85115000D01*
X126515000Y-86065000D02*
X126515000Y-85115000D01*
X126515000Y-94385000D02*
X126515000Y-95335000D01*
X126515000Y-95335000D02*
X127465000Y-95335000D01*
X136735000Y-85115000D02*
X135785000Y-85115000D01*
X136735000Y-86065000D02*
X136735000Y-85115000D01*
X136735000Y-94385000D02*
X136735000Y-95335000D01*
X136735000Y-95335000D02*
X135785000Y-95335000D01*
X136255000Y-84840000D02*
X135785000Y-84500000D01*
X136255000Y-84160000D01*
X136255000Y-84840000D01*
G36*
X136255000Y-84840000D02*
G01*
X135785000Y-84500000D01*
X136255000Y-84160000D01*
X136255000Y-84840000D01*
G37*
%TO.C,C2*%
X135365000Y-98891233D02*
X135365000Y-99183767D01*
X136385000Y-98891233D02*
X136385000Y-99183767D01*
%TO.C,R15*%
X108332776Y-91477500D02*
X108842224Y-91477500D01*
X108332776Y-92522500D02*
X108842224Y-92522500D01*
%TO.C,C13*%
X152052500Y-131208767D02*
X152052500Y-130916233D01*
X153072500Y-131208767D02*
X153072500Y-130916233D01*
%TO.C,C24*%
X136508767Y-128490000D02*
X136216233Y-128490000D01*
X136508767Y-129510000D02*
X136216233Y-129510000D01*
%TO.C,C7*%
X127865000Y-81408767D02*
X127865000Y-81116233D01*
X128885000Y-81408767D02*
X128885000Y-81116233D01*
D10*
%TO.C,U7*%
X139425000Y-123275000D02*
X139425000Y-127425000D01*
X144575000Y-123275000D02*
X144575000Y-127425000D01*
D11*
X144805000Y-122915000D02*
X144475000Y-122675000D01*
X144805000Y-122435000D01*
X144805000Y-122915000D01*
G36*
X144805000Y-122915000D02*
G01*
X144475000Y-122675000D01*
X144805000Y-122435000D01*
X144805000Y-122915000D01*
G37*
%TO.C,SW1*%
X157050000Y-87350000D02*
X157300000Y-87350000D01*
X157050000Y-93650000D02*
X157050000Y-87350000D01*
X157300000Y-93650000D02*
X157050000Y-93650000D01*
X159200000Y-87350000D02*
X161800000Y-87350000D01*
X161800000Y-93650000D02*
X159200000Y-93650000D01*
X163700000Y-87350000D02*
X163950000Y-87350000D01*
X163950000Y-87350000D02*
X163950000Y-93650000D01*
X163950000Y-93650000D02*
X163700000Y-93650000D01*
%TO.C,R27*%
X111832776Y-93477500D02*
X112342224Y-93477500D01*
X111832776Y-94522500D02*
X112342224Y-94522500D01*
%TO.C,U5*%
X138137500Y-109990000D02*
X135937500Y-109990000D01*
X138137500Y-109990000D02*
X140337500Y-109990000D01*
X138137500Y-115460000D02*
X135937500Y-115460000D01*
X138137500Y-115460000D02*
X140337500Y-115460000D01*
X134277500Y-110450000D02*
X133947500Y-110690000D01*
X133947500Y-110210000D01*
X134277500Y-110450000D01*
G36*
X134277500Y-110450000D02*
G01*
X133947500Y-110690000D01*
X133947500Y-110210000D01*
X134277500Y-110450000D01*
G37*
%TO.C,R20*%
X108332776Y-93477500D02*
X108842224Y-93477500D01*
X108332776Y-94522500D02*
X108842224Y-94522500D01*
%TO.C,C8*%
X158716233Y-83990000D02*
X159008767Y-83990000D01*
X158716233Y-85010000D02*
X159008767Y-85010000D01*
%TO.C,C15*%
X156553733Y-117415000D02*
X156846267Y-117415000D01*
X156553733Y-118435000D02*
X156846267Y-118435000D01*
%TO.C,R30*%
X140477500Y-94157776D02*
X140477500Y-94667224D01*
X141522500Y-94157776D02*
X141522500Y-94667224D01*
%TO.C,C11*%
X156553733Y-127915000D02*
X156846267Y-127915000D01*
X156553733Y-128935000D02*
X156846267Y-128935000D01*
%TO.C,L1*%
X156858767Y-126415000D02*
X156516233Y-126415000D01*
X156858767Y-127435000D02*
X156516233Y-127435000D01*
%TO.C,U3*%
X156562500Y-129365000D02*
X155762500Y-129365000D01*
X156562500Y-129365000D02*
X157362500Y-129365000D01*
X156562500Y-132485000D02*
X155762500Y-132485000D01*
X156562500Y-132485000D02*
X157362500Y-132485000D01*
X155262500Y-129415000D02*
X155022500Y-129085000D01*
X155502500Y-129085000D01*
X155262500Y-129415000D01*
G36*
X155262500Y-129415000D02*
G01*
X155022500Y-129085000D01*
X155502500Y-129085000D01*
X155262500Y-129415000D01*
G37*
%TO.C,C18*%
X130990000Y-114116233D02*
X130990000Y-114408767D01*
X132010000Y-114116233D02*
X132010000Y-114408767D01*
%TO.C,R36*%
X144977500Y-94157776D02*
X144977500Y-94667224D01*
X146022500Y-94157776D02*
X146022500Y-94667224D01*
%TO.C,C4*%
X140091233Y-85390000D02*
X140383767Y-85390000D01*
X140091233Y-86410000D02*
X140383767Y-86410000D01*
%TO.C,R18*%
X108332776Y-85477500D02*
X108842224Y-85477500D01*
X108332776Y-86522500D02*
X108842224Y-86522500D01*
%TO.C,R29*%
X137977500Y-121842224D02*
X137977500Y-121332776D01*
X139022500Y-121842224D02*
X139022500Y-121332776D01*
%TO.C,R7*%
X119977500Y-97157776D02*
X119977500Y-97667224D01*
X121022500Y-97157776D02*
X121022500Y-97667224D01*
%TO.C,C21*%
X117990000Y-132991233D02*
X117990000Y-133283767D01*
X119010000Y-132991233D02*
X119010000Y-133283767D01*
%TO.C,R2*%
X112477500Y-103332776D02*
X112477500Y-103842224D01*
X113522500Y-103332776D02*
X113522500Y-103842224D01*
%TO.C,R12*%
X120477500Y-119332776D02*
X120477500Y-119842224D01*
X121522500Y-119332776D02*
X121522500Y-119842224D01*
%TO.C,R31*%
X141977500Y-94157776D02*
X141977500Y-94667224D01*
X143022500Y-94157776D02*
X143022500Y-94667224D01*
%TO.C,C10*%
X147490000Y-86008767D02*
X147490000Y-85716233D01*
X148510000Y-86008767D02*
X148510000Y-85716233D01*
%TO.C,R9*%
X117477500Y-119842224D02*
X117477500Y-119332776D01*
X118522500Y-119842224D02*
X118522500Y-119332776D01*
%TO.C,C12*%
X161053733Y-131415000D02*
X161346267Y-131415000D01*
X161053733Y-132435000D02*
X161346267Y-132435000D01*
%TO.C,R19*%
X108332776Y-89477500D02*
X108842224Y-89477500D01*
X108332776Y-90522500D02*
X108842224Y-90522500D01*
%TO.C,R39*%
X127977500Y-118832776D02*
X127977500Y-119342224D01*
X129022500Y-118832776D02*
X129022500Y-119342224D01*
%TO.C,R34*%
X124977500Y-118832776D02*
X124977500Y-119342224D01*
X126022500Y-118832776D02*
X126022500Y-119342224D01*
%TO.C,R33*%
X143477500Y-94157776D02*
X143477500Y-94667224D01*
X144522500Y-94157776D02*
X144522500Y-94667224D01*
%TO.C,R17*%
X108332776Y-99477500D02*
X108842224Y-99477500D01*
X108332776Y-100522500D02*
X108842224Y-100522500D01*
%TO.C,R8*%
X118977500Y-119842224D02*
X118977500Y-119332776D01*
X120022500Y-119842224D02*
X120022500Y-119332776D01*
%TO.C,R37*%
X132477500Y-79842224D02*
X132477500Y-79332776D01*
X133522500Y-79842224D02*
X133522500Y-79332776D01*
%TO.C,R24*%
X111832776Y-99477500D02*
X112342224Y-99477500D01*
X111832776Y-100522500D02*
X112342224Y-100522500D01*
%TO.C,R21*%
X108332776Y-97477500D02*
X108842224Y-97477500D01*
X108332776Y-98522500D02*
X108842224Y-98522500D01*
%TO.C,C19*%
X130490000Y-110683767D02*
X130490000Y-110391233D01*
X131510000Y-110683767D02*
X131510000Y-110391233D01*
%TO.C,C22*%
X119490000Y-132991233D02*
X119490000Y-133283767D01*
X120510000Y-132991233D02*
X120510000Y-133283767D01*
%TO.C,R22*%
X111832776Y-91477500D02*
X112342224Y-91477500D01*
X111832776Y-92522500D02*
X112342224Y-92522500D01*
%TD*%
M02*
