%TF.GenerationSoftware,KiCad,Pcbnew,9.0.1*%
%TF.CreationDate,2025-10-29T09:39:46+01:00*%
%TF.ProjectId,ZoneECU,5a6f6e65-4543-4552-9e6b-696361645f70,rev?*%
%TF.SameCoordinates,Original*%
%TF.FileFunction,Paste,Top*%
%TF.FilePolarity,Positive*%
%FSLAX46Y46*%
G04 Gerber Fmt 4.6, Leading zero omitted, Abs format (unit mm)*
G04 Created by KiCad (PCBNEW 9.0.1) date 2025-10-29 09:39:46*
%MOMM*%
%LPD*%
G01*
G04 APERTURE LIST*
G04 Aperture macros list*
%AMRoundRect*
0 Rectangle with rounded corners*
0 $1 Rounding radius*
0 $2 $3 $4 $5 $6 $7 $8 $9 X,Y pos of 4 corners*
0 Add a 4 corners polygon primitive as box body*
4,1,4,$2,$3,$4,$5,$6,$7,$8,$9,$2,$3,0*
0 Add four circle primitives for the rounded corners*
1,1,$1+$1,$2,$3*
1,1,$1+$1,$4,$5*
1,1,$1+$1,$6,$7*
1,1,$1+$1,$8,$9*
0 Add four rect primitives between the rounded corners*
20,1,$1+$1,$2,$3,$4,$5,0*
20,1,$1+$1,$4,$5,$6,$7,0*
20,1,$1+$1,$6,$7,$8,$9,0*
20,1,$1+$1,$8,$9,$2,$3,0*%
G04 Aperture macros list end*
%ADD10RoundRect,0.237500X0.250000X0.237500X-0.250000X0.237500X-0.250000X-0.237500X0.250000X-0.237500X0*%
%ADD11RoundRect,0.237500X0.237500X-0.300000X0.237500X0.300000X-0.237500X0.300000X-0.237500X-0.300000X0*%
%ADD12RoundRect,0.237500X-0.237500X0.250000X-0.237500X-0.250000X0.237500X-0.250000X0.237500X0.250000X0*%
%ADD13RoundRect,0.157500X-0.222500X0.157500X-0.222500X-0.157500X0.222500X-0.157500X0.222500X0.157500X0*%
%ADD14RoundRect,0.075000X-0.075000X0.650000X-0.075000X-0.650000X0.075000X-0.650000X0.075000X0.650000X0*%
%ADD15RoundRect,0.237500X-0.250000X-0.237500X0.250000X-0.237500X0.250000X0.237500X-0.250000X0.237500X0*%
%ADD16RoundRect,0.237500X-0.237500X0.300000X-0.237500X-0.300000X0.237500X-0.300000X0.237500X0.300000X0*%
%ADD17RoundRect,0.237500X-0.300000X-0.237500X0.300000X-0.237500X0.300000X0.237500X-0.300000X0.237500X0*%
%ADD18RoundRect,0.237500X0.237500X-0.250000X0.237500X0.250000X-0.237500X0.250000X-0.237500X-0.250000X0*%
%ADD19RoundRect,0.237500X0.300000X0.237500X-0.300000X0.237500X-0.300000X-0.237500X0.300000X-0.237500X0*%
%ADD20RoundRect,0.237500X0.287500X0.237500X-0.287500X0.237500X-0.287500X-0.237500X0.287500X-0.237500X0*%
%ADD21RoundRect,0.150000X-0.512500X-0.150000X0.512500X-0.150000X0.512500X0.150000X-0.512500X0.150000X0*%
%ADD22RoundRect,0.100000X0.100000X-0.637500X0.100000X0.637500X-0.100000X0.637500X-0.100000X-0.637500X0*%
%ADD23R,2.000000X7.875000*%
%ADD24RoundRect,0.150000X-0.825000X-0.150000X0.825000X-0.150000X0.825000X0.150000X-0.825000X0.150000X0*%
%ADD25RoundRect,0.075000X-0.075000X0.700000X-0.075000X-0.700000X0.075000X-0.700000X0.075000X0.700000X0*%
%ADD26RoundRect,0.075000X-0.700000X0.075000X-0.700000X-0.075000X0.700000X-0.075000X0.700000X0.075000X0*%
%ADD27R,3.100000X2.400000*%
%ADD28R,0.500000X2.200000*%
%ADD29R,1.300000X1.550000*%
%ADD30RoundRect,0.100000X-0.637500X-0.100000X0.637500X-0.100000X0.637500X0.100000X-0.637500X0.100000X0*%
G04 APERTURE END LIST*
D10*
%TO.C,R42*%
X122000000Y-79000000D03*
X120175000Y-79000000D03*
%TD*%
%TO.C,R41*%
X121912500Y-80500000D03*
X120087500Y-80500000D03*
%TD*%
D11*
%TO.C,C16*%
X152562500Y-121925000D03*
X152562500Y-120200000D03*
%TD*%
D12*
%TO.C,R10*%
X115000000Y-118675000D03*
X115000000Y-120500000D03*
%TD*%
D13*
%TO.C,U6*%
X119220000Y-125760000D03*
X118280000Y-125760000D03*
X119220000Y-126540000D03*
X118280000Y-126540000D03*
D14*
X122000000Y-124000000D03*
X121500000Y-124000000D03*
X121000000Y-124000000D03*
X120500000Y-124000000D03*
X120000000Y-124000000D03*
X119500000Y-124000000D03*
X119000000Y-124000000D03*
X118500000Y-124000000D03*
X118000000Y-124000000D03*
X117500000Y-124000000D03*
X117000000Y-124000000D03*
X116500000Y-124000000D03*
X116000000Y-124000000D03*
X115500000Y-124000000D03*
X115500000Y-128300000D03*
X116000000Y-128300000D03*
X116500000Y-128300000D03*
X117000000Y-128300000D03*
X117500000Y-128300000D03*
X118000000Y-128300000D03*
X118500000Y-128300000D03*
X119000000Y-128300000D03*
X119500000Y-128300000D03*
X120000000Y-128300000D03*
X120500000Y-128300000D03*
X121000000Y-128300000D03*
X121500000Y-128300000D03*
X122000000Y-128300000D03*
%TD*%
D15*
%TO.C,R1*%
X155175000Y-110500000D03*
X157000000Y-110500000D03*
%TD*%
D16*
%TO.C,C17*%
X133000000Y-110675000D03*
X133000000Y-112400000D03*
%TD*%
D17*
%TO.C,C28*%
X113515000Y-107730000D03*
X115240000Y-107730000D03*
%TD*%
D18*
%TO.C,R40*%
X127000000Y-120000000D03*
X127000000Y-118175000D03*
%TD*%
D12*
%TO.C,R4*%
X116000000Y-102675000D03*
X116000000Y-104500000D03*
%TD*%
D19*
%TO.C,C23*%
X137225000Y-127500000D03*
X135500000Y-127500000D03*
%TD*%
D17*
%TO.C,C14*%
X160337500Y-121425000D03*
X162062500Y-121425000D03*
%TD*%
D12*
%TO.C,R32*%
X131500000Y-118175000D03*
X131500000Y-120000000D03*
%TD*%
D18*
%TO.C,R38*%
X130000000Y-120000000D03*
X130000000Y-118175000D03*
%TD*%
D13*
%TO.C,U8*%
X128945000Y-125960000D03*
X128005000Y-125960000D03*
X128945000Y-126740000D03*
X128005000Y-126740000D03*
D14*
X131725000Y-124200000D03*
X131225000Y-124200000D03*
X130725000Y-124200000D03*
X130225000Y-124200000D03*
X129725000Y-124200000D03*
X129225000Y-124200000D03*
X128725000Y-124200000D03*
X128225000Y-124200000D03*
X127725000Y-124200000D03*
X127225000Y-124200000D03*
X126725000Y-124200000D03*
X126225000Y-124200000D03*
X125725000Y-124200000D03*
X125225000Y-124200000D03*
X125225000Y-128500000D03*
X125725000Y-128500000D03*
X126225000Y-128500000D03*
X126725000Y-128500000D03*
X127225000Y-128500000D03*
X127725000Y-128500000D03*
X128225000Y-128500000D03*
X128725000Y-128500000D03*
X129225000Y-128500000D03*
X129725000Y-128500000D03*
X130225000Y-128500000D03*
X130725000Y-128500000D03*
X131225000Y-128500000D03*
X131725000Y-128500000D03*
%TD*%
D12*
%TO.C,R3*%
X114500000Y-102675000D03*
X114500000Y-104500000D03*
%TD*%
D16*
%TO.C,C26*%
X129500000Y-131775000D03*
X129500000Y-133500000D03*
%TD*%
D19*
%TO.C,C3*%
X124100000Y-94900000D03*
X122375000Y-94900000D03*
%TD*%
D15*
%TO.C,R26*%
X111175000Y-90000000D03*
X113000000Y-90000000D03*
%TD*%
D20*
%TO.C,L2*%
X157562500Y-116425000D03*
X155812500Y-116425000D03*
%TD*%
D15*
%TO.C,R25*%
X111175000Y-86000000D03*
X113000000Y-86000000D03*
%TD*%
D11*
%TO.C,C9*%
X148000000Y-90500000D03*
X148000000Y-88775000D03*
%TD*%
%TO.C,C6*%
X129875000Y-82125000D03*
X129875000Y-80400000D03*
%TD*%
D12*
%TO.C,R11*%
X116500000Y-118675000D03*
X116500000Y-120500000D03*
%TD*%
D15*
%TO.C,R23*%
X111175000Y-96000000D03*
X113000000Y-96000000D03*
%TD*%
D17*
%TO.C,C27*%
X113515000Y-113730000D03*
X115240000Y-113730000D03*
%TD*%
D16*
%TO.C,C20*%
X133500000Y-115400000D03*
X133500000Y-117125000D03*
%TD*%
D18*
%TO.C,R35*%
X131500000Y-80500000D03*
X131500000Y-78675000D03*
%TD*%
D19*
%TO.C,C1*%
X123237500Y-87400000D03*
X121512500Y-87400000D03*
%TD*%
D12*
%TO.C,R6*%
X119000000Y-96500000D03*
X119000000Y-98325000D03*
%TD*%
D21*
%TO.C,U4*%
X155300000Y-119675000D03*
X155300000Y-120625000D03*
X155300000Y-121575000D03*
X157575000Y-121575000D03*
X157575000Y-120625000D03*
X157575000Y-119675000D03*
%TD*%
D22*
%TO.C,U9*%
X116850000Y-113500000D03*
X117500000Y-113500000D03*
X118150000Y-113500000D03*
X118800000Y-113500000D03*
X119450000Y-113500000D03*
X120100000Y-113500000D03*
X120750000Y-113500000D03*
X121400000Y-113500000D03*
X122050000Y-113500000D03*
X122700000Y-113500000D03*
X123350000Y-113500000D03*
X124000000Y-113500000D03*
X124000000Y-107775000D03*
X123350000Y-107775000D03*
X122700000Y-107775000D03*
X122050000Y-107775000D03*
X121400000Y-107775000D03*
X120750000Y-107775000D03*
X120100000Y-107775000D03*
X119450000Y-107775000D03*
X118800000Y-107775000D03*
X118150000Y-107775000D03*
X117500000Y-107775000D03*
X116850000Y-107775000D03*
%TD*%
D17*
%TO.C,C5*%
X139375000Y-84400000D03*
X141100000Y-84400000D03*
%TD*%
D15*
%TO.C,R13*%
X111175000Y-88000000D03*
X113000000Y-88000000D03*
%TD*%
%TO.C,R14*%
X107675000Y-88000000D03*
X109500000Y-88000000D03*
%TD*%
%TO.C,R16*%
X107675000Y-96000000D03*
X109500000Y-96000000D03*
%TD*%
D23*
%TO.C,Y1*%
X152500000Y-84625000D03*
X152500000Y-96500000D03*
%TD*%
D12*
%TO.C,R5*%
X117500000Y-102675000D03*
X117500000Y-104500000D03*
%TD*%
D15*
%TO.C,R28*%
X111175000Y-98000000D03*
X113000000Y-98000000D03*
%TD*%
D24*
%TO.C,U2*%
X147370000Y-110705000D03*
X147370000Y-111975000D03*
X147370000Y-113245000D03*
X147370000Y-114515000D03*
X152320000Y-114515000D03*
X152320000Y-113245000D03*
X152320000Y-111975000D03*
X152320000Y-110705000D03*
%TD*%
D16*
%TO.C,C25*%
X128000000Y-131775000D03*
X128000000Y-133500000D03*
%TD*%
D25*
%TO.C,U1*%
X135375000Y-84550000D03*
X134875000Y-84550000D03*
X134375000Y-84550000D03*
X133875000Y-84550000D03*
X133375000Y-84550000D03*
X132875000Y-84550000D03*
X132375000Y-84550000D03*
X131875000Y-84550000D03*
X131375000Y-84550000D03*
X130875000Y-84550000D03*
X130375000Y-84550000D03*
X129875000Y-84550000D03*
X129375000Y-84550000D03*
X128875000Y-84550000D03*
X128375000Y-84550000D03*
X127875000Y-84550000D03*
D26*
X125950000Y-86475000D03*
X125950000Y-86975000D03*
X125950000Y-87475000D03*
X125950000Y-87975000D03*
X125950000Y-88475000D03*
X125950000Y-88975000D03*
X125950000Y-89475000D03*
X125950000Y-89975000D03*
X125950000Y-90475000D03*
X125950000Y-90975000D03*
X125950000Y-91475000D03*
X125950000Y-91975000D03*
X125950000Y-92475000D03*
X125950000Y-92975000D03*
X125950000Y-93475000D03*
X125950000Y-93975000D03*
D25*
X127875000Y-95900000D03*
X128375000Y-95900000D03*
X128875000Y-95900000D03*
X129375000Y-95900000D03*
X129875000Y-95900000D03*
X130375000Y-95900000D03*
X130875000Y-95900000D03*
X131375000Y-95900000D03*
X131875000Y-95900000D03*
X132375000Y-95900000D03*
X132875000Y-95900000D03*
X133375000Y-95900000D03*
X133875000Y-95900000D03*
X134375000Y-95900000D03*
X134875000Y-95900000D03*
X135375000Y-95900000D03*
D26*
X137300000Y-93975000D03*
X137300000Y-93475000D03*
X137300000Y-92975000D03*
X137300000Y-92475000D03*
X137300000Y-91975000D03*
X137300000Y-91475000D03*
X137300000Y-90975000D03*
X137300000Y-90475000D03*
X137300000Y-89975000D03*
X137300000Y-89475000D03*
X137300000Y-88975000D03*
X137300000Y-88475000D03*
X137300000Y-87975000D03*
X137300000Y-87475000D03*
X137300000Y-86975000D03*
X137300000Y-86475000D03*
%TD*%
D16*
%TO.C,C2*%
X135875000Y-98175000D03*
X135875000Y-99900000D03*
%TD*%
D15*
%TO.C,R15*%
X107675000Y-92000000D03*
X109500000Y-92000000D03*
%TD*%
D11*
%TO.C,C13*%
X152562500Y-131925000D03*
X152562500Y-130200000D03*
%TD*%
D19*
%TO.C,C24*%
X137225000Y-129000000D03*
X135500000Y-129000000D03*
%TD*%
D11*
%TO.C,C7*%
X128375000Y-82125000D03*
X128375000Y-80400000D03*
%TD*%
D27*
%TO.C,U7*%
X142000000Y-125350000D03*
D28*
X143905000Y-122475000D03*
X142635000Y-122475000D03*
X141365000Y-122475000D03*
X140095000Y-122475000D03*
X140095000Y-128225000D03*
X141365000Y-128225000D03*
X142635000Y-128225000D03*
X143905000Y-128225000D03*
%TD*%
D29*
%TO.C,SW1*%
X162750000Y-86525000D03*
X162750000Y-94475000D03*
X158250000Y-86525000D03*
X158250000Y-94475000D03*
%TD*%
D15*
%TO.C,R27*%
X111175000Y-94000000D03*
X113000000Y-94000000D03*
%TD*%
D30*
%TO.C,U5*%
X135275000Y-110450000D03*
X135275000Y-111100000D03*
X135275000Y-111750000D03*
X135275000Y-112400000D03*
X135275000Y-113050000D03*
X135275000Y-113700000D03*
X135275000Y-114350000D03*
X135275000Y-115000000D03*
X141000000Y-115000000D03*
X141000000Y-114350000D03*
X141000000Y-113700000D03*
X141000000Y-113050000D03*
X141000000Y-112400000D03*
X141000000Y-111750000D03*
X141000000Y-111100000D03*
X141000000Y-110450000D03*
%TD*%
D15*
%TO.C,R20*%
X107675000Y-94000000D03*
X109500000Y-94000000D03*
%TD*%
D17*
%TO.C,C8*%
X158000000Y-84500000D03*
X159725000Y-84500000D03*
%TD*%
%TO.C,C15*%
X155837500Y-117925000D03*
X157562500Y-117925000D03*
%TD*%
D12*
%TO.C,R30*%
X141000000Y-93500000D03*
X141000000Y-95325000D03*
%TD*%
D17*
%TO.C,C11*%
X155837500Y-128425000D03*
X157562500Y-128425000D03*
%TD*%
D20*
%TO.C,L1*%
X157562500Y-126925000D03*
X155812500Y-126925000D03*
%TD*%
D21*
%TO.C,U3*%
X155425000Y-129975000D03*
X155425000Y-130925000D03*
X155425000Y-131875000D03*
X157700000Y-131875000D03*
X157700000Y-130925000D03*
X157700000Y-129975000D03*
%TD*%
D16*
%TO.C,C18*%
X131500000Y-113400000D03*
X131500000Y-115125000D03*
%TD*%
D12*
%TO.C,R36*%
X145500000Y-93500000D03*
X145500000Y-95325000D03*
%TD*%
D17*
%TO.C,C4*%
X139375000Y-85900000D03*
X141100000Y-85900000D03*
%TD*%
D15*
%TO.C,R18*%
X107675000Y-86000000D03*
X109500000Y-86000000D03*
%TD*%
D18*
%TO.C,R29*%
X138500000Y-122500000D03*
X138500000Y-120675000D03*
%TD*%
D12*
%TO.C,R7*%
X120500000Y-96500000D03*
X120500000Y-98325000D03*
%TD*%
D16*
%TO.C,C21*%
X118500000Y-132275000D03*
X118500000Y-134000000D03*
%TD*%
D12*
%TO.C,R2*%
X113000000Y-102675000D03*
X113000000Y-104500000D03*
%TD*%
%TO.C,R12*%
X121000000Y-118675000D03*
X121000000Y-120500000D03*
%TD*%
%TO.C,R31*%
X142500000Y-93500000D03*
X142500000Y-95325000D03*
%TD*%
D11*
%TO.C,C10*%
X148000000Y-86725000D03*
X148000000Y-85000000D03*
%TD*%
D18*
%TO.C,R9*%
X118000000Y-120500000D03*
X118000000Y-118675000D03*
%TD*%
D17*
%TO.C,C12*%
X160337500Y-131925000D03*
X162062500Y-131925000D03*
%TD*%
D15*
%TO.C,R19*%
X107675000Y-90000000D03*
X109500000Y-90000000D03*
%TD*%
D12*
%TO.C,R39*%
X128500000Y-118175000D03*
X128500000Y-120000000D03*
%TD*%
%TO.C,R34*%
X125500000Y-118175000D03*
X125500000Y-120000000D03*
%TD*%
%TO.C,R33*%
X144000000Y-93500000D03*
X144000000Y-95325000D03*
%TD*%
D15*
%TO.C,R17*%
X107675000Y-100000000D03*
X109500000Y-100000000D03*
%TD*%
D18*
%TO.C,R8*%
X119500000Y-120500000D03*
X119500000Y-118675000D03*
%TD*%
%TO.C,R37*%
X133000000Y-80500000D03*
X133000000Y-78675000D03*
%TD*%
D15*
%TO.C,R24*%
X111175000Y-100000000D03*
X113000000Y-100000000D03*
%TD*%
%TO.C,R21*%
X107675000Y-98000000D03*
X109500000Y-98000000D03*
%TD*%
D11*
%TO.C,C19*%
X131000000Y-111400000D03*
X131000000Y-109675000D03*
%TD*%
D16*
%TO.C,C22*%
X120000000Y-132275000D03*
X120000000Y-134000000D03*
%TD*%
D15*
%TO.C,R22*%
X111175000Y-92000000D03*
X113000000Y-92000000D03*
%TD*%
M02*
