M48
; DRILL file {KiCad 9.0.1} date 2025-10-29T09:40:07+0100
; FORMAT={-:-/ absolute / metric / decimal}
; #@! TF.CreationDate,2025-10-29T09:40:07+01:00
; #@! TF.GenerationSoftware,Kicad,Pcbnew,9.0.1
; #@! TF.FileFunction,Plated,1,4,PTH
FMAT,2
METRIC
; #@! TA.AperFunction,Plated,PTH,ViaDrill
T1C0.300
; #@! TA.AperFunction,Plated,PTH,ComponentDrill
T2C0.300
; #@! TA.AperFunction,Plated,PTH,ComponentDrill
T3C0.330
; #@! TA.AperFunction,Plated,PTH,ViaDrill
T4C0.500
; #@! TA.AperFunction,Plated,PTH,ComponentDrill
T5C1.000
; #@! TA.AperFunction,Plated,PTH,ComponentDrill
T6C1.295
%
G90
G05
T1
X103.0Y-85.5
X104.5Y-135.5
X105.5Y-86.5
X105.5Y-88.0
X106.0Y-93.0
X106.0Y-97.5
X107.0Y-132.5
X107.5Y-102.5
X107.5Y-108.5
X107.5Y-114.0
X107.5Y-120.5
X107.5Y-126.5
X108.592Y-87.0
X108.592Y-89.0
X108.592Y-91.0
X108.592Y-93.0
X108.592Y-95.0
X108.592Y-97.0
X108.592Y-100.561
X108.596Y-99.082
X110.401Y-148.099
X110.5Y-146.5
X111.4Y-145.5
X111.5Y-87.0
X112.5Y-84.0
X112.9Y-145.0
X113.0Y-109.5
X113.0Y-112.0
X113.0Y-115.5
X113.0Y-120.0
X113.5Y-92.0
X113.5Y-94.0
X113.5Y-98.0
X113.5Y-100.0
X114.0Y-91.0
X114.0Y-94.85
X114.0Y-124.5
X114.0Y-129.0
X114.5Y-84.5
X114.5Y-99.0
X115.066Y-85.066
X115.5Y-81.5
X115.714Y-85.535
X116.0Y-109.5
X116.5Y-86.0
X116.513Y-105.3
X117.109Y-105.9
X117.5Y-111.5
X117.668Y-105.328
X117.706Y-106.5
X118.5Y-135.0
X118.704Y-100.424
X118.931Y-122.662
X119.0Y-110.5
X119.495Y-122.026
X119.5Y-100.5
X119.908Y-91.408
X120.34Y-122.119
X121.0Y-101.0
X121.024Y-101.824
X121.036Y-103.534
X121.101Y-102.621
X121.168Y-121.924
X121.35Y-104.332
X121.5Y-81.5
X122.0Y-98.5
X122.016Y-121.976
X122.124Y-104.532
X122.5Y-97.5
X122.722Y-105.064
X122.855Y-122.112
X123.346Y-114.86
X123.5Y-105.5
X124.0Y-80.5
X124.0Y-97.0
X124.0Y-123.0
X124.0Y-127.5
X124.247Y-106.235
X124.5Y-121.5
X126.0Y-80.0
X126.5Y-81.5
X127.5Y-89.5
X128.0Y-102.5
X128.0Y-106.0
X128.0Y-110.0
X128.0Y-113.0
X128.0Y-116.0
X128.5Y-122.5
X128.826Y-121.5
X129.0Y-135.0
X129.825Y-122.5
X130.526Y-121.414
X131.0Y-87.5
X131.088Y-122.052
X131.275Y-101.5
X131.5Y-79.5
X131.801Y-122.515
X132.1Y-88.5
X132.5Y-89.5
X132.5Y-103.5
X132.523Y-92.023
X132.524Y-90.324
X132.534Y-91.163
X132.593Y-92.825
X132.659Y-93.871
X133.0Y-79.5
X133.0Y-109.0
X133.5Y-94.0
X133.5Y-107.5
X133.5Y-148.5
X134.0Y-88.0
X134.0Y-120.0
X134.0Y-128.5
X134.324Y-94.024
X134.5Y-121.5
X135.0Y-87.4
X135.0Y-116.0
X135.5Y-82.5
X135.508Y-85.97
X135.512Y-86.785
X137.0Y-97.0
X139.0Y-100.5
X139.0Y-103.0
X139.5Y-92.5
X139.5Y-96.0
X141.0Y-92.0
X141.0Y-96.5
X141.0Y-134.5
X142.5Y-82.5
X142.5Y-92.0
X142.5Y-96.5
X142.5Y-112.5
X142.5Y-135.5
X143.0Y-87.0
X143.0Y-100.5
X143.5Y-83.5
X144.0Y-92.0
X144.0Y-96.5
X144.0Y-108.0
X144.0Y-116.0
X145.0Y-84.5
X145.5Y-92.0
X145.5Y-96.5
X145.5Y-112.0
X145.5Y-133.5
X146.0Y-90.5
X146.0Y-129.0
X147.0Y-97.0
X147.0Y-138.0
X147.5Y-94.0
X148.0Y-130.5
X148.5Y-120.0
X148.5Y-126.0
X150.0Y-86.0
X150.0Y-93.0
X150.0Y-99.5
X150.0Y-148.5
X150.5Y-89.5
X151.5Y-109.0
X152.5Y-117.0
X154.0Y-109.0
X154.0Y-113.5
X154.5Y-112.0
X155.0Y-81.0
X155.5Y-133.0
X156.0Y-87.0
X156.0Y-93.5
X156.0Y-100.0
X156.5Y-123.5
X159.0Y-116.5
X159.0Y-125.5
X159.5Y-119.5
X159.5Y-129.5
X162.0Y-125.5
X162.0Y-129.5
X163.0Y-137.5
X163.0Y-148.5
X163.5Y-117.0
T2
X115.7Y-125.665
X115.7Y-126.635
X116.9Y-125.665
X116.9Y-126.635
X118.11Y-125.665
X118.11Y-126.635
X119.39Y-125.665
X119.39Y-126.635
X120.45Y-125.665
X120.45Y-126.635
X121.6Y-125.665
X121.6Y-126.635
X125.425Y-125.865
X125.425Y-126.835
X126.625Y-125.865
X126.625Y-126.835
X127.835Y-125.865
X127.835Y-126.835
X129.115Y-125.865
X129.115Y-126.835
X130.175Y-125.865
X130.175Y-126.835
X131.325Y-125.865
X131.325Y-126.835
T3
X140.7Y-124.7
X140.7Y-126.0
X142.0Y-124.7
X142.0Y-126.0
X143.3Y-124.7
X143.3Y-126.0
T4
X114.0Y-88.0
X114.0Y-116.5
X115.5Y-115.5
X115.816Y-117.316
X117.5Y-90.0
X117.966Y-116.689
X119.0Y-130.5
X119.201Y-116.499
X120.0Y-85.5
X120.451Y-116.503
X121.701Y-116.508
X122.942Y-116.356
X123.5Y-86.0
X127.864Y-86.364
X128.0Y-91.5
X128.5Y-130.5
X129.5Y-90.0
X130.275Y-86.59
X137.0Y-84.5
X138.0Y-101.0
X138.0Y-137.0
X138.5Y-128.225
X139.818Y-135.28
X140.5Y-109.0
X144.0Y-114.0
X150.5Y-132.0
X151.5Y-123.5
T5
X102.46Y-80.46
X102.46Y-83.0
X105.0Y-80.46
X105.0Y-83.0
X107.54Y-80.46
X107.54Y-83.0
T6
X115.25Y-138.65
X115.25Y-141.15
X115.25Y-143.65
X115.25Y-146.15
X117.75Y-138.65
X117.75Y-141.15
X117.75Y-143.65
X117.75Y-146.15
X120.25Y-138.65
X120.25Y-141.15
X120.25Y-143.65
X120.25Y-146.15
X122.75Y-138.65
X122.75Y-141.15
X122.75Y-143.65
X122.75Y-146.15
X125.25Y-138.65
X125.25Y-141.15
X125.25Y-143.65
X125.25Y-146.15
X127.75Y-138.65
X127.75Y-141.15
X127.75Y-143.65
X127.75Y-146.15
X130.25Y-138.65
X130.25Y-141.15
X130.25Y-143.65
X130.25Y-146.15
X132.75Y-138.65
X132.75Y-141.15
X132.75Y-143.65
X132.75Y-146.15
X135.25Y-138.65
X135.25Y-141.15
X135.25Y-143.65
X135.25Y-146.15
X137.75Y-138.65
X137.75Y-141.15
X137.75Y-143.65
X137.75Y-146.15
X141.25Y-138.65
X141.25Y-141.15
X141.25Y-143.65
X141.25Y-146.15
X144.95Y-138.65
X144.95Y-141.15
X144.95Y-143.65
X144.95Y-146.15
M30
