%TF.GenerationSoftware,KiCad,Pcbnew,9.0.1*%
%TF.CreationDate,2025-10-29T09:39:47+01:00*%
%TF.ProjectId,ZoneECU,5a6f6e65-4543-4552-9e6b-696361645f70,rev?*%
%TF.SameCoordinates,Original*%
%TF.FileFunction,Soldermask,Bot*%
%TF.FilePolarity,Negative*%
%FSLAX46Y46*%
G04 Gerber Fmt 4.6, Leading zero omitted, Abs format (unit mm)*
G04 Created by KiCad (PCBNEW 9.0.1) date 2025-10-29 09:39:47*
%MOMM*%
%LPD*%
G01*
G04 APERTURE LIST*
%ADD10C,1.700000*%
%ADD11R,1.700000X1.700000*%
%ADD12C,4.089400*%
%ADD13C,2.311400*%
%ADD14C,1.803400*%
%ADD15C,0.770000*%
G04 APERTURE END LIST*
D10*
%TO.C,J2*%
X102460000Y-83000000D03*
X102460000Y-80460000D03*
X105000000Y-83000000D03*
X105000000Y-80460000D03*
X107540000Y-83000000D03*
D11*
X107540000Y-80460000D03*
%TD*%
D12*
%TO.C,J1*%
X104700000Y-141500000D03*
D13*
X108800005Y-137650000D03*
X151399996Y-137650000D03*
D12*
X155500000Y-141500000D03*
D14*
X115250002Y-138650001D03*
X115250002Y-141150001D03*
X115250002Y-143650001D03*
X115250002Y-146150001D03*
X117750002Y-138650001D03*
X117750002Y-141150001D03*
X117750002Y-143650001D03*
X117750002Y-146150001D03*
X120250002Y-138650001D03*
X120250002Y-141150001D03*
X120250002Y-143650001D03*
X120250002Y-146150001D03*
X122750002Y-138650001D03*
X122750002Y-141150001D03*
X122750002Y-143650001D03*
X122750002Y-146150001D03*
X125250000Y-138650001D03*
X125250000Y-141150001D03*
X125250000Y-143650001D03*
X125250000Y-146150001D03*
X127750000Y-138650001D03*
X127750000Y-141150001D03*
X127750000Y-143650001D03*
X127750000Y-146150001D03*
X130250000Y-138650001D03*
X130250000Y-141150001D03*
X130250000Y-143650001D03*
X130250000Y-146150001D03*
X132750000Y-138650001D03*
X132750000Y-141150001D03*
X132750000Y-143650001D03*
X132750000Y-146150001D03*
X135250000Y-138650001D03*
X135250000Y-141150001D03*
X135250000Y-143650001D03*
X135250000Y-146150001D03*
X137750000Y-138650001D03*
X137750000Y-141150001D03*
X137750000Y-143650001D03*
X137750000Y-146150001D03*
X141250000Y-138650001D03*
X141250000Y-141150001D03*
X141250000Y-143650001D03*
X141250000Y-146150001D03*
X144950000Y-138650001D03*
X144950000Y-141150001D03*
X144950000Y-143650001D03*
X144950000Y-146150001D03*
%TD*%
D15*
%TO.C,U7*%
X143300000Y-124700000D03*
X142000000Y-124700000D03*
X140700000Y-124700000D03*
X143300000Y-126000000D03*
X142000000Y-126000000D03*
X140700000Y-126000000D03*
%TD*%
M02*
